<?xml version="1.0" encoding="UTF-8" standalone="no"?>
<svg
   xmlns:dc="http://purl.org/dc/elements/1.1/"
   xmlns:cc="http://creativecommons.org/ns#"
   xmlns:rdf="http://www.w3.org/1999/02/22-rdf-syntax-ns#"
   xmlns:svg="http://www.w3.org/2000/svg"
   xmlns="http://www.w3.org/2000/svg"
   xmlns:sodipodi="http://sodipodi.sourceforge.net/DTD/sodipodi-0.dtd"
   xmlns:inkscape="http://www.inkscape.org/namespaces/inkscape"
   sodipodi:docname="Logo-ink-75finalcurvas.svg"
   inkscape:version="1.0 (4035a4fb49, 2020-05-01)"
   id="svg8"
   version="1.1"
   viewBox="0 0 210 297"
   height="297mm"
   width="210mm">
  <defs
     id="defs2">
    <rect
       id="rect59"
       height="4.48026"
       width="11.78272"
       y="107.46988"
       x="101.71604" />
  </defs>
  <sodipodi:namedview
     inkscape:window-maximized="1"
     inkscape:window-y="-8"
     inkscape:window-x="1358"
     inkscape:window-height="837"
     inkscape:window-width="1600"
     showgrid="false"
     inkscape:document-rotation="0"
     inkscape:current-layer="text28"
     inkscape:document-units="mm"
     inkscape:cy="349.03912"
     inkscape:cx="433.89616"
     inkscape:zoom="0.98994949"
     inkscape:pageshadow="2"
     inkscape:pageopacity="0.0"
     borderopacity="1.0"
     bordercolor="#666666"
     pagecolor="#ffffff"
     id="base" />
  <metadata
     id="metadata5">
    <rdf:RDF>
      <cc:Work
         rdf:about="">
        <dc:format>image/svg+xml</dc:format>
        <dc:type
           rdf:resource="http://purl.org/dc/dcmitype/StillImage" />
        <dc:title></dc:title>
      </cc:Work>
    </rdf:RDF>
  </metadata>
  <g
     id="layer1"
     inkscape:groupmode="layer"
     inkscape:label="Layer 1">
    <path
       d="M 32.279288,46.513697 C 31.759647,46.224419 31.249883,45.915738 31.146519,45.827544 30.734475,45.481822 36.55813,38.428736 40.649294,34.318169 68.754393,6.0779558 112.29493,0.82227259 146.98286,21.483055 c 7.30391,4.349045 16.36289,12.182122 21.95089,18.978386 l 2.52166,3.068814 -2.27894,0.14605 c -2.27789,0.147461 -2.28495,0.143581 -5.15691,-3.050822 C 129.29459,2.0005503 69.312488,3.428242 37.043199,43.647377 c -2.844447,3.544358 -3.183466,3.749675 -4.763911,2.86632 z"
       style="fill:#ff0000;fill-opacity:1;fill-rule:nonzero;stroke:none;stroke-width:0.352778"
       id="path22" />
    <path
       d="m 130.4009,46.618472 c -0.10196,0.02752 -0.28646,0.165452 -0.54399,0.377825 -1.15781,0.960261 -4.40584,1.302102 -12.34616,1.302102 h -7.51417 v 8.530167 h 0.94368 c 0.5969,0 1.03223,-0.255059 1.18534,-0.69462 0.3182,-0.921808 2.19498,-2.337152 4.53919,-3.425825 2.67476,-1.241425 8.81521,-1.161697 9.43116,0.122767 0.56233,1.174045 0.63394,1.103842 2.63349,-2.581275 1.52435,-2.809875 1.97485,-3.713691 1.67146,-3.631141 z M 37.000513,47.45773 c -8.575675,-0.0441 -16.635941,4.929364 -19.589044,13.430602 -4.208286,12.111567 3.49497,24.086608 16.915694,26.294291 2.283178,0.376062 6.20642,-0.114652 8.611306,-1.077736 2.55905,-1.023761 5.983463,-1.321505 8.171744,-0.708377 l 1.066447,0.299155 V 68.558427 H 36.654438 v 0.84455 c 0,1.16593 0.625828,1.515886 3.104797,1.739194 1.174045,0.104775 2.614084,0.392642 3.201106,0.638175 l 1.068211,0.446264 v 9.877777 l -1.843969,0.75812 c -2.564695,1.052689 -6.617406,1.060803 -9.107311,0.01905 C 22.032153,78.254171 21.458889,57.248724 32.240483,52.20506 c 2.628194,-1.229077 8.04933,-1.274586 10.489847,-0.08961 2.817989,1.369836 3.32105,2.275416 3.019072,5.449005 -0.156986,1.639711 -0.111478,2.809875 0.114653,2.937934 0.205316,0.115711 2.062691,-1.362781 4.125736,-3.286831 4.003322,-3.731683 4.2926,-4.412192 2.058811,-4.847872 -0.676628,-0.132292 -2.236611,-0.851606 -3.465689,-1.598436 -3.680883,-2.233789 -7.685264,-3.290711 -11.5824,-3.311525 z m 100.643617,0.851605 -6.49887,0.0099 -9.50701,16.197439 c -10.35614,17.640299 -10.9735,18.50143 -14.16085,19.711458 -1.17546,0.446264 -2.13748,0.945091 -2.13748,1.109133 0,0.164042 2.98344,0.255058 6.62975,0.201436 l 6.63116,-0.09666 8.33438,-14.395097 c 4.58329,-7.916686 8.93657,-15.382875 9.67105,-16.591491 1.5434,-2.534003 3.75391,-4.413956 5.98205,-5.087761 2.76578,-0.836436 1.68275,-1.06927 -4.94418,-1.058334 z m -65.977909,0.05115 c -4.321528,0.0053 -5.135739,0.333375 -2.476147,0.989542 0.819855,0.201083 1.78435,0.663928 2.144183,1.027994 0.516819,0.523522 10.722328,20.079405 10.722328,20.546483 0,0.06597 -2.450042,0.121356 -5.44442,0.121356 -5.253214,0 -5.457119,-0.02787 -5.760155,-0.779992 -0.264584,-0.656167 -0.5334,-0.27305 -1.677106,2.398889 -1.450975,3.388783 -1.507772,3.815997 -0.380294,2.881489 0.610305,-0.505531 1.751541,-0.590903 7.983008,-0.590903 h 7.270397 l 1.951214,3.817055 c 2.1844,4.273198 2.16923,4.497917 -0.373239,5.593292 -0.895703,0.385939 -1.629128,0.8255 -1.629128,0.977194 0,0.151695 4.277431,0.27552 9.507361,0.27552 5.228167,0 9.507007,-0.137936 9.507007,-0.30727 0,-0.168275 -0.79234,-0.5842 -1.76107,-0.923219 -4.134198,-1.44568 -4.262256,-1.637239 -13.797134,-20.611391 L 79.766351,48.476199 73.732087,48.37848 c -0.760588,-0.0127 -1.448505,-0.01799 -2.065866,-0.01799 z m 93.567599,0.0014 c -4.36421,0.0053 -5.19253,0.330553 -2.53435,0.98672 0.81456,0.199672 1.85067,0.726016 2.30293,1.1684 0.70132,0.685094 9.72467,17.927108 10.39424,19.863152 0.21908,0.631119 -0.0631,0.66675 -5.26274,0.66675 -5.30683,0 -5.50227,-0.02611 -5.71464,-0.768703 -0.17075,-0.5969 -0.46849,-0.1778 -1.32574,1.865842 -1.75401,4.1783 -1.73355,4.077405 -0.66675,3.392664 0.75777,-0.486481 2.07257,-0.58032 8.11777,-0.58032 h 7.2143 l 1.97309,3.891845 c 2.19392,4.322938 2.17876,4.557183 -0.34572,5.510741 -0.78564,0.296334 -1.53776,0.701322 -1.67146,0.899936 -0.16263,0.240948 3.00002,0.360892 9.4809,0.360892 5.34811,0 9.72326,-0.07161 9.72326,-0.159808 0,-0.08819 -1.14935,-0.661459 -2.55482,-1.275998 -3.59798,-1.573741 -3.9123,-2.0574 -12.97552,-19.967927 l -7.96501,-15.738475 -6.102,-0.09913 c -0.76764,-0.01129 -1.46367,-0.01799 -2.08774,-0.01658 z m -1.05022,4.734984 -0.27975,2.488494 c -0.2286,2.035528 -1.18498,4.517319 -5.25427,13.634508 -5.57848,12.498564 -6.31014,13.59288 -10.04323,15.009636 -1.17264,0.444853 -2.13325,0.941211 -2.13325,1.099608 0,0.159808 3.32811,0.289278 7.39599,0.289278 7.67962,0 8.42398,-0.180622 5.36469,-1.300692 -2.74497,-1.006122 -2.7686,-0.879475 2.15371,-11.900958 4.34798,-9.733139 5.22851,-11.32205 6.27697,-11.32205 0.48789,0 0.22049,-0.639233 -2.67617,-6.397977 z m -93.626512,0.546805 c -0.09525,0.03457 -0.104775,0.364067 -0.1143,0.898525 -0.04022,2.177344 -0.850548,4.332817 -5.718881,15.232944 -5.637741,12.619919 -6.100586,13.289844 -10.037939,14.538325 -0.822677,0.26035 -1.562452,0.661458 -1.645355,0.890058 -0.111478,0.30727 1.729669,0.414867 7.059789,0.414867 7.081661,0 8.466666,-0.239889 5.97535,-1.036108 -1.543403,-0.492125 -2.648656,-1.386417 -2.632075,-2.129367 0.03422,-1.525411 9.132005,-20.837172 9.976908,-21.176191 1.03505,-0.416278 1.017058,-0.487892 -1.26365,-4.909961 -1.038931,-2.014714 -1.440039,-2.780947 -1.598436,-2.723092 z m 72.707852,23.064258 c -0.36936,0.02364 -0.88336,0.437092 -1.59279,1.170164 -3.00567,3.105855 -6.6548,4.29648 -12.65061,4.129969 -3.99345,-0.11183 -4.40831,-0.188736 -5.07506,-0.942622 l -0.72496,-0.821267 -1.76248,3.213453 c -0.96873,1.766711 -1.76107,3.278364 -1.76107,3.359855 0,0.07973 0.6477,-0.155927 1.44004,-0.526697 1.31057,-0.611716 2.41159,-0.672394 12.22305,-0.672394 h 10.78335 v -4.27602 c 0,-3.299177 -0.17533,-4.678538 -0.87947,-4.634441 z"
       style="fill:#0000ff;fill-opacity:1;fill-rule:nonzero;stroke:none;stroke-width:0.352778"
       id="path24" />
    <g
       style="font-variant:normal;font-weight:normal;font-size:35.2778px;font-family:Waterfall;-inkscape-font-specification:Waterfall-Regular;writing-mode:lr-tb;fill:#ff6600;fill-opacity:1;fill-rule:nonzero;stroke:none;stroke-width:0.352778"
       id="text28"
       transform="rotate(-4.1164982)"
       aria-label="75 Años">
      <g
         id="g75">
        <path
           d="m 87.181588,117.03017 q -0.458611,0 -0.458611,-0.35278 0,-0.35278 0.740834,-1.48167 0.776111,-1.12889 1.975557,-2.75167 1.234723,-1.62277 2.645835,-3.38666 1.44639,-1.79917 2.822224,-3.42195 1.023056,-1.23472 2.046112,-2.50472 1.058334,-1.27001 2.151946,-2.46945 -0.458611,-0.0353 -1.023056,-0.14111 -0.529167,-0.14111 -0.846667,-0.17639 -0.776112,-0.14111 -1.552223,-0.17639 -0.740834,-0.0706 -1.516946,-0.0706 -0.423334,0 -0.846667,0.0353 -0.388056,0 -0.776112,0.0353 -1.305278,0.0706 -2.504724,0.3175 -1.164167,0.24694 -1.693334,0.77611 -0.493889,0.49389 -0.493889,1.09361 0,0.38806 0.211666,0.77612 0.211667,0.35277 0.670279,0.59972 0.07055,0.0705 0.07055,0.14111 0,0.0705 -0.07055,0.14111 -0.07056,0.0706 -0.176389,0.0353 -0.81139,-0.38806 -1.270001,-1.02306 -0.458612,-0.67028 -0.458612,-1.30528 0,-0.9525 0.846668,-1.44639 0.881945,-0.529164 2.257779,-0.74083 1.375834,-0.211667 2.928057,-0.211667 2.328335,0 4.445003,0.423333 0.388056,0.07056 1.058334,0.246945 0.670279,0.141109 1.199446,0.211669 0.176389,-0.17639 0.3175,-0.35278 0.176393,-0.176389 0.317503,-0.3175 0.24694,-0.246945 0.52916,-0.423334 0.3175,-0.211667 0.56445,-0.211667 0.17639,0 0.42333,0.211667 0.24695,0.176389 0,0.352778 -1.62278,1.093616 -3.175,2.963336 -1.516945,1.83444 -3.069168,3.73945 -2.010835,2.50472 -3.810003,5.04472 -1.76389,2.54 -3.457224,5.46806 -0.352778,0.35278 -1.023057,0.35278 z"
           style="stroke-width:0.352778"
           id="path44" />
        <path
           d="m 102.52744,117.55934 q -0.77611,0 -1.65806,-0.14112 -0.881944,-0.10583 -1.658056,-0.49388 -0.776112,-0.35278 -1.270001,-1.05834 -0.493889,-0.74083 -0.493889,-1.94028 0,-0.59972 0.388056,-1.19944 0.388056,-0.59973 0.705556,-0.59973 0.176389,0 0.176389,0.21167 0,0.0706 -0.07056,0.28222 -0.07055,0.3175 -0.141111,0.70556 -0.07056,0.35278 -0.07056,0.635 0.07056,1.12889 0.670279,1.83445 0.599722,0.67027 1.446389,0.9525 0.84667,0.3175 1.62278,0.3175 1.55222,0 3.175,-0.635 1.62278,-0.635 2.99861,-1.76389 1.41112,-1.16417 2.25778,-2.68112 0.88195,-1.55222 0.88195,-3.38667 0,-1.27 -0.88195,-2.18722 -0.88194,-0.91722 -3.06916,-0.91722 -1.58751,0 -2.75167,0.38805 -1.12889,0.35278 -1.86973,0.84667 -0.74083,0.45861 -1.19944,0.74083 -0.0353,0 -0.0353,0.0353 0,0 -0.0353,0 -0.17639,0 -0.17639,-0.28222 0,-0.49389 0.42334,-1.34056 0.42333,-0.84666 1.09361,-1.83444 0.67028,-1.02306 1.44639,-1.97556 0.77611,-0.9525 1.44639,-1.69333 -0.35278,0.10583 -0.74084,0.24694 -0.35277,0.10583 -0.70555,0.24695 h -0.0353 q -0.14111,0 -0.24694,-0.17639 -0.10584,-0.17639 0.14111,-0.3175 3.63361,-1.411115 7.40834,-1.411115 1.55222,0 2.61055,0.352778 1.05834,0.352778 1.05834,1.305277 0,0.59972 -0.49389,1.23472 -0.49389,0.635 -1.37584,1.12889 -0.0353,0 -0.0353,0.0353 0,0 -0.0353,0 -0.10584,0 -0.14111,-0.10583 0,-0.14111 0.10583,-0.21167 0.9525,-0.59972 0.9525,-1.30528 0,-0.35278 -0.28222,-0.70555 -0.45861,-0.56445 -1.48167,-0.776115 -1.02306,-0.211666 -2.29306,-0.211666 -1.905,0 -3.63361,0.458611 -0.88194,1.23472 -1.905,2.75167 -1.02306,1.51694 -1.79917,3.06917 0.49389,-0.3175 1.34056,-0.56445 0.84666,-0.24694 1.72861,-0.35278 0.91722,-0.14111 1.5875,-0.14111 3.06917,0 4.16278,0.98778 1.09361,0.9525 1.09361,2.57528 0,1.86972 -0.98778,3.52778 -0.98777,1.62278 -2.57527,2.89278 -1.55223,1.23472 -3.3514,1.94028 -1.79916,0.70556 -3.42194,0.70556 z"
           style="stroke-width:0.352778"
           id="path46" />
        <path
           d="m 124.78773,119.49962 q -0.59972,0 -1.19945,-0.10584 -1.69333,-0.28222 -2.11666,-1.44639 -0.14112,-0.38805 -0.14112,-0.88194 0,-1.34056 1.09362,-2.89278 1.12889,-1.5875 3.24555,-2.92806 2.15195,-1.37583 5.15056,-2.04611 1.72862,-0.38806 3.52778,-0.56445 1.83445,-0.17639 3.59834,-0.17639 1.48167,0 2.8575,0.10584 2.32834,-2.36362 4.48028,-4.86834 2.18723,-2.50472 3.88056,-4.691948 0,-0.03528 -0.0353,-0.07055 0,-0.07056 0,-0.105834 -0.0705,-0.599722 -0.84667,-0.881945 -0.77611,-0.3175 -1.76389,-0.388055 -0.98777,-0.105834 -1.79916,-0.105834 -0.81139,0 -0.91723,0 -1.83444,0.141111 -3.59833,0.458612 -1.72861,0.282222 -2.64584,0.670278 -0.88194,0.352778 -1.41111,0.776112 -0.52917,0.388055 -0.52917,0.846669 0,0.59972 1.02306,1.19944 0.0706,0.0353 0.0706,0.14111 0,0.10584 -0.0706,0.17639 -0.0706,0.0706 -0.14111,0.0353 -1.37584,-0.77611 -1.37584,-1.799167 0,-1.340556 1.86973,-2.046112 0.52917,-0.211667 1.79917,-0.423334 1.27,-0.246945 2.8575,-0.388056 1.62278,-0.141111 3.175,-0.141111 1.83445,0 3.21028,0.282222 1.37583,0.246945 1.55222,0.952501 0.0353,0.105833 0,0.246945 0.28223,-0.352778 0.52917,-0.670279 0.24694,-0.352778 0.49389,-0.705556 0.0353,-0.07055 0.17639,-0.07055 0.10583,0 0.17639,0.105833 0.0705,0.105834 -0.0353,0.211667 -1.02306,1.411112 -2.54,3.386672 -1.51695,1.94028 -3.24556,4.02167 -1.72861,2.04611 -3.45722,3.91583 3.13972,0.3175 5.00944,0.88195 0.10584,-0.38806 0.21167,-0.74084 0.10583,-0.35277 0.24695,-0.70555 0.67027,-1.86973 1.48166,-3.70417 0.81139,-1.86973 1.5875,-3.4925 0.81139,-1.622783 1.41112,-2.751673 0.635,-1.164167 0.91722,-1.552223 0.17639,-0.246944 0.52917,-0.352778 0.38805,-0.141111 0.67027,-0.141111 0.56445,0 0.38806,0.282222 -0.45861,0.635001 -1.30528,2.081391 -0.81139,1.411112 -1.79917,3.351392 -0.9525,1.905 -1.83444,4.02167 -0.88195,2.11667 -1.41111,4.1275 0.42333,0.21167 0.52916,0.42333 0.0353,0.0353 0.0353,0.14112 0,0.14111 -0.14111,0.24694 -0.14111,0.10583 -0.21167,-0.0353 -0.0353,-0.0705 -0.14111,-0.10583 -0.0705,-0.0706 -0.17639,-0.14111 -0.17639,0.77611 -0.3175,1.55222 -0.10583,0.74084 -0.10583,1.44639 0,1.41111 0.52917,2.39889 0.56444,0.9525 1.83444,1.23472 0.17639,0.0353 0.3175,0.0353 0.17639,0.0353 0.35278,0.0353 0.52917,0 1.09361,-0.24694 0.56445,-0.21167 1.05834,-0.77612 0.0705,-0.0705 0.21166,-0.0705 0.17639,0 0.28222,0.10583 0.10584,0.10584 0,0.21167 -0.56444,0.635 -1.23472,0.91722 -0.67028,0.28222 -1.37583,0.28222 -0.42334,0 -0.84667,-0.10583 -1.79917,-0.38806 -2.54,-1.69333 -0.74084,-1.30528 -0.74084,-3.03389 0,-0.63501 0.10584,-1.30528 0.10583,-0.70556 0.24694,-1.41112 -0.91722,-0.28222 -2.32833,-0.49388 -1.37584,-0.24695 -3.03389,-0.38806 l -0.70556,0.74083 q -1.34056,1.41112 -3.175,3.06917 -1.79917,1.65806 -3.88056,3.13973 -2.08139,1.48166 -4.30389,2.43416 -2.18723,0.95251 -4.33917,0.95251 z m 0.81139,-0.91723 q 1.94028,0 3.91583,-0.91722 2.01084,-0.91722 3.91584,-2.32834 1.94028,-1.44639 3.66889,-3.10444 1.76389,-1.65806 3.21028,-3.13973 -1.41111,-0.10583 -2.8575,-0.10583 -1.51695,0 -2.99861,0.14111 -1.44639,0.14111 -2.89278,0.45861 -2.11667,0.49389 -3.73945,1.37584 -1.5875,0.84666 -2.64584,1.86972 -0.88194,0.84667 -1.51694,1.94028 -0.59972,1.05833 -0.59972,1.97556 0,0.77611 0.56444,1.30528 0.59972,0.52916 1.97556,0.52916 z"
           style="stroke-width:0.352778"
           id="path48" />
        <path
           d="m 153.11581,116.8185 q -0.10583,0 -0.21167,-0.14111 -0.28222,-0.3175 -0.28222,-1.02306 0,-0.74083 0.24694,-1.65805 0.28223,-0.9525 0.635,-1.72861 0.35278,-0.74084 0.63501,-1.30528 0.3175,-0.56445 0.42333,-0.70556 0.38805,-0.49389 0.81139,-0.81139 0.42333,-0.3175 0.84667,-0.3175 0.21166,0 0.3175,0.10583 0.14111,0.10584 0.0353,0.17639 -0.28222,0.14112 -0.74083,0.77612 -0.45861,0.59972 -0.9525,1.41111 -0.3175,0.56444 -0.81139,1.51694 -0.49389,0.9525 -0.56445,1.62278 0,0.28222 0.14112,0.24695 l 0.88194,-1.44639 q 0.74083,-1.23473 1.94028,-2.43417 1.19945,-1.19945 2.57528,-1.97556 0.14111,-0.0705 0.28222,-0.10583 0.17639,-0.0353 0.3175,-0.0353 0.3175,0 0.3175,0.21167 0,0.0705 -0.17639,0.35278 -0.74083,0.98777 -1.16416,2.08139 -0.42334,1.05833 -0.52917,2.32833 -0.0353,0.77611 0.14111,1.44639 0.21167,0.635 0.88195,0.635 0.77611,0 1.48166,-0.635 0.70556,-0.635 1.30528,-1.48167 0.635,-0.88194 1.09361,-1.55222 0.0706,-0.10583 0.10584,-0.10583 0.10583,0 0.10583,0.21166 0,0.17639 -0.14111,0.42334 -0.52917,0.77611 -1.16417,1.65805 -0.635,0.88195 -1.41111,1.48167 -0.74083,0.59972 -1.69333,0.59972 -0.88195,0 -1.27001,-0.67027 -0.38805,-0.67028 -0.38805,-1.62278 0,-1.02306 0.3175,-2.18723 0.35278,-1.16416 0.81139,-1.94028 -0.91722,0.67028 -1.905,1.69334 -0.98778,0.98778 -1.69334,2.11667 -0.24694,0.45861 -0.67028,1.16416 -0.42333,0.70556 -0.56444,1.12889 -0.0353,0.14111 -0.0706,0.24695 -0.0353,0.0705 -0.0705,0.14111 -0.0353,0.10583 -0.17639,0.10583 z m 3.84528,-9.87778 q -0.17639,0 -0.0706,-0.24695 0.10584,-0.17639 0.3175,-0.52916 0.24695,-0.38806 0.56445,-0.70556 0.35278,-0.3175 0.74083,-0.3175 0.49389,0 0.84667,0.21167 0.38806,0.21166 0.81139,0.45861 0.45861,0.21166 1.12889,0.21166 0.45861,0 0.74083,-0.38805 0.28223,-0.38806 0.38806,-0.42333 0.21167,0 0.0353,0.38805 -0.21167,0.49389 -0.59973,0.91722 -0.38805,0.38806 -0.77611,0.38806 -0.52916,0 -0.9525,-0.21167 -0.42333,-0.24694 -0.84667,-0.45861 -0.38805,-0.24694 -0.88194,-0.24694 -0.35278,0 -0.67028,0.24694 -0.28222,0.21167 -0.49389,0.45861 -0.17639,0.24695 -0.28222,0.24695 z"
           style="stroke-width:0.352778"
           id="path50" />
        <path
           d="m 164.72219,116.8185 q -0.9525,0 -1.65805,-0.45861 -0.70556,-0.49389 -0.70556,-1.72861 0,-0.77611 0.38806,-1.69334 0.38805,-0.9525 0.98777,-1.83444 0.635,-0.91722 1.37584,-1.51695 0.17639,-0.14111 0.45861,-0.14111 0.42333,-0.42333 0.9525,-0.635 0.56445,-0.21167 1.05833,-0.21167 0.88195,0 1.62278,0.56445 0.77612,0.56444 0.77612,1.79917 0,0.70555 -0.38806,1.69333 -0.35278,0.91722 -1.09361,1.905 -0.74084,0.9525 -1.72861,1.62278 -0.95251,0.635 -2.04612,0.635 z m -0.0353,-0.42333 q 0.77612,0 1.58751,-0.59972 0.84666,-0.59973 1.55222,-1.51695 0.70556,-0.9525 1.02306,-1.905 0.35277,-0.9525 0.35277,-1.69334 0,-0.91722 -0.49389,-1.30527 -0.49388,-0.42334 -1.09361,-0.42334 -0.9525,0 -1.65805,0.635 0.35277,0.21167 0.0705,0.42334 -0.49389,0.42333 -1.12889,1.16416 -0.59972,0.74084 -0.9525,1.37584 -0.24694,0.42333 -0.45861,1.09361 -0.17639,0.67028 -0.17639,1.27 0,0.59972 0.28222,1.05834 0.3175,0.42333 1.09361,0.42333 z"
           style="stroke-width:0.352778"
           id="path52" />
        <path
           d="m 173.57692,117.24184 q -0.74083,0 -1.34056,-0.10584 -0.56444,-0.10583 -0.84666,-0.21166 -0.38806,-0.14112 -0.59973,-0.35278 -0.17638,-0.24695 -0.17638,-0.42334 0,-0.24694 0.24694,-0.24694 0.17639,0 0.42333,0.21167 0.49389,0.42333 0.9525,0.49389 0.38806,0 1.02306,-0.10584 0.635,-0.14111 0.88195,-0.38805 0.42333,-0.42334 0.42333,-0.84667 0,-0.28222 -0.17639,-0.52917 -0.14111,-0.28222 -0.42333,-0.52917 -0.45861,-0.38805 -0.91723,-0.77611 -0.45861,-0.42333 -0.77611,-0.91722 -0.49389,-0.77611 -0.49389,-1.51694 0,-1.12889 0.74084,-2.11667 0.77611,-0.98778 1.65805,-1.62278 0.9525,-0.67028 1.94028,-0.67028 0.52917,0 0.98778,0.24694 0.45861,0.21167 0.70556,0.70556 0.0353,0.0706 0.0353,0.17639 0,0.21167 -0.14111,0.28222 -0.14111,0.0706 -0.21166,-0.14111 -0.21167,-0.56444 -1.16417,-0.56444 -0.56445,0 -1.23472,0.21166 -0.635,0.21167 -1.02306,0.49389 -1.19945,0.91722 -1.19945,2.36361 0,1.02306 0.67028,1.83445 0.45861,0.56445 0.9525,1.05833 0.52917,0.45862 0.88195,0.91723 0.35278,0.42333 0.24694,0.84666 -0.17639,0.77612 -1.02305,1.27001 -0.81139,0.45861 -1.51695,0.52916 0.21167,0.0353 0.77611,0.0353 2.01084,0 3.42195,-1.34056 1.44639,-1.34055 2.64583,-3.175 0.0706,-0.10583 0.14112,-0.10583 0.0705,0 0.0705,0.17639 0,0.21166 -0.17639,0.49389 -1.34055,2.04611 -2.78694,3.21028 -1.41112,1.12889 -3.59834,1.12889 z"
           style="stroke-width:0.352778"
           id="path54" />
      </g>
      <text
         style="line-height:1.25;font-family:Arial;font-size:4.23333333px;-inkscape-font-specification:Arial;white-space:pre;shape-inside:url(#rect59);"
         id="text57"
         xml:space="preserve" />
    </g>
  </g>
</svg>
