<?xml version="1.0" encoding="UTF-8"?>
<!DOCTYPE svg PUBLIC "-//W3C//DTD SVG 1.1//EN" "http://www.w3.org/Graphics/SVG/1.1/DTD/svg11.dtd">
<svg version="1.2" width="301.77mm" height="43.11mm" viewBox="13 1737 30177 4311" preserveAspectRatio="xMidYMid" fill-rule="evenodd" stroke-width="28.222" stroke-linejoin="round" xmlns="http://www.w3.org/2000/svg" xmlns:ooo="http://xml.openoffice.org/svg/export" xmlns:xlink="http://www.w3.org/1999/xlink" xmlns:presentation="http://sun.com/xmlns/staroffice/presentation" xmlns:smil="http://www.w3.org/2001/SMIL20/" xmlns:anim="urn:oasis:names:tc:opendocument:xmlns:animation:1.0" xmlns:svg="urn:oasis:names:tc:opendocument:xmlns:svg-compatible:1.0" xml:space="preserve">
 <defs class="EmbeddedBulletChars">
  <g id="bullet-char-template-57356" transform="scale(0.00048828125,-0.00048828125)">
   <path d="M 580,1141 L 1163,571 580,0 -4,571 580,1141 Z"/>
  </g>
  <g id="bullet-char-template-57354" transform="scale(0.00048828125,-0.00048828125)">
   <path d="M 8,1128 L 1137,1128 1137,0 8,0 8,1128 Z"/>
  </g>
  <g id="bullet-char-template-10146" transform="scale(0.00048828125,-0.00048828125)">
   <path d="M 174,0 L 602,739 174,1481 1456,739 174,0 Z M 1358,739 L 309,1346 659,739 1358,739 Z"/>
  </g>
  <g id="bullet-char-template-10132" transform="scale(0.00048828125,-0.00048828125)">
   <path d="M 2015,739 L 1276,0 717,0 1260,543 174,543 174,936 1260,936 717,1481 1274,1481 2015,739 Z"/>
  </g>
  <g id="bullet-char-template-10007" transform="scale(0.00048828125,-0.00048828125)">
   <path d="M 0,-2 C -7,14 -16,27 -25,37 L 356,567 C 262,823 215,952 215,954 215,979 228,992 255,992 264,992 276,990 289,987 310,991 331,999 354,1012 L 381,999 492,748 772,1049 836,1024 860,1049 C 881,1039 901,1025 922,1006 886,937 835,863 770,784 769,783 710,716 594,584 L 774,223 C 774,196 753,168 711,139 L 727,119 C 717,90 699,76 672,76 641,76 570,178 457,381 L 164,-76 C 142,-110 111,-127 72,-127 30,-127 9,-110 8,-76 1,-67 -2,-52 -2,-32 -2,-23 -1,-13 0,-2 Z"/>
  </g>
  <g id="bullet-char-template-10004" transform="scale(0.00048828125,-0.00048828125)">
   <path d="M 285,-33 C 182,-33 111,30 74,156 52,228 41,333 41,471 41,549 55,616 82,672 116,743 169,778 240,778 293,778 328,747 346,684 L 369,508 C 377,444 397,411 428,410 L 1163,1116 C 1174,1127 1196,1133 1229,1133 1271,1133 1292,1118 1292,1087 L 1292,965 C 1292,929 1282,901 1262,881 L 442,47 C 390,-6 338,-33 285,-33 Z"/>
  </g>
  <g id="bullet-char-template-9679" transform="scale(0.00048828125,-0.00048828125)">
   <path d="M 813,0 C 632,0 489,54 383,161 276,268 223,411 223,592 223,773 276,916 383,1023 489,1130 632,1184 813,1184 992,1184 1136,1130 1245,1023 1353,916 1407,772 1407,592 1407,412 1353,268 1245,161 1136,54 992,0 813,0 Z"/>
  </g>
  <g id="bullet-char-template-8226" transform="scale(0.00048828125,-0.00048828125)">
   <path d="M 346,457 C 273,457 209,483 155,535 101,586 74,649 74,723 74,796 101,859 155,911 209,963 273,989 346,989 419,989 480,963 531,910 582,859 608,796 608,723 608,648 583,586 532,535 482,483 420,457 346,457 Z"/>
  </g>
  <g id="bullet-char-template-8211" transform="scale(0.00048828125,-0.00048828125)">
   <path d="M -4,459 L 1135,459 1135,606 -4,606 -4,459 Z"/>
  </g>
  <g id="bullet-char-template-61548" transform="scale(0.00048828125,-0.00048828125)">
   <path d="M 173,740 C 173,903 231,1043 346,1159 462,1274 601,1332 765,1332 928,1332 1067,1274 1183,1159 1299,1043 1357,903 1357,740 1357,577 1299,437 1183,322 1067,206 928,148 765,148 601,148 462,206 346,322 231,437 173,577 173,740 Z"/>
  </g>
 </defs>
 <g class="Page">
  <g class="com.sun.star.drawing.ClosedBezierShape">
   <g id="id3">
    <rect class="BoundingBox" stroke="none" fill="none" x="13" y="1737" width="2167" height="2416"/>
    <path fill="rgb(255,191,85)" stroke="none" d="M 1198,4151 C 580,4151 14,3957 14,2976 14,2231 394,1745 1081,1745 1522,1745 1679,2016 1880,2016 1931,2016 1971,1994 1971,1935 1971,1898 1964,1858 1964,1847 1964,1770 2004,1738 2070,1738 2128,1738 2179,1770 2179,1847 2179,1887 2165,2118 2161,2268 2157,2388 2157,2523 2157,2615 2157,2717 2136,2790 1997,2797 1701,2797 1504,2669 1387,2377 1274,2093 1241,1965 1073,1965 872,1965 751,2188 751,2699 751,3300 912,3651 1457,3651 1760,3651 1946,3534 1946,3304 1946,3231 1924,3165 1924,3125 1924,3056 1968,3003 2052,3003 2125,3003 2179,3038 2179,3133 2179,3735 1982,4151 1198,4151 Z"/>
   </g>
  </g>
  <g class="com.sun.star.drawing.ClosedBezierShape">
   <g id="id4">
    <rect class="BoundingBox" stroke="none" fill="none" x="2615" y="1795" width="2482" height="2303"/>
    <path fill="rgb(255,191,85)" stroke="none" d="M 3661,3183 C 3986,3183 4015,3124 4019,3031 4023,2880 3942,2475 3844,2278 3782,2154 3756,2128 3698,2128 3523,2128 3391,2599 3391,2990 3391,3132 3410,3183 3661,3183 Z M 2709,4096 C 2646,4096 2616,4071 2616,3993 2616,3756 3271,2771 3271,2194 3271,2059 3172,2022 3110,2022 3074,2022 3030,2037 2997,2037 2917,2037 2877,1975 2877,1913 2877,1854 2917,1796 2997,1796 3121,1796 3567,1822 3811,1822 4037,1822 4249,1800 4300,1800 4391,1800 4461,1851 4461,1978 4461,2435 4797,3434 5019,3836 5067,3920 5096,3956 5096,4008 5096,4055 5067,4096 5012,4096 4924,4096 4716,4071 4494,4071 4311,4071 3891,4096 3851,4096 3775,4096 3749,4044 3749,3978 3749,3913 3789,3862 3851,3862 3880,3862 3913,3872 3990,3872 4074,3872 4140,3814 4140,3661 4140,3427 4096,3409 3723,3409 3395,3409 3362,3453 3362,3562 3362,3781 3581,3836 3581,3975 3581,4040 3552,4096 3483,4096 3431,4096 3183,4071 3066,4071 2931,4071 2782,4096 2709,4096 Z"/>
   </g>
  </g>
  <g class="com.sun.star.drawing.ClosedBezierShape">
   <g id="id5">
    <rect class="BoundingBox" stroke="none" fill="none" x="5390" y="1784" width="2331" height="2314"/>
    <path fill="rgb(255,191,85)" stroke="none" d="M 6724,2026 C 6475,2026 6442,2165 6442,3205 6442,3310 6483,3332 6574,3332 6863,3332 6994,3062 6994,2541 6994,2168 6939,2026 6724,2026 Z M 5391,3978 C 5391,3913 5434,3862 5489,3862 5515,3862 5562,3872 5577,3872 5668,3872 5686,3810 5694,3639 5705,3420 5712,3121 5712,2818 5712,2621 5705,2424 5694,2252 5686,2135 5679,2022 5588,2022 5551,2022 5515,2033 5489,2033 5420,2033 5391,1982 5391,1916 5391,1851 5434,1800 5489,1800 5679,1800 5865,1807 6077,1807 6300,1807 6735,1785 6936,1785 7425,1785 7720,2008 7720,2515 7720,3237 7403,3380 6965,3467 6467,3566 6438,3577 6438,3723 6438,3832 6471,3872 6578,3872 6636,3872 6797,3843 6888,3843 6958,3843 6994,3902 6994,3978 6994,4029 6958,4096 6888,4096 6753,4096 6365,4088 6102,4088 5891,4088 5595,4096 5489,4096 5420,4096 5391,4044 5391,3978 Z"/>
   </g>
  </g>
  <g class="com.sun.star.drawing.ClosedBezierShape">
   <g id="id6">
    <rect class="BoundingBox" stroke="none" fill="none" x="8153" y="1799" width="1335" height="2299"/>
    <path fill="rgb(255,191,85)" stroke="none" d="M 9389,1800 C 9458,1800 9487,1851 9487,1920 9487,1971 9458,2037 9389,2037 9367,2037 9334,2026 9301,2026 9210,2026 9202,2139 9195,2256 9184,2424 9177,2621 9177,2818 9177,3121 9188,3424 9195,3639 9202,3810 9221,3873 9312,3873 9327,3873 9363,3865 9389,3865 9458,3865 9487,3920 9487,3978 9487,4044 9458,4096 9389,4096 9297,4096 9042,4085 8859,4085 8655,4085 8356,4096 8252,4096 8183,4096 8154,4044 8154,3978 8154,3920 8183,3865 8252,3865 8271,3865 8307,3873 8318,3873 8410,3873 8429,3810 8436,3639 8443,3424 8454,3121 8454,2822 8454,2625 8447,2427 8436,2260 8429,2143 8421,2026 8329,2026 8300,2026 8271,2037 8252,2037 8183,2037 8154,1971 8154,1920 8154,1851 8183,1800 8252,1800 8440,1800 8626,1811 8834,1811 9035,1811 9210,1800 9389,1800 Z"/>
   </g>
  </g>
  <g class="com.sun.star.drawing.ClosedBezierShape">
   <g id="id7">
    <rect class="BoundingBox" stroke="none" fill="none" x="9909" y="1799" width="2023" height="2299"/>
    <path fill="rgb(255,191,85)" stroke="none" d="M 11226,2022 C 10996,2022 10964,2168 10953,2318 10927,2716 10934,3303 10949,3639 10956,3807 10993,3869 11113,3869 11453,3869 11610,2891 11836,2891 11898,2891 11931,2913 11931,2982 11931,3040 11909,3296 11909,3544 11909,3763 11931,3916 11931,4008 11931,4060 11880,4096 11843,4096 11628,4096 11022,4089 10602,4089 10401,4089 10107,4096 10008,4096 9939,4096 9910,4029 9910,3978 9910,3913 9953,3862 10008,3862 10030,3862 10067,3873 10078,3873 10169,3873 10187,3810 10194,3639 10209,3285 10220,2679 10194,2256 10187,2139 10180,2022 10088,2022 10059,2022 10030,2033 10008,2033 9939,2033 9910,1968 9910,1916 9910,1851 9953,1800 10008,1800 10191,1800 10372,1807 10577,1807 10880,1807 11142,1800 11420,1800 11478,1800 11522,1843 11522,1920 11522,1964 11496,2041 11420,2041 11376,2041 11310,2022 11226,2022 Z"/>
   </g>
  </g>
  <g class="com.sun.star.drawing.ClosedBezierShape">
   <g id="id8">
    <rect class="BoundingBox" stroke="none" fill="none" x="12396" y="1799" width="2025" height="2299"/>
    <path fill="rgb(255,191,85)" stroke="none" d="M 13715,2022 C 13485,2022 13452,2168 13441,2318 13415,2716 13423,3303 13437,3639 13445,3807 13481,3869 13602,3869 13941,3869 14098,2891 14325,2891 14387,2891 14420,2913 14420,2982 14420,3040 14398,3296 14398,3544 14398,3763 14420,3916 14420,4008 14420,4060 14369,4096 14333,4096 14116,4096 13510,4089 13091,4089 12890,4089 12594,4096 12496,4096 12426,4096 12397,4029 12397,3978 12397,3913 12441,3862 12496,3862 12518,3862 12554,3873 12565,3873 12656,3873 12674,3810 12682,3639 12696,3285 12707,2679 12682,2256 12674,2139 12667,2022 12576,2022 12547,2022 12518,2033 12496,2033 12426,2033 12397,1968 12397,1916 12397,1851 12441,1800 12496,1800 12678,1800 12861,1807 13065,1807 13368,1807 13631,1800 13908,1800 13967,1800 14010,1843 14010,1920 14010,1964 13985,2041 13908,2041 13864,2041 13799,2022 13715,2022 Z"/>
   </g>
  </g>
  <g class="com.sun.star.drawing.ClosedBezierShape">
   <g id="id9">
    <rect class="BoundingBox" stroke="none" fill="none" x="14765" y="1795" width="2481" height="2303"/>
    <path fill="rgb(255,191,85)" stroke="none" d="M 15809,3183 C 16134,3183 16163,3124 16167,3031 16170,2880 16090,2475 15992,2278 15929,2154 15904,2128 15846,2128 15670,2128 15539,2599 15539,2990 15539,3132 15557,3183 15809,3183 Z M 14857,4096 C 14795,4096 14766,4071 14766,3993 14766,3756 15418,2771 15418,2194 15418,2059 15320,2022 15258,2022 15221,2022 15178,2037 15145,2037 15066,2037 15025,1975 15025,1913 15025,1854 15066,1796 15145,1796 15269,1796 15714,1822 15959,1822 16185,1822 16397,1800 16448,1800 16539,1800 16608,1851 16608,1978 16608,2435 16944,3434 17167,3836 17214,3920 17244,3956 17244,4008 17244,4055 17214,4096 17160,4096 17072,4096 16864,4071 16641,4071 16459,4071 16039,4096 15999,4096 15922,4096 15897,4044 15897,3978 15897,3913 15937,3862 15999,3862 16028,3862 16061,3872 16138,3872 16222,3872 16287,3814 16287,3661 16287,3427 16243,3409 15871,3409 15543,3409 15510,3453 15510,3562 15510,3781 15729,3836 15729,3975 15729,4040 15700,4096 15630,4096 15579,4096 15331,4071 15214,4071 15081,4071 14930,4096 14857,4096 Z"/>
   </g>
  </g>
  <g class="com.sun.star.drawing.ClosedBezierShape">
   <g id="id10">
    <rect class="BoundingBox" stroke="none" fill="none" x="18681" y="1748" width="2504" height="2300"/>
    <path fill="rgb(255,191,85)" stroke="none" d="M 20178,1867 C 20178,1794 20211,1749 20285,1749 20332,1749 20445,1768 20657,1768 20887,1768 20989,1749 21066,1749 21142,1749 21183,1772 21183,1856 21183,2068 20872,2075 20562,3783 20533,3940 20536,4046 20405,4046 20321,4046 20061,4024 19897,4024 19674,4024 19462,4046 19433,4046 19320,4046 19283,3976 19265,3838 19221,3520 19061,2517 18889,2170 18802,1991 18681,1955 18681,1863 18681,1787 18718,1749 18787,1749 18878,1749 19127,1768 19389,1768 19532,1768 19857,1749 19889,1749 19959,1749 19995,1801 19995,1867 19995,1951 19959,1984 19889,1984 19864,1984 19835,1973 19802,1973 19743,1973 19707,2006 19707,2071 19707,2334 19776,2750 19981,3498 20050,3750 20116,3787 20200,3787 20354,3787 20431,3509 20431,2936 20431,2137 20178,2104 20178,1867 Z"/>
   </g>
  </g>
  <g class="com.sun.star.drawing.ClosedBezierShape">
   <g id="id11">
    <rect class="BoundingBox" stroke="none" fill="none" x="21463" y="1748" width="1335" height="2300"/>
    <path fill="rgb(255,191,85)" stroke="none" d="M 22697,1749 C 22767,1749 22796,1801 22796,1871 22796,1922 22767,1987 22697,1987 22676,1987 22643,1976 22610,1976 22519,1976 22511,2090 22504,2206 22493,2374 22486,2571 22486,2769 22486,3071 22497,3374 22504,3589 22511,3761 22529,3823 22621,3823 22635,3823 22672,3816 22697,3816 22767,3816 22796,3870 22796,3929 22796,3995 22767,4046 22697,4046 22606,4046 22351,4035 22168,4035 21964,4035 21664,4046 21561,4046 21492,4046 21463,3995 21463,3929 21463,3870 21492,3816 21561,3816 21579,3816 21616,3823 21627,3823 21719,3823 21737,3761 21745,3589 21752,3374 21763,3071 21763,2772 21763,2575 21756,2378 21745,2210 21737,2093 21730,1976 21638,1976 21609,1976 21579,1987 21561,1987 21492,1987 21463,1922 21463,1871 21463,1801 21492,1749 21561,1749 21748,1749 21935,1760 22143,1760 22343,1760 22519,1749 22697,1749 Z"/>
   </g>
  </g>
  <g class="com.sun.star.drawing.ClosedBezierShape">
   <g id="id12">
    <rect class="BoundingBox" stroke="none" fill="none" x="23222" y="1748" width="2230" height="2300"/>
    <path fill="rgb(255,191,85)" stroke="none" d="M 23386,3823 C 23478,3823 23496,3761 23503,3589 23510,3367 23522,3057 23522,2739 23522,2553 23514,2363 23503,2203 23496,2086 23489,1973 23397,1973 23368,1973 23339,1984 23321,1984 23251,1984 23222,1933 23222,1867 23222,1801 23266,1749 23321,1749 23510,1749 23694,1765 23906,1765 24252,1765 25066,1749 25285,1749 25373,1749 25431,1798 25431,1874 25431,1933 25420,2035 25420,2174 25420,2279 25435,2389 25435,2433 25435,2509 25399,2571 25329,2571 25096,2571 24968,1980 24450,1980 24325,1980 24289,2093 24271,2210 24252,2338 24249,2487 24245,2637 24245,2692 24274,2725 24322,2725 24570,2725 24712,2462 24884,2462 24928,2462 24961,2491 24961,2571 24961,2641 24950,2717 24950,2849 24950,3031 24953,3104 24953,3170 24953,3254 24909,3268 24866,3268 24698,3268 24621,2947 24329,2947 24267,2947 24245,2984 24245,3042 24245,3246 24245,3458 24256,3589 24271,3750 24307,3808 24442,3808 25001,3808 25114,3195 25358,3195 25424,3195 25450,3250 25450,3312 25450,3356 25428,3469 25428,3575 25428,3732 25450,3841 25450,3911 25450,3991 25399,4046 25318,4046 25055,4046 24384,4024 23913,4024 23712,4024 23419,4046 23321,4046 23251,4046 23222,3995 23222,3925 23222,3860 23266,3812 23321,3812 23339,3812 23375,3823 23386,3823 Z"/>
   </g>
  </g>
  <g class="com.sun.star.drawing.ClosedBezierShape">
   <g id="id13">
    <rect class="BoundingBox" stroke="none" fill="none" x="25865" y="1748" width="1543" height="2807"/>
    <path fill="rgb(255,191,85)" stroke="none" d="M 27235,1972 C 27118,1972 27100,2023 27100,2297 27100,3046 27187,3360 27187,3728 27187,4217 26979,4553 26463,4553 26044,4553 25865,4309 25865,3940 25865,3655 26011,3476 26259,3476 26482,3476 26569,3626 26569,3816 26569,4013 26420,4086 26321,4086 26226,4086 26208,4133 26208,4170 26208,4228 26241,4268 26354,4268 26522,4268 26753,4203 26753,3841 26753,3578 26675,3484 26544,3389 26412,3294 26387,3206 26387,2984 26387,2809 26394,2315 26394,2198 26394,2045 26358,1972 26270,1972 26234,1972 26197,1983 26171,1983 26102,1983 26073,1932 26073,1866 26073,1782 26117,1749 26171,1749 26321,1749 26467,1756 26635,1756 26877,1756 27089,1749 27308,1749 27362,1749 27406,1782 27406,1866 27406,1932 27377,1983 27308,1983 27289,1983 27260,1972 27235,1972 Z"/>
   </g>
  </g>
  <g class="com.sun.star.drawing.ClosedBezierShape">
   <g id="id14">
    <rect class="BoundingBox" stroke="none" fill="none" x="27708" y="1745" width="2482" height="2303"/>
    <path fill="rgb(255,191,85)" stroke="none" d="M 28752,3133 C 29077,3133 29106,3075 29110,2984 29114,2831 29033,2425 28935,2228 28873,2104 28847,2079 28789,2079 28613,2079 28482,2550 28482,2940 28482,3082 28500,3133 28752,3133 Z M 27799,4046 C 27737,4046 27708,4020 27708,3943 27708,3706 28362,2721 28362,2144 28362,2009 28263,1973 28201,1973 28165,1973 28121,1987 28088,1987 28008,1987 27967,1925 27967,1863 27967,1805 28008,1746 28088,1746 28212,1746 28657,1772 28902,1772 29128,1772 29340,1749 29391,1749 29482,1749 29552,1801 29552,1929 29552,2385 29887,3385 30111,3787 30158,3870 30188,3907 30188,3958 30188,4006 30158,4046 30104,4046 30016,4046 29807,4020 29584,4020 29402,4020 28982,4046 28942,4046 28865,4046 28840,3995 28840,3929 28840,3863 28880,3812 28942,3812 28971,3812 29004,3823 29081,3823 29165,3823 29230,3765 29230,3611 29230,3378 29187,3360 28814,3360 28486,3360 28453,3403 28453,3513 28453,3732 28672,3787 28672,3925 28672,3991 28643,4046 28573,4046 28522,4046 28274,4020 28157,4020 28022,4020 27873,4046 27799,4046 Z"/>
   </g>
  </g>
  <g class="com.sun.star.drawing.ClosedBezierShape">
   <g id="id15">
    <rect class="BoundingBox" stroke="none" fill="none" x="185" y="4899" width="744" height="1130"/>
    <path fill="rgb(255,191,85)" stroke="none" d="M 186,4915 C 186,4906 193,4899 203,4899 L 366,4899 C 375,4899 382,4906 382,4915 L 382,5841 C 382,5848 386,5852 392,5852 L 910,5852 C 921,5852 927,5858 927,5869 L 927,6010 C 927,6021 921,6028 910,6028 L 203,6028 C 193,6028 186,6021 186,6010 L 186,4915 Z"/>
   </g>
  </g>
  <g class="com.sun.star.drawing.ClosedBezierShape">
   <g id="id16">
    <rect class="BoundingBox" stroke="none" fill="none" x="1158" y="4880" width="861" height="1168"/>
    <path fill="rgb(255,191,85)" stroke="none" d="M 1798,5722 C 1811,5680 1818,5622 1818,5462 1818,5302 1811,5245 1798,5204 1766,5113 1700,5056 1588,5056 1476,5056 1410,5113 1378,5204 1365,5245 1358,5302 1358,5462 1358,5622 1365,5680 1378,5722 1410,5813 1476,5870 1588,5870 1700,5870 1766,5813 1798,5722 Z M 1188,5774 C 1165,5702 1159,5640 1159,5462 1159,5285 1165,5222 1188,5153 1246,4973 1394,4881 1588,4881 1784,4881 1929,4973 1987,5153 2010,5222 2018,5285 2018,5462 2018,5640 2010,5702 1987,5774 1929,5954 1784,6046 1588,6046 1394,6046 1246,5954 1188,5774 Z"/>
   </g>
  </g>
  <g class="com.sun.star.drawing.ClosedBezierShape">
   <g id="id17">
    <rect class="BoundingBox" stroke="none" fill="none" x="2305" y="4880" width="849" height="1168"/>
    <path fill="rgb(255,191,85)" stroke="none" d="M 2312,5897 C 2306,5890 2303,5880 2310,5872 L 2413,5753 C 2419,5743 2429,5743 2435,5750 2509,5808 2616,5870 2743,5870 2878,5870 2956,5802 2956,5706 2956,5625 2906,5572 2750,5551 L 2689,5543 C 2472,5512 2349,5408 2349,5220 2349,5017 2499,4881 2731,4881 2873,4881 3007,4926 3097,4993 3105,5000 3106,5006 3100,5017 L 3021,5140 C 3014,5148 3006,5149 2998,5144 2906,5084 2821,5056 2726,5056 2611,5056 2549,5120 2549,5207 2549,5285 2603,5338 2756,5360 L 2817,5368 C 3034,5397 3153,5500 3153,5695 3153,5897 3009,6046 2727,6046 2562,6046 2401,5980 2312,5897 Z"/>
   </g>
  </g>
  <g class="com.sun.star.drawing.ClosedBezierShape">
   <g id="id18">
    <rect class="BoundingBox" stroke="none" fill="none" x="4019" y="4899" width="843" height="1130"/>
    <path fill="rgb(255,191,85)" stroke="none" d="M 4639,5235 C 4639,5137 4571,5075 4468,5075 L 4226,5075 C 4219,5075 4215,5077 4215,5084 L 4215,5384 C 4215,5391 4219,5395 4226,5395 L 4468,5395 C 4571,5395 4639,5331 4639,5235 Z M 4662,6028 C 4649,6028 4642,6022 4637,6010 L 4421,5572 4226,5572 C 4219,5572 4215,5574 4215,5581 L 4215,6010 C 4215,6021 4209,6028 4199,6028 L 4037,6028 C 4026,6028 4020,6021 4020,6010 L 4020,4915 C 4020,4906 4026,4899 4037,4899 L 4474,4899 C 4682,4899 4834,5037 4834,5235 4834,5383 4749,5499 4620,5547 L 4857,6006 C 4864,6017 4857,6028 4846,6028 L 4662,6028 Z"/>
   </g>
  </g>
  <g class="com.sun.star.drawing.ClosedBezierShape">
   <g id="id19">
    <rect class="BoundingBox" stroke="none" fill="none" x="5187" y="4899" width="744" height="1130"/>
    <path fill="rgb(255,191,85)" stroke="none" d="M 5188,4915 C 5188,4906 5194,4899 5205,4899 L 5912,4899 C 5923,4899 5929,4906 5929,4915 L 5929,5058 C 5929,5068 5923,5075 5912,5075 L 5394,5075 C 5387,5075 5383,5077 5383,5084 L 5383,5360 C 5383,5367 5387,5369 5394,5369 L 5831,5369 C 5841,5369 5847,5376 5847,5387 L 5847,5531 C 5847,5540 5841,5547 5831,5547 L 5394,5547 C 5387,5547 5383,5551 5383,5557 L 5383,5841 C 5383,5848 5387,5852 5394,5852 L 5912,5852 C 5923,5852 5929,5858 5929,5869 L 5929,6010 C 5929,6021 5923,6028 5912,6028 L 5205,6028 C 5194,6028 5188,6021 5188,6010 L 5188,4915 Z"/>
   </g>
  </g>
  <g class="com.sun.star.drawing.ClosedBezierShape">
   <g id="id20">
    <rect class="BoundingBox" stroke="none" fill="none" x="6178" y="4899" width="969" height="1130"/>
    <path fill="rgb(255,191,85)" stroke="none" d="M 6813,5618 L 6664,5179 6659,5179 6508,5618 6813,5618 Z M 6566,4915 C 6570,4906 6577,4899 6589,4899 L 6741,4899 C 6752,4899 6759,4906 6762,4915 L 7145,6010 C 7148,6021 7145,6028 7132,6028 L 6969,6028 C 6957,6028 6951,6022 6948,6010 L 6873,5792 6448,5792 6374,6010 C 6371,6022 6364,6028 6352,6028 L 6192,6028 C 6180,6028 6176,6021 6180,6010 L 6566,4915 Z"/>
   </g>
  </g>
  <g class="com.sun.star.drawing.ClosedBezierShape">
   <g id="id21">
    <rect class="BoundingBox" stroke="none" fill="none" x="7439" y="4899" width="841" height="1130"/>
    <path fill="rgb(255,191,85)" stroke="none" d="M 8059,5235 C 8059,5137 7989,5075 7886,5075 L 7646,5075 C 7639,5075 7636,5077 7636,5084 L 7636,5384 C 7636,5391 7639,5395 7646,5395 L 7886,5395 C 7989,5395 8059,5331 8059,5235 Z M 8081,6028 C 8067,6028 8061,6022 8055,6010 L 7840,5572 7646,5572 C 7639,5572 7636,5574 7636,5581 L 7636,6010 C 7636,6021 7629,6028 7618,6028 L 7455,6028 C 7446,6028 7440,6021 7440,6010 L 7440,4915 C 7440,4906 7446,4899 7455,4899 L 7893,4899 C 8100,4899 8252,5037 8252,5235 8252,5383 8168,5499 8040,5547 L 8276,6006 C 8283,6017 8276,6028 8264,6028 L 8081,6028 Z"/>
   </g>
  </g>
  <g class="com.sun.star.drawing.ClosedBezierShape">
   <g id="id22">
    <rect class="BoundingBox" stroke="none" fill="none" x="8513" y="4899" width="843" height="1130"/>
    <path fill="rgb(255,191,85)" stroke="none" d="M 8852,6028 C 8843,6028 8836,6021 8836,6010 L 8836,5084 C 8836,5077 8832,5075 8826,5075 L 8531,5075 C 8521,5075 8514,5068 8514,5058 L 8514,4915 C 8514,4906 8521,4899 8531,4899 L 9339,4899 C 9348,4899 9354,4906 9354,4915 L 9354,5058 C 9354,5068 9348,5075 9339,5075 L 9041,5075 C 9035,5075 9032,5077 9032,5084 L 9032,6010 C 9032,6021 9025,6028 9015,6028 L 8852,6028 Z"/>
   </g>
  </g>
  <g class="com.sun.star.drawing.ClosedBezierShape">
   <g id="id23">
    <rect class="BoundingBox" stroke="none" fill="none" x="9655" y="4899" width="742" height="1130"/>
    <path fill="rgb(255,191,85)" stroke="none" d="M 9656,4915 C 9656,4906 9662,4899 9672,4899 L 10380,4899 C 10389,4899 10396,4906 10396,4915 L 10396,5058 C 10396,5068 10389,5075 10380,5075 L 9861,5075 C 9854,5075 9851,5077 9851,5084 L 9851,5360 C 9851,5367 9854,5369 9861,5369 L 10298,5369 C 10309,5369 10315,5376 10315,5387 L 10315,5531 C 10315,5540 10309,5547 10298,5547 L 9861,5547 C 9854,5547 9851,5551 9851,5557 L 9851,5841 C 9851,5848 9854,5852 9861,5852 L 10380,5852 C 10389,5852 10396,5858 10396,5869 L 10396,6010 C 10396,6021 10389,6028 10380,6028 L 9672,6028 C 9662,6028 9656,6021 9656,6010 L 9656,4915 Z"/>
   </g>
  </g>
  <g class="com.sun.star.drawing.ClosedBezierShape">
   <g id="id24">
    <rect class="BoundingBox" stroke="none" fill="none" x="10676" y="4880" width="850" height="1168"/>
    <path fill="rgb(255,191,85)" stroke="none" d="M 10684,5897 C 10677,5890 10673,5880 10680,5872 L 10783,5753 C 10790,5743 10800,5743 10807,5750 10879,5808 10988,5870 11113,5870 11249,5870 11327,5802 11327,5706 11327,5625 11277,5572 11120,5551 L 11060,5543 C 10842,5512 10721,5408 10721,5220 10721,5017 10869,4881 11101,4881 11244,4881 11378,4926 11467,4993 11475,5000 11478,5006 11471,5017 L 11391,5140 C 11384,5148 11376,5149 11368,5144 11277,5084 11191,5056 11096,5056 10982,5056 10919,5120 10919,5207 10919,5285 10973,5338 11127,5360 L 11186,5368 C 11405,5397 11524,5500 11524,5695 11524,5897 11380,6046 11099,6046 10932,6046 10771,5980 10684,5897 Z"/>
   </g>
  </g>
  <g class="com.sun.star.drawing.ClosedBezierShape">
   <g id="id25">
    <rect class="BoundingBox" stroke="none" fill="none" x="14982" y="4880" width="808" height="1168"/>
    <path fill="rgb(255,191,85)" stroke="none" d="M 14983,5462 C 14983,5284 14989,5227 15013,5157 15071,4973 15214,4881 15404,4881 15587,4881 15723,4973 15787,5122 15790,5130 15787,5140 15778,5142 L 15638,5211 C 15627,5215 15620,5211 15616,5202 15580,5122 15515,5056 15404,5056 15296,5056 15234,5114 15202,5206 15187,5252 15182,5297 15182,5462 15182,5628 15187,5673 15202,5721 15234,5812 15296,5870 15404,5870 15515,5870 15580,5804 15616,5724 15620,5716 15627,5710 15638,5716 L 15778,5784 C 15787,5787 15790,5795 15787,5804 15723,5954 15587,6046 15404,6046 15214,6046 15071,5954 15013,5769 14989,5699 14983,5642 14983,5462 Z"/>
   </g>
  </g>
  <g class="com.sun.star.drawing.ClosedBezierShape">
   <g id="id26">
    <rect class="BoundingBox" stroke="none" fill="none" x="16078" y="4554" width="861" height="1494"/>
    <path fill="rgb(255,191,85)" stroke="none" d="M 16419,4764 C 16410,4764 16406,4756 16412,4748 L 16559,4570 C 16567,4561 16575,4554 16591,4554 L 16755,4554 C 16764,4554 16771,4562 16763,4570 L 16567,4751 C 16555,4763 16549,4764 16537,4764 L 16419,4764 Z M 16718,5722 C 16731,5681 16738,5623 16738,5462 16738,5302 16731,5245 16718,5204 16686,5113 16619,5056 16506,5056 16394,5056 16328,5113 16296,5204 16283,5245 16276,5302 16276,5462 16276,5623 16283,5681 16296,5722 16328,5813 16394,5870 16506,5870 16619,5870 16686,5813 16718,5722 Z M 16107,5774 C 16085,5704 16078,5642 16078,5462 16078,5285 16085,5222 16107,5153 16165,4973 16312,4881 16506,4881 16703,4881 16849,4973 16907,5153 16930,5222 16937,5285 16937,5462 16937,5642 16930,5704 16907,5774 16849,5954 16703,6046 16506,6046 16312,6046 16165,5954 16107,5774 Z"/>
   </g>
  </g>
  <g class="com.sun.star.drawing.ClosedBezierShape">
   <g id="id27">
    <rect class="BoundingBox" stroke="none" fill="none" x="17292" y="4899" width="841" height="1130"/>
    <path fill="rgb(255,191,85)" stroke="none" d="M 17912,5235 C 17912,5137 17842,5075 17739,5075 L 17497,5075 C 17491,5075 17488,5077 17488,5084 L 17488,5384 C 17488,5391 17491,5395 17497,5395 L 17739,5395 C 17842,5395 17912,5331 17912,5235 Z M 17933,6028 C 17920,6028 17914,6022 17908,6010 L 17693,5572 17497,5572 C 17491,5572 17488,5574 17488,5581 L 17488,6010 C 17488,6021 17482,6028 17471,6028 L 17308,6028 C 17299,6028 17293,6021 17293,6010 L 17293,4915 C 17293,4906 17299,4899 17308,4899 L 17746,4899 C 17953,4899 18107,5037 18107,5235 18107,5383 18022,5499 17892,5547 L 18129,6006 C 18136,6017 18129,6028 18117,6028 L 17933,6028 Z"/>
   </g>
  </g>
  <g class="com.sun.star.drawing.ClosedBezierShape">
   <g id="id28">
    <rect class="BoundingBox" stroke="none" fill="none" x="18460" y="4899" width="827" height="1130"/>
    <path fill="rgb(255,191,85)" stroke="none" d="M 18666,5852 L 18835,5852 C 18959,5852 19036,5811 19069,5709 19081,5677 19088,5626 19088,5463 19088,5298 19081,5248 19069,5218 19036,5116 18959,5075 18835,5075 L 18666,5075 C 18659,5075 18656,5077 18656,5084 L 18656,5841 C 18656,5848 18659,5852 18666,5852 Z M 18461,4915 C 18461,4906 18467,4899 18477,4899 L 18881,4899 C 19075,4899 19205,4985 19258,5149 19276,5206 19285,5266 19285,5463 19285,5659 19276,5721 19258,5778 19205,5942 19075,6028 18881,6028 L 18477,6028 C 18467,6028 18461,6021 18461,6010 L 18461,4915 Z"/>
   </g>
  </g>
  <g class="com.sun.star.drawing.ClosedBezierShape">
   <g id="id29">
    <rect class="BoundingBox" stroke="none" fill="none" x="19605" y="4880" width="858" height="1168"/>
    <path fill="rgb(255,191,85)" stroke="none" d="M 20243,5722 C 20257,5680 20263,5622 20263,5462 20263,5302 20257,5245 20243,5204 20212,5113 20146,5056 20031,5056 19920,5056 19855,5113 19823,5204 19810,5245 19803,5302 19803,5462 19803,5622 19810,5680 19823,5722 19855,5813 19920,5870 20031,5870 20146,5870 20212,5813 20243,5722 Z M 19634,5774 C 19612,5702 19605,5640 19605,5462 19605,5285 19612,5222 19634,5153 19692,4973 19839,4881 20031,4881 20228,4881 20374,4973 20432,5153 20455,5222 20461,5285 20461,5462 20461,5640 20455,5702 20432,5774 20374,5954 20228,6046 20031,6046 19839,6046 19692,5954 19634,5774 Z"/>
   </g>
  </g>
  <g class="com.sun.star.drawing.ClosedBezierShape">
   <g id="id30">
    <rect class="BoundingBox" stroke="none" fill="none" x="20818" y="4899" width="811" height="1130"/>
    <path fill="rgb(255,191,85)" stroke="none" d="M 21023,5854 L 21258,5854 C 21369,5854 21431,5792 21431,5697 21431,5605 21369,5541 21258,5541 L 21023,5541 C 21016,5541 21014,5545 21014,5552 L 21014,5845 C 21014,5852 21016,5854 21023,5854 Z M 21249,5368 C 21348,5368 21412,5309 21412,5220 21412,5130 21348,5071 21249,5071 L 21023,5071 C 21016,5071 21014,5075 21014,5081 L 21014,5358 C 21014,5364 21016,5368 21023,5368 L 21249,5368 Z M 20818,4915 C 20818,4906 20825,4899 20834,4899 L 21254,4899 C 21494,4899 21607,5018 21607,5199 21607,5326 21548,5400 21476,5440 L 21476,5442 C 21545,5469 21627,5558 21627,5696 21627,5919 21486,6028 21237,6028 L 20834,6028 C 20825,6028 20818,6021 20818,6010 L 20818,4915 Z"/>
   </g>
  </g>
  <g class="com.sun.star.drawing.ClosedBezierShape">
   <g id="id31">
    <rect class="BoundingBox" stroke="none" fill="none" x="21858" y="4899" width="969" height="1130"/>
    <path fill="rgb(255,191,85)" stroke="none" d="M 22493,5618 L 22345,5179 22339,5179 22189,5618 22493,5618 Z M 22245,4915 C 22249,4906 22256,4899 22268,4899 L 22420,4899 C 22432,4899 22438,4906 22442,4915 L 22824,6010 C 22828,6021 22824,6028 22812,6028 L 22650,6028 C 22639,6028 22633,6022 22629,6010 L 22553,5792 22128,5792 22054,6010 C 22050,6022 22043,6028 22033,6028 L 21871,6028 C 21860,6028 21857,6021 21860,6010 L 22245,4915 Z"/>
   </g>
  </g>
  <g class="com.sun.star.drawing.ClosedBezierShape">
   <g id="id32">
    <rect class="BoundingBox" stroke="none" fill="none" x="12989" y="5356" width="548" height="203"/>
    <path fill="rgb(255,191,85)" stroke="none" d="M 13434,5557 L 13089,5557 C 13033,5557 12990,5514 12990,5457 12990,5401 13033,5356 13089,5356 L 13434,5356 C 13491,5356 13536,5401 13536,5457 13536,5514 13491,5557 13434,5557 Z"/>
   </g>
  </g>
 </g>
</svg>