<?xml version="1.0" encoding="UTF-8"?>
<!DOCTYPE svg PUBLIC "-//W3C//DTD SVG 1.1//EN" "http://www.w3.org/Graphics/SVG/1.1/DTD/svg11.dtd">
<svg version="1.2" width="426.68mm" height="93.59mm" viewBox="0 0 42668 9359" preserveAspectRatio="xMidYMid" fill-rule="evenodd" stroke-width="28.222" stroke-linejoin="round" xmlns="http://www.w3.org/2000/svg" xmlns:ooo="http://xml.openoffice.org/svg/export" xmlns:xlink="http://www.w3.org/1999/xlink" xmlns:presentation="http://sun.com/xmlns/staroffice/presentation" xmlns:smil="http://www.w3.org/2001/SMIL20/" xmlns:anim="urn:oasis:names:tc:opendocument:xmlns:animation:1.0" xmlns:svg="urn:oasis:names:tc:opendocument:xmlns:svg-compatible:1.0" xml:space="preserve">
 <defs class="ClipPathGroup">
  <clipPath id="presentation_clip_path" clipPathUnits="userSpaceOnUse">
   <rect x="0" y="0" width="42668" height="9359"/>
  </clipPath>
  <clipPath id="presentation_clip_path_shrink" clipPathUnits="userSpaceOnUse">
   <rect x="42" y="9" width="42583" height="9341"/>
  </clipPath>
 </defs>
 <defs class="TextShapeIndex">
  <g ooo:slide="id1" ooo:id-list="id3 id4 id5 id6 id7 id8 id9 id10 id11 id12 id13 id14 id15 id16 id17 id18 id19 id20 id21 id22 id23 id24 id25 id26 id27 id28 id29 id30 id31 id32 id33 id34 id35 id36 id37 id38 id39 id40"/>
 </defs>
 <defs class="EmbeddedBulletChars">
  <g id="bullet-char-template-57356" transform="scale(0.00048828125,-0.00048828125)">
   <path d="M 580,1141 L 1163,571 580,0 -4,571 580,1141 Z"/>
  </g>
  <g id="bullet-char-template-57354" transform="scale(0.00048828125,-0.00048828125)">
   <path d="M 8,1128 L 1137,1128 1137,0 8,0 8,1128 Z"/>
  </g>
  <g id="bullet-char-template-10146" transform="scale(0.00048828125,-0.00048828125)">
   <path d="M 174,0 L 602,739 174,1481 1456,739 174,0 Z M 1358,739 L 309,1346 659,739 1358,739 Z"/>
  </g>
  <g id="bullet-char-template-10132" transform="scale(0.00048828125,-0.00048828125)">
   <path d="M 2015,739 L 1276,0 717,0 1260,543 174,543 174,936 1260,936 717,1481 1274,1481 2015,739 Z"/>
  </g>
  <g id="bullet-char-template-10007" transform="scale(0.00048828125,-0.00048828125)">
   <path d="M 0,-2 C -7,14 -16,27 -25,37 L 356,567 C 262,823 215,952 215,954 215,979 228,992 255,992 264,992 276,990 289,987 310,991 331,999 354,1012 L 381,999 492,748 772,1049 836,1024 860,1049 C 881,1039 901,1025 922,1006 886,937 835,863 770,784 769,783 710,716 594,584 L 774,223 C 774,196 753,168 711,139 L 727,119 C 717,90 699,76 672,76 641,76 570,178 457,381 L 164,-76 C 142,-110 111,-127 72,-127 30,-127 9,-110 8,-76 1,-67 -2,-52 -2,-32 -2,-23 -1,-13 0,-2 Z"/>
  </g>
  <g id="bullet-char-template-10004" transform="scale(0.00048828125,-0.00048828125)">
   <path d="M 285,-33 C 182,-33 111,30 74,156 52,228 41,333 41,471 41,549 55,616 82,672 116,743 169,778 240,778 293,778 328,747 346,684 L 369,508 C 377,444 397,411 428,410 L 1163,1116 C 1174,1127 1196,1133 1229,1133 1271,1133 1292,1118 1292,1087 L 1292,965 C 1292,929 1282,901 1262,881 L 442,47 C 390,-6 338,-33 285,-33 Z"/>
  </g>
  <g id="bullet-char-template-9679" transform="scale(0.00048828125,-0.00048828125)">
   <path d="M 813,0 C 632,0 489,54 383,161 276,268 223,411 223,592 223,773 276,916 383,1023 489,1130 632,1184 813,1184 992,1184 1136,1130 1245,1023 1353,916 1407,772 1407,592 1407,412 1353,268 1245,161 1136,54 992,0 813,0 Z"/>
  </g>
  <g id="bullet-char-template-8226" transform="scale(0.00048828125,-0.00048828125)">
   <path d="M 346,457 C 273,457 209,483 155,535 101,586 74,649 74,723 74,796 101,859 155,911 209,963 273,989 346,989 419,989 480,963 531,910 582,859 608,796 608,723 608,648 583,586 532,535 482,483 420,457 346,457 Z"/>
  </g>
  <g id="bullet-char-template-8211" transform="scale(0.00048828125,-0.00048828125)">
   <path d="M -4,459 L 1135,459 1135,606 -4,606 -4,459 Z"/>
  </g>
  <g id="bullet-char-template-61548" transform="scale(0.00048828125,-0.00048828125)">
   <path d="M 173,740 C 173,903 231,1043 346,1159 462,1274 601,1332 765,1332 928,1332 1067,1274 1183,1159 1299,1043 1357,903 1357,740 1357,577 1299,437 1183,322 1067,206 928,148 765,148 601,148 462,206 346,322 231,437 173,577 173,740 Z"/>
  </g>
 </defs>
 <g>
  <g id="id2" class="Master_Slide">
   <g id="bg-id2" class="Background"/>
   <g id="bo-id2" class="BackgroundObjects"/>
  </g>
 </g>
 <g class="SlideGroup">
  <g>
   <g id="container-id1">
    <g id="id1" class="Slide" clip-path="url(#presentation_clip_path)">
     <g class="Page">
      <g class="com.sun.star.drawing.ClosedBezierShape">
       <g id="id3">
        <rect class="BoundingBox" stroke="none" fill="none" x="504" y="178" width="8878" height="8879"/>
        <path fill="rgb(63,87,79)" stroke="none" d="M 9381,4618 C 9381,2165 7394,178 4943,178 2491,178 504,2165 504,4618 504,7069 2491,9056 4943,9056 7394,9056 9381,7069 9381,4618 Z"/>
       </g>
      </g>
      <g class="com.sun.star.drawing.ClosedBezierShape">
       <g id="id4">
        <rect class="BoundingBox" stroke="none" fill="none" x="1843" y="3133" width="6230" height="2679"/>
        <path fill="rgb(255,191,85)" stroke="none" d="M 8070,5756 L 7896,5160 C 7890,5140 7872,5128 7852,5129 7831,5130 7812,5117 7807,5097 7789,5029 7736,4880 7600,4810 7473,4744 7446,4650 7442,4601 7440,4582 7426,4566 7407,4563 L 7367,4555 C 7348,4552 7333,4535 7332,4516 L 7323,4361 C 7322,4340 7305,4323 7284,4321 L 7199,4313 C 7177,4310 7160,4292 7160,4270 L 7160,4113 C 7160,4096 7150,4080 7135,4074 L 5007,3144 C 4976,3130 4940,3130 4909,3144 L 2780,4074 C 2764,4080 2754,4096 2754,4113 L 2754,4270 C 2754,4292 2737,4310 2715,4313 L 2630,4321 C 2609,4323 2593,4340 2591,4361 L 2582,4516 C 2581,4535 2567,4552 2547,4555 L 2507,4563 C 2488,4566 2475,4582 2473,4601 2468,4650 2442,4744 2314,4810 2179,4880 2125,5029 2107,5097 2102,5117 2084,5130 2063,5129 2043,5128 2024,5140 2019,5160 L 1845,5756 C 1837,5784 1858,5811 1886,5811 L 2656,5811 3027,5810 C 3044,5810 3059,5796 3059,5779 3100,4758 3820,3947 4851,3947 L 4956,3943 C 4957,3943 4958,3943 4959,3943 L 5065,3947 C 6090,3947 6807,4749 6854,5762 6856,5789 6877,5810 6904,5810 L 8028,5811 C 8057,5811 8078,5784 8070,5756 Z"/>
       </g>
      </g>
      <g class="com.sun.star.drawing.ClosedBezierShape">
       <g id="id5">
        <rect class="BoundingBox" stroke="none" fill="none" x="2255" y="2709" width="5400" height="1290"/>
        <path fill="rgb(255,191,85)" stroke="none" d="M 2360,3991 L 2671,3856 C 2672,3856 2672,3854 2673,3853 2678,3852 2684,3850 2690,3848 L 3002,3713 C 3003,3713 3004,3711 3004,3710 3010,3709 3015,3707 3021,3705 L 3332,3570 C 3333,3570 3334,3568 3334,3567 3340,3566 3345,3564 3351,3562 L 3663,3427 C 3663,3426 3664,3425 3664,3424 3670,3423 3676,3421 3681,3419 L 3993,3284 C 3994,3283 3994,3282 3994,3281 4000,3280 4006,3278 4011,3276 L 4323,3140 C 4324,3139 4324,3138 4324,3137 4330,3136 4336,3134 4341,3132 L 4653,2997 C 4654,2996 4654,2995 4654,2994 4660,2992 4666,2991 4672,2989 L 4872,2902 4917,2882 C 4929,2879 4943,2877 4957,2877 4967,2877 4976,2878 4984,2879 L 5236,2989 C 5242,2991 5248,2992 5254,2994 5254,2995 5254,2996 5255,2997 L 5567,3132 C 5572,3134 5578,3136 5584,3137 5584,3138 5584,3139 5585,3140 L 5897,3276 C 5902,3278 5908,3280 5914,3281 5914,3282 5915,3283 5915,3284 L 6227,3419 C 6233,3421 6238,3423 6244,3424 6244,3425 6245,3426 6246,3427 L 6557,3562 C 6563,3564 6568,3566 6574,3567 6574,3568 6575,3570 6576,3570 L 6887,3705 C 6893,3707 6899,3709 6904,3710 6905,3711 6905,3713 6906,3713 L 7217,3848 C 7223,3850 7229,3852 7234,3853 7235,3854 7235,3856 7236,3856 L 7547,3991 C 7586,4008 7630,3990 7647,3952 7663,3914 7646,3869 7607,3853 L 7296,3718 C 7295,3717 7294,3718 7293,3719 7288,3715 7283,3712 7277,3710 L 6966,3575 C 6965,3574 6964,3575 6962,3576 6958,3572 6953,3569 6947,3567 L 6636,3432 C 6635,3431 6634,3432 6632,3433 6628,3429 6623,3426 6617,3424 L 6305,3289 C 6305,3288 6303,3289 6302,3290 6297,3286 6292,3283 6287,3280 L 5975,3144 C 5974,3144 5973,3145 5972,3146 5967,3142 5962,3139 5957,3136 L 5645,3001 C 5644,3001 5643,3002 5642,3002 5637,2999 5632,2996 5627,2993 L 5315,2858 C 5314,2858 5313,2858 5312,2859 5307,2856 5302,2853 5296,2850 L 5005,2724 C 4992,2715 4975,2709 4957,2709 4946,2709 4935,2712 4925,2716 4925,2715 4924,2715 4923,2715 L 4612,2850 C 4606,2853 4601,2856 4596,2859 4595,2858 4594,2858 4593,2858 L 4282,2993 C 4276,2996 4271,2999 4266,3002 4265,3002 4264,3001 4263,3001 L 3951,3136 C 3946,3139 3941,3142 3936,3146 3935,3145 3934,3144 3933,3144 L 3621,3280 C 3616,3283 3611,3286 3606,3290 3605,3289 3603,3288 3603,3289 L 3291,3424 C 3286,3426 3281,3429 3276,3433 3274,3432 3273,3431 3272,3432 L 2961,3567 C 2955,3569 2950,3572 2946,3576 2944,3575 2943,3574 2942,3575 L 2630,3710 C 2624,3712 2619,3715 2615,3719 2613,3718 2612,3717 2611,3718 L 2300,3853 C 2262,3869 2244,3914 2261,3952 2277,3990 2321,4008 2360,3991 Z"/>
       </g>
      </g>
      <g class="com.sun.star.drawing.ClosedBezierShape">
       <g id="id6">
        <rect class="BoundingBox" stroke="none" fill="none" x="10994" y="3424" width="2166" height="2418"/>
        <path fill="rgb(255,191,85)" stroke="none" d="M 12178,5841 C 11560,5841 10994,5647 10994,4662 10994,3917 11374,3431 12061,3431 12502,3431 12659,3702 12860,3702 12911,3702 12951,3680 12951,3621 12951,3584 12944,3544 12944,3533 12944,3456 12984,3424 13050,3424 13108,3424 13159,3456 13159,3533 13159,3573 13145,3804 13141,3954 13137,4074 13137,4209 13137,4301 13137,4403 13116,4476 12977,4483 12681,4483 12484,4355 12367,4063 12254,3779 12221,3651 12053,3651 11852,3651 11731,3874 11731,4385 11731,4990 11892,5341 12437,5341 12740,5341 12926,5224 12926,4994 12926,4921 12904,4855 12904,4815 12904,4746 12948,4691 13032,4691 13105,4691 13159,4728 13159,4823 13159,5425 12962,5841 12178,5841 Z"/>
       </g>
      </g>
      <g class="com.sun.star.drawing.ClosedBezierShape">
       <g id="id7">
        <rect class="BoundingBox" stroke="none" fill="none" x="13596" y="3481" width="2481" height="2306"/>
        <path fill="rgb(255,191,85)" stroke="none" d="M 14641,4873 C 14966,4873 14995,4814 14999,4719 15003,4566 14922,4161 14824,3964 14762,3840 14736,3814 14678,3814 14503,3814 14371,4285 14371,4676 14371,4822 14390,4873 14641,4873 Z M 13689,5786 C 13626,5786 13596,5761 13596,5683 13596,5446 14251,4457 14251,3880 14251,3745 14152,3708 14090,3708 14054,3708 14010,3723 13977,3723 13897,3723 13857,3661 13857,3599 13857,3540 13897,3482 13977,3482 14101,3482 14547,3508 14791,3508 15017,3508 15229,3486 15280,3486 15371,3486 15441,3537 15441,3664 15441,4121 15777,5124 15999,5526 16047,5610 16076,5646 16076,5698 16076,5745 16047,5786 15992,5786 15904,5786 15696,5761 15474,5761 15291,5761 14871,5786 14831,5786 14755,5786 14729,5734 14729,5668 14729,5603 14769,5552 14831,5552 14860,5552 14893,5562 14970,5562 15054,5562 15120,5504 15120,5351 15120,5117 15076,5099 14703,5099 14375,5099 14342,5143 14342,5252 14342,5471 14561,5526 14561,5665 14561,5730 14532,5786 14463,5786 14411,5786 14163,5761 14046,5761 13911,5761 13762,5786 13689,5786 Z"/>
       </g>
      </g>
      <g class="com.sun.star.drawing.ClosedBezierShape">
       <g id="id8">
        <rect class="BoundingBox" stroke="none" fill="none" x="16371" y="3471" width="2331" height="2316"/>
        <path fill="rgb(255,191,85)" stroke="none" d="M 17704,3712 C 17455,3712 17422,3851 17422,4895 17422,5000 17463,5022 17554,5022 17843,5022 17974,4752 17974,4227 17974,3854 17919,3712 17704,3712 Z M 16371,5668 C 16371,5603 16414,5552 16469,5552 16495,5552 16542,5562 16557,5562 16648,5562 16666,5500 16674,5329 16685,5110 16692,4811 16692,4504 16692,4307 16685,4110 16674,3938 16666,3821 16659,3708 16568,3708 16531,3708 16495,3719 16469,3719 16400,3719 16371,3668 16371,3602 16371,3537 16414,3486 16469,3486 16659,3486 16845,3493 17057,3493 17280,3493 17715,3471 17916,3471 18405,3471 18700,3694 18700,4201 18700,4927 18383,5070 17945,5157 17447,5256 17418,5267 17418,5413 17418,5522 17451,5562 17558,5562 17616,5562 17777,5533 17868,5533 17938,5533 17974,5592 17974,5668 17974,5719 17938,5786 17868,5786 17733,5786 17345,5778 17082,5778 16871,5778 16575,5786 16469,5786 16400,5786 16371,5734 16371,5668 Z"/>
       </g>
      </g>
      <g class="com.sun.star.drawing.ClosedBezierShape">
       <g id="id9">
        <rect class="BoundingBox" stroke="none" fill="none" x="19134" y="3485" width="1335" height="2302"/>
        <path fill="rgb(255,191,85)" stroke="none" d="M 20369,3486 C 20438,3486 20467,3537 20467,3606 20467,3657 20438,3723 20369,3723 20347,3723 20314,3712 20281,3712 20190,3712 20182,3825 20175,3942 20164,4110 20157,4307 20157,4504 20157,4811 20168,5114 20175,5329 20182,5500 20201,5563 20292,5563 20307,5563 20343,5555 20369,5555 20438,5555 20467,5610 20467,5668 20467,5734 20438,5786 20369,5786 20277,5786 20022,5775 19839,5775 19635,5775 19336,5786 19232,5786 19163,5786 19134,5734 19134,5668 19134,5610 19163,5555 19232,5555 19251,5555 19287,5563 19298,5563 19390,5563 19409,5500 19416,5329 19423,5114 19434,4811 19434,4508 19434,4311 19427,4113 19416,3946 19409,3829 19401,3712 19309,3712 19280,3712 19251,3723 19232,3723 19163,3723 19134,3657 19134,3606 19134,3537 19163,3486 19232,3486 19420,3486 19606,3497 19814,3497 20015,3497 20190,3486 20369,3486 Z"/>
       </g>
      </g>
      <g class="com.sun.star.drawing.ClosedBezierShape">
       <g id="id10">
        <rect class="BoundingBox" stroke="none" fill="none" x="20889" y="3486" width="2025" height="2301"/>
        <path fill="rgb(255,191,85)" stroke="none" d="M 22208,3708 C 21978,3708 21946,3854 21935,4004 21909,4402 21916,4993 21931,5329 21938,5497 21975,5559 22095,5559 22435,5559 22592,4577 22818,4577 22880,4577 22913,4599 22913,4668 22913,4730 22891,4986 22891,5234 22891,5453 22913,5606 22913,5698 22913,5750 22862,5786 22825,5786 22610,5786 22004,5779 21584,5779 21383,5779 21087,5786 20988,5786 20919,5786 20890,5719 20890,5668 20890,5603 20933,5552 20988,5552 21010,5552 21047,5563 21058,5563 21149,5563 21167,5500 21174,5329 21189,4975 21200,4365 21174,3942 21167,3825 21160,3708 21068,3708 21039,3708 21010,3719 20988,3719 20919,3719 20890,3654 20890,3602 20890,3537 20933,3486 20988,3486 21171,3486 21354,3493 21559,3493 21862,3493 22124,3486 22402,3486 22460,3486 22504,3529 22504,3606 22504,3650 22478,3727 22402,3727 22358,3727 22292,3708 22208,3708 Z"/>
       </g>
      </g>
      <g class="com.sun.star.drawing.ClosedBezierShape">
       <g id="id11">
        <rect class="BoundingBox" stroke="none" fill="none" x="23378" y="3486" width="2025" height="2301"/>
        <path fill="rgb(255,191,85)" stroke="none" d="M 24697,3708 C 24467,3708 24434,3854 24423,4004 24397,4402 24405,4993 24419,5329 24427,5497 24463,5559 24584,5559 24923,5559 25080,4577 25307,4577 25369,4577 25402,4599 25402,4668 25402,4730 25380,4986 25380,5234 25380,5453 25402,5606 25402,5698 25402,5750 25351,5786 25315,5786 25098,5786 24492,5779 24073,5779 23872,5779 23576,5786 23478,5786 23408,5786 23379,5719 23379,5668 23379,5603 23423,5552 23478,5552 23500,5552 23536,5563 23547,5563 23638,5563 23656,5500 23664,5329 23678,4975 23689,4365 23664,3942 23656,3825 23649,3708 23558,3708 23529,3708 23500,3719 23478,3719 23408,3719 23379,3654 23379,3602 23379,3537 23423,3486 23478,3486 23660,3486 23843,3493 24047,3493 24350,3493 24613,3486 24890,3486 24949,3486 24992,3529 24992,3606 24992,3650 24967,3727 24890,3727 24846,3727 24781,3708 24697,3708 Z"/>
       </g>
      </g>
      <g class="com.sun.star.drawing.ClosedBezierShape">
       <g id="id12">
        <rect class="BoundingBox" stroke="none" fill="none" x="25748" y="3481" width="2481" height="2306"/>
        <path fill="rgb(255,191,85)" stroke="none" d="M 26793,4873 C 27118,4873 27147,4814 27151,4719 27154,4566 27074,4161 26976,3964 26913,3840 26888,3814 26830,3814 26654,3814 26523,4285 26523,4676 26523,4822 26541,4873 26793,4873 Z M 25839,5786 C 25777,5786 25748,5761 25748,5683 25748,5446 26402,4457 26402,3880 26402,3745 26304,3708 26242,3708 26205,3708 26162,3723 26129,3723 26048,3723 26007,3661 26007,3599 26007,3540 26048,3482 26129,3482 26253,3482 26698,3508 26943,3508 27169,3508 27381,3486 27432,3486 27523,3486 27592,3537 27592,3664 27592,4121 27928,5124 28151,5526 28198,5610 28228,5646 28228,5698 28228,5745 28198,5786 28144,5786 28056,5786 27848,5761 27625,5761 27443,5761 27023,5786 26983,5786 26906,5786 26881,5734 26881,5668 26881,5603 26921,5552 26983,5552 27012,5552 27045,5562 27122,5562 27206,5562 27271,5504 27271,5351 27271,5117 27227,5099 26855,5099 26527,5099 26494,5143 26494,5252 26494,5471 26713,5526 26713,5665 26713,5730 26684,5786 26614,5786 26563,5786 26315,5761 26198,5761 26063,5761 25912,5786 25839,5786 Z"/>
       </g>
      </g>
      <g class="com.sun.star.drawing.ClosedBezierShape">
       <g id="id13">
        <rect class="BoundingBox" stroke="none" fill="none" x="29665" y="3435" width="2504" height="2302"/>
        <path fill="rgb(255,191,85)" stroke="none" d="M 31162,3553 C 31162,3480 31195,3435 31269,3435 31316,3435 31429,3454 31641,3454 31871,3454 31973,3435 32050,3435 32126,3435 32167,3458 32167,3542 32167,3754 31856,3761 31546,5473 31517,5630 31520,5736 31389,5736 31305,5736 31045,5714 30881,5714 30658,5714 30446,5736 30417,5736 30304,5736 30267,5666 30249,5528 30205,5210 30045,4203 29873,3856 29786,3677 29665,3641 29665,3549 29665,3473 29702,3435 29771,3435 29862,3435 30111,3454 30373,3454 30516,3454 30841,3435 30873,3435 30943,3435 30979,3487 30979,3553 30979,3637 30943,3670 30873,3670 30848,3670 30819,3659 30786,3659 30727,3659 30691,3692 30691,3757 30691,4020 30760,4436 30965,5188 31034,5440 31100,5477 31184,5477 31338,5477 31415,5199 31415,4622 31415,3823 31162,3790 31162,3553 Z"/>
       </g>
      </g>
      <g class="com.sun.star.drawing.ClosedBezierShape">
       <g id="id14">
        <rect class="BoundingBox" stroke="none" fill="none" x="32447" y="3435" width="1334" height="2302"/>
        <path fill="rgb(255,191,85)" stroke="none" d="M 33681,3435 C 33751,3435 33780,3487 33780,3557 33780,3608 33751,3673 33681,3673 33660,3673 33627,3662 33594,3662 33503,3662 33495,3776 33488,3892 33477,4060 33470,4257 33470,4455 33470,4761 33481,5064 33488,5279 33495,5451 33513,5513 33605,5513 33619,5513 33656,5506 33681,5506 33751,5506 33780,5560 33780,5619 33780,5685 33751,5736 33681,5736 33590,5736 33335,5725 33152,5725 32948,5725 32648,5736 32545,5736 32476,5736 32447,5685 32447,5619 32447,5560 32476,5506 32545,5506 32563,5506 32600,5513 32611,5513 32703,5513 32721,5451 32729,5279 32736,5064 32747,4761 32747,4458 32747,4261 32740,4064 32729,3896 32721,3779 32714,3662 32622,3662 32593,3662 32563,3673 32545,3673 32476,3673 32447,3608 32447,3557 32447,3487 32476,3435 32545,3435 32732,3435 32919,3446 33127,3446 33327,3446 33503,3435 33681,3435 Z"/>
       </g>
      </g>
      <g class="com.sun.star.drawing.ClosedBezierShape">
       <g id="id15">
        <rect class="BoundingBox" stroke="none" fill="none" x="34206" y="3435" width="2229" height="2302"/>
        <path fill="rgb(255,191,85)" stroke="none" d="M 34370,5513 C 34462,5513 34480,5451 34487,5279 34494,5057 34506,4747 34506,4425 34506,4239 34498,4049 34487,3889 34480,3772 34473,3659 34381,3659 34352,3659 34323,3670 34305,3670 34235,3670 34206,3619 34206,3553 34206,3487 34250,3435 34305,3435 34494,3435 34678,3451 34890,3451 35236,3451 36050,3435 36269,3435 36357,3435 36415,3484 36415,3560 36415,3619 36404,3721 36404,3860 36404,3965 36419,4075 36419,4119 36419,4195 36383,4257 36313,4257 36080,4257 35952,3666 35434,3666 35309,3666 35273,3779 35255,3896 35236,4024 35233,4173 35229,4323 35229,4378 35258,4411 35306,4411 35554,4411 35696,4148 35868,4148 35912,4148 35945,4177 35945,4257 35945,4327 35934,4403 35934,4535 35934,4721 35937,4794 35937,4860 35937,4944 35893,4958 35850,4958 35682,4958 35605,4633 35313,4633 35251,4633 35229,4670 35229,4732 35229,4936 35229,5148 35240,5279 35255,5440 35291,5498 35426,5498 35985,5498 36098,4885 36342,4885 36408,4885 36434,4940 36434,5002 36434,5046 36412,5159 36412,5265 36412,5422 36434,5531 36434,5601 36434,5681 36383,5736 36302,5736 36039,5736 35368,5714 34897,5714 34696,5714 34403,5736 34305,5736 34235,5736 34206,5685 34206,5615 34206,5550 34250,5502 34305,5502 34323,5502 34359,5513 34370,5513 Z"/>
       </g>
      </g>
      <g class="com.sun.star.drawing.ClosedBezierShape">
       <g id="id16">
        <rect class="BoundingBox" stroke="none" fill="none" x="36849" y="3435" width="1542" height="2809"/>
        <path fill="rgb(255,191,85)" stroke="none" d="M 38219,3658 C 38102,3658 38084,3709 38084,3983 38084,4736 38171,5050 38171,5418 38171,5907 37963,6243 37447,6243 37028,6243 36849,5999 36849,5630 36849,5345 36995,5166 37243,5166 37466,5166 37553,5316 37553,5506 37553,5703 37404,5776 37305,5776 37210,5776 37192,5823 37192,5860 37192,5918 37225,5958 37338,5958 37506,5958 37737,5893 37737,5531 37737,5268 37659,5174 37528,5079 37396,4984 37371,4896 37371,4670 37371,4495 37378,4001 37378,3884 37378,3731 37342,3658 37254,3658 37218,3658 37181,3669 37155,3669 37086,3669 37057,3618 37057,3552 37057,3468 37101,3435 37155,3435 37305,3435 37451,3442 37619,3442 37861,3442 38073,3435 38292,3435 38346,3435 38390,3468 38390,3552 38390,3618 38361,3669 38292,3669 38273,3669 38244,3658 38219,3658 Z"/>
       </g>
      </g>
      <g class="com.sun.star.drawing.ClosedBezierShape">
       <g id="id17">
        <rect class="BoundingBox" stroke="none" fill="none" x="38692" y="3432" width="2481" height="2305"/>
        <path fill="rgb(255,191,85)" stroke="none" d="M 39736,4823 C 40061,4823 40090,4765 40094,4670 40098,4517 40017,4111 39919,3914 39857,3790 39831,3765 39773,3765 39597,3765 39466,4236 39466,4626 39466,4772 39484,4823 39736,4823 Z M 38783,5736 C 38721,5736 38692,5710 38692,5633 38692,5396 39346,4407 39346,3830 39346,3695 39247,3659 39185,3659 39149,3659 39105,3673 39072,3673 38992,3673 38951,3611 38951,3549 38951,3491 38992,3432 39072,3432 39196,3432 39641,3458 39886,3458 40112,3458 40324,3435 40375,3435 40466,3435 40536,3487 40536,3615 40536,4071 40871,5075 41095,5477 41142,5560 41172,5597 41172,5648 41172,5696 41142,5736 41088,5736 41000,5736 40791,5710 40568,5710 40386,5710 39966,5736 39926,5736 39849,5736 39824,5685 39824,5619 39824,5553 39864,5502 39926,5502 39955,5502 39988,5513 40065,5513 40149,5513 40214,5455 40214,5301 40214,5068 40171,5050 39798,5050 39470,5050 39437,5093 39437,5203 39437,5422 39656,5477 39656,5615 39656,5681 39627,5736 39557,5736 39506,5736 39258,5710 39141,5710 39006,5710 38857,5736 38783,5736 Z"/>
       </g>
      </g>
      <g class="com.sun.star.drawing.ClosedBezierShape">
       <g id="id18">
        <rect class="BoundingBox" stroke="none" fill="none" x="11166" y="6868" width="562" height="855"/>
        <path fill="rgb(255,191,85)" stroke="none" d="M 11166,6880 C 11166,6873 11171,6868 11179,6868 L 11302,6868 C 11309,6868 11314,6873 11314,6880 L 11314,7581 C 11314,7586 11317,7589 11322,7589 L 11714,7589 C 11722,7589 11727,7594 11727,7602 L 11727,7709 C 11727,7717 11722,7722 11714,7722 L 11179,7722 C 11171,7722 11166,7717 11166,7709 L 11166,6880 Z"/>
       </g>
      </g>
      <g class="com.sun.star.drawing.ClosedBezierShape">
       <g id="id19">
        <rect class="BoundingBox" stroke="none" fill="none" x="11902" y="6854" width="651" height="884"/>
        <path fill="rgb(255,191,85)" stroke="none" d="M 12386,7491 C 12396,7459 12401,7415 12401,7294 12401,7173 12396,7130 12386,7099 12362,7030 12312,6987 12227,6987 12142,6987 12092,7030 12068,7099 12058,7130 12053,7173 12053,7294 12053,7415 12058,7459 12068,7491 12092,7560 12142,7603 12227,7603 12312,7603 12362,7560 12386,7491 Z M 11924,7530 C 11907,7476 11902,7429 11902,7294 11902,7160 11907,7112 11924,7060 11968,6924 12080,6854 12227,6854 12375,6854 12485,6924 12529,7060 12546,7112 12552,7160 12552,7294 12552,7429 12546,7476 12529,7530 12485,7666 12375,7736 12227,7736 12080,7736 11968,7666 11924,7530 Z"/>
       </g>
      </g>
      <g class="com.sun.star.drawing.ClosedBezierShape">
       <g id="id20">
        <rect class="BoundingBox" stroke="none" fill="none" x="12770" y="6854" width="642" height="883"/>
        <path fill="rgb(255,191,85)" stroke="none" d="M 12775,7623 C 12770,7618 12768,7610 12773,7604 L 12851,7514 C 12856,7507 12863,7507 12868,7512 12924,7556 13005,7603 13101,7603 13203,7603 13262,7551 13262,7479 13262,7417 13224,7377 13106,7361 L 13060,7355 C 12896,7332 12803,7253 12803,7111 12803,6957 12916,6854 13092,6854 13199,6854 13301,6888 13369,6939 13375,6944 13376,6949 13371,6957 L 13311,7050 C 13306,7056 13300,7057 13294,7053 13224,7008 13160,6987 13088,6987 13001,6987 12954,7035 12954,7101 12954,7160 12995,7200 13111,7217 L 13157,7223 C 13321,7245 13411,7323 13411,7470 13411,7623 13302,7736 13089,7736 12964,7736 12842,7686 12775,7623 Z"/>
       </g>
      </g>
      <g class="com.sun.star.drawing.ClosedBezierShape">
       <g id="id21">
        <rect class="BoundingBox" stroke="none" fill="none" x="14067" y="6868" width="637" height="855"/>
        <path fill="rgb(255,191,85)" stroke="none" d="M 14536,7122 C 14536,7048 14484,7001 14406,7001 L 14223,7001 C 14218,7001 14215,7003 14215,7008 L 14215,7235 C 14215,7240 14218,7243 14223,7243 L 14406,7243 C 14484,7243 14536,7195 14536,7122 Z M 14553,7722 C 14543,7722 14538,7718 14534,7709 L 14371,7377 14223,7377 C 14218,7377 14215,7379 14215,7384 L 14215,7709 C 14215,7717 14210,7722 14203,7722 L 14080,7722 C 14072,7722 14067,7717 14067,7709 L 14067,6880 C 14067,6873 14072,6868 14080,6868 L 14411,6868 C 14568,6868 14683,6972 14683,7122 14683,7234 14619,7322 14521,7358 L 14701,7706 C 14706,7714 14701,7722 14692,7722 L 14553,7722 Z"/>
       </g>
      </g>
      <g class="com.sun.star.drawing.ClosedBezierShape">
       <g id="id22">
        <rect class="BoundingBox" stroke="none" fill="none" x="14951" y="6868" width="562" height="855"/>
        <path fill="rgb(255,191,85)" stroke="none" d="M 14951,6880 C 14951,6873 14956,6868 14964,6868 L 15499,6868 C 15507,6868 15512,6873 15512,6880 L 15512,6988 C 15512,6996 15507,7001 15499,7001 L 15107,7001 C 15102,7001 15099,7003 15099,7008 L 15099,7217 C 15099,7222 15102,7224 15107,7224 L 15438,7224 C 15445,7224 15450,7229 15450,7237 L 15450,7346 C 15450,7353 15445,7358 15438,7358 L 15107,7358 C 15102,7358 15099,7361 15099,7366 L 15099,7581 C 15099,7586 15102,7589 15107,7589 L 15499,7589 C 15507,7589 15512,7594 15512,7602 L 15512,7709 C 15512,7717 15507,7722 15499,7722 L 14964,7722 C 14956,7722 14951,7717 14951,7709 L 14951,6880 Z"/>
       </g>
      </g>
      <g class="com.sun.star.drawing.ClosedBezierShape">
       <g id="id23">
        <rect class="BoundingBox" stroke="none" fill="none" x="15701" y="6868" width="733" height="855"/>
        <path fill="rgb(255,191,85)" stroke="none" d="M 16181,7412 L 16068,7080 16064,7080 15950,7412 16181,7412 Z M 15994,6880 C 15997,6873 16002,6868 16011,6868 L 16126,6868 C 16135,6868 16140,6873 16142,6880 L 16432,7709 C 16434,7717 16432,7722 16422,7722 L 16299,7722 C 16290,7722 16285,7718 16283,7709 L 16226,7544 15905,7544 15849,7709 C 15846,7718 15841,7722 15832,7722 L 15711,7722 C 15702,7722 15699,7717 15702,7709 L 15994,6880 Z"/>
       </g>
      </g>
      <g class="com.sun.star.drawing.ClosedBezierShape">
       <g id="id24">
        <rect class="BoundingBox" stroke="none" fill="none" x="16655" y="6868" width="636" height="855"/>
        <path fill="rgb(255,191,85)" stroke="none" d="M 17124,7122 C 17124,7048 17071,7001 16993,7001 L 16811,7001 C 16806,7001 16804,7003 16804,7008 L 16804,7235 C 16804,7240 16806,7243 16811,7243 L 16993,7243 C 17071,7243 17124,7195 17124,7122 Z M 17140,7722 C 17130,7722 17125,7718 17121,7709 L 16958,7377 16811,7377 C 16806,7377 16804,7379 16804,7384 L 16804,7709 C 16804,7717 16798,7722 16790,7722 L 16667,7722 C 16660,7722 16655,7717 16655,7709 L 16655,6880 C 16655,6873 16660,6868 16667,6868 L 16998,6868 C 17155,6868 17270,6972 17270,7122 17270,7234 17206,7322 17109,7358 L 17288,7706 C 17293,7714 17288,7722 17279,7722 L 17140,7722 Z"/>
       </g>
      </g>
      <g class="com.sun.star.drawing.ClosedBezierShape">
       <g id="id25">
        <rect class="BoundingBox" stroke="none" fill="none" x="17468" y="6868" width="637" height="855"/>
        <path fill="rgb(255,191,85)" stroke="none" d="M 17724,7722 C 17717,7722 17712,7717 17712,7709 L 17712,7008 C 17712,7003 17709,7001 17704,7001 L 17481,7001 C 17473,7001 17468,6996 17468,6988 L 17468,6880 C 17468,6873 17473,6868 17481,6868 L 18092,6868 C 18099,6868 18104,6873 18104,6880 L 18104,6988 C 18104,6996 18099,7001 18092,7001 L 17867,7001 C 17862,7001 17860,7003 17860,7008 L 17860,7709 C 17860,7717 17855,7722 17847,7722 L 17724,7722 Z"/>
       </g>
      </g>
      <g class="com.sun.star.drawing.ClosedBezierShape">
       <g id="id26">
        <rect class="BoundingBox" stroke="none" fill="none" x="18332" y="6868" width="561" height="855"/>
        <path fill="rgb(255,191,85)" stroke="none" d="M 18332,6880 C 18332,6873 18337,6868 18344,6868 L 18880,6868 C 18887,6868 18892,6873 18892,6880 L 18892,6988 C 18892,6996 18887,7001 18880,7001 L 18487,7001 C 18482,7001 18480,7003 18480,7008 L 18480,7217 C 18480,7222 18482,7224 18487,7224 L 18818,7224 C 18826,7224 18831,7229 18831,7237 L 18831,7346 C 18831,7353 18826,7358 18818,7358 L 18487,7358 C 18482,7358 18480,7361 18480,7366 L 18480,7581 C 18480,7586 18482,7589 18487,7589 L 18880,7589 C 18887,7589 18892,7594 18892,7602 L 18892,7709 C 18892,7717 18887,7722 18880,7722 L 18344,7722 C 18337,7722 18332,7717 18332,7709 L 18332,6880 Z"/>
       </g>
      </g>
      <g class="com.sun.star.drawing.ClosedBezierShape">
       <g id="id27">
        <rect class="BoundingBox" stroke="none" fill="none" x="19104" y="6854" width="643" height="884"/>
        <path fill="rgb(255,191,85)" stroke="none" d="M 19110,7623 C 19105,7618 19102,7610 19107,7604 L 19185,7514 C 19190,7507 19198,7507 19203,7512 19258,7556 19340,7603 19435,7603 19538,7603 19597,7551 19597,7479 19597,7417 19559,7377 19440,7361 L 19395,7355 C 19230,7332 19138,7253 19138,7111 19138,6957 19250,6854 19426,6854 19534,6854 19635,6888 19703,6939 19709,6944 19711,6949 19706,6957 L 19645,7050 C 19640,7056 19634,7057 19628,7053 19559,7008 19494,6987 19422,6987 19336,6987 19288,7035 19288,7101 19288,7160 19329,7200 19445,7217 L 19490,7223 C 19656,7245 19746,7323 19746,7470 19746,7623 19637,7736 19424,7736 19298,7736 19176,7686 19110,7623 Z"/>
       </g>
      </g>
      <g class="com.sun.star.drawing.ClosedBezierShape">
       <g id="id28">
        <rect class="BoundingBox" stroke="none" fill="none" x="22365" y="6853" width="611" height="884"/>
        <path fill="rgb(255,191,85)" stroke="none" d="M 22365,7294 C 22365,7159 22370,7116 22388,7063 22432,6924 22540,6854 22684,6854 22822,6854 22925,6924 22974,7037 22976,7043 22974,7050 22967,7052 L 22861,7104 C 22853,7107 22847,7104 22844,7097 22817,7037 22768,6987 22684,6987 22602,6987 22555,7031 22531,7100 22520,7135 22516,7169 22516,7294 22516,7420 22520,7454 22531,7490 22555,7559 22602,7603 22684,7603 22768,7603 22817,7553 22844,7492 22847,7486 22853,7482 22861,7486 L 22967,7538 C 22974,7540 22976,7546 22974,7553 22925,7666 22822,7736 22684,7736 22540,7736 22432,7666 22388,7526 22370,7473 22365,7430 22365,7294 Z"/>
       </g>
      </g>
      <g class="com.sun.star.drawing.ClosedBezierShape">
       <g id="id29">
        <rect class="BoundingBox" stroke="none" fill="none" x="23194" y="6607" width="651" height="1130"/>
        <path fill="rgb(255,191,85)" stroke="none" d="M 23452,6766 C 23445,6766 23442,6760 23447,6754 L 23558,6619 C 23564,6612 23570,6607 23582,6607 L 23706,6607 C 23713,6607 23718,6613 23712,6619 L 23564,6756 C 23555,6765 23550,6766 23541,6766 L 23452,6766 Z M 23678,7491 C 23688,7460 23693,7416 23693,7294 23693,7173 23688,7130 23678,7099 23654,7030 23603,6987 23518,6987 23433,6987 23383,7030 23359,7099 23349,7130 23344,7173 23344,7294 23344,7416 23349,7460 23359,7491 23383,7560 23433,7603 23518,7603 23603,7603 23654,7560 23678,7491 Z M 23216,7530 C 23199,7477 23194,7430 23194,7294 23194,7160 23199,7112 23216,7060 23260,6924 23371,6854 23518,6854 23667,6854 23777,6924 23821,7060 23839,7112 23844,7160 23844,7294 23844,7430 23839,7477 23821,7530 23777,7666 23667,7736 23518,7736 23371,7736 23260,7666 23216,7530 Z"/>
       </g>
      </g>
      <g class="com.sun.star.drawing.ClosedBezierShape">
       <g id="id30">
        <rect class="BoundingBox" stroke="none" fill="none" x="24113" y="6868" width="636" height="855"/>
        <path fill="rgb(255,191,85)" stroke="none" d="M 24582,7122 C 24582,7048 24529,7001 24451,7001 L 24268,7001 C 24263,7001 24261,7003 24261,7008 L 24261,7235 C 24261,7240 24263,7243 24268,7243 L 24451,7243 C 24529,7243 24582,7195 24582,7122 Z M 24598,7722 C 24588,7722 24583,7718 24579,7709 L 24416,7377 24268,7377 C 24263,7377 24261,7379 24261,7384 L 24261,7709 C 24261,7717 24256,7722 24248,7722 L 24125,7722 C 24118,7722 24113,7717 24113,7709 L 24113,6880 C 24113,6873 24118,6868 24125,6868 L 24456,6868 C 24613,6868 24729,6972 24729,7122 24729,7234 24665,7322 24567,7358 L 24746,7706 C 24751,7714 24746,7722 24737,7722 L 24598,7722 Z"/>
       </g>
      </g>
      <g class="com.sun.star.drawing.ClosedBezierShape">
       <g id="id31">
        <rect class="BoundingBox" stroke="none" fill="none" x="24997" y="6868" width="625" height="855"/>
        <path fill="rgb(255,191,85)" stroke="none" d="M 25152,7589 L 25280,7589 C 25374,7589 25432,7558 25457,7481 25466,7457 25472,7418 25472,7295 25472,7170 25466,7132 25457,7109 25432,7032 25374,7001 25280,7001 L 25152,7001 C 25147,7001 25145,7003 25145,7008 L 25145,7581 C 25145,7586 25147,7589 25152,7589 Z M 24997,6880 C 24997,6873 25002,6868 25009,6868 L 25315,6868 C 25462,6868 25560,6933 25600,7057 25614,7100 25621,7146 25621,7295 25621,7443 25614,7490 25600,7533 25560,7657 25462,7722 25315,7722 L 25009,7722 C 25002,7722 24997,7717 24997,7709 L 24997,6880 Z"/>
       </g>
      </g>
      <g class="com.sun.star.drawing.ClosedBezierShape">
       <g id="id32">
        <rect class="BoundingBox" stroke="none" fill="none" x="25863" y="6854" width="650" height="884"/>
        <path fill="rgb(255,191,85)" stroke="none" d="M 26347,7491 C 26357,7459 26362,7415 26362,7294 26362,7173 26357,7130 26347,7099 26323,7030 26273,6987 26186,6987 26102,6987 26052,7030 26028,7099 26018,7130 26013,7173 26013,7294 26013,7415 26018,7459 26028,7491 26052,7560 26102,7603 26186,7603 26273,7603 26323,7560 26347,7491 Z M 25885,7530 C 25868,7476 25863,7429 25863,7294 25863,7160 25868,7112 25885,7060 25929,6924 26040,6854 26186,6854 26335,6854 26446,6924 26490,7060 26507,7112 26512,7160 26512,7294 26512,7429 26507,7476 26490,7530 26446,7666 26335,7736 26186,7736 26040,7736 25929,7666 25885,7530 Z"/>
       </g>
      </g>
      <g class="com.sun.star.drawing.ClosedBezierShape">
       <g id="id33">
        <rect class="BoundingBox" stroke="none" fill="none" x="26782" y="6868" width="613" height="855"/>
        <path fill="rgb(255,191,85)" stroke="none" d="M 26937,7591 L 27115,7591 C 27199,7591 27246,7544 27246,7472 27246,7402 27199,7354 27115,7354 L 26937,7354 C 26932,7354 26930,7357 26930,7362 L 26930,7584 C 26930,7589 26932,7591 26937,7591 Z M 27108,7223 C 27183,7223 27231,7178 27231,7111 27231,7043 27183,6998 27108,6998 L 26937,6998 C 26932,6998 26930,7001 26930,7006 L 26930,7215 C 26930,7220 26932,7223 26937,7223 L 27108,7223 Z M 26782,6880 C 26782,6873 26787,6868 26794,6868 L 27112,6868 C 27293,6868 27379,6958 27379,7095 27379,7191 27334,7247 27280,7277 L 27280,7279 C 27332,7299 27394,7367 27394,7471 27394,7640 27287,7722 27099,7722 L 26794,7722 C 26787,7722 26782,7717 26782,7709 L 26782,6880 Z"/>
       </g>
      </g>
      <g class="com.sun.star.drawing.ClosedBezierShape">
       <g id="id34">
        <rect class="BoundingBox" stroke="none" fill="none" x="27569" y="6868" width="733" height="856"/>
        <path fill="rgb(255,191,85)" stroke="none" d="M 28049,7412 L 27937,7080 27933,7080 27819,7412 28049,7412 Z M 27862,6880 C 27865,6873 27870,6868 27879,6868 L 27994,6868 C 28003,6868 28008,6873 28011,6880 L 28300,7709 C 28303,7717 28300,7722 28291,7722 L 28168,7722 C 28160,7722 28155,7718 28152,7709 L 28095,7544 27773,7544 27717,7709 C 27714,7718 27709,7722 27701,7722 L 27579,7722 C 27570,7722 27568,7717 27570,7709 L 27862,6880 Z"/>
       </g>
      </g>
      <g class="com.sun.star.drawing.ClosedBezierShape">
       <g id="id35">
        <rect class="BoundingBox" stroke="none" fill="none" x="20855" y="7214" width="415" height="153"/>
        <path fill="rgb(255,191,85)" stroke="none" d="M 21191,7366 L 20930,7366 C 20888,7366 20855,7333 20855,7290 20855,7248 20888,7214 20930,7214 L 21191,7214 C 21234,7214 21268,7248 21268,7290 21268,7333 21234,7366 21191,7366 Z"/>
       </g>
      </g>
      <g class="com.sun.star.drawing.ClosedBezierShape">
       <g id="id36">
        <rect class="BoundingBox" stroke="none" fill="none" x="11166" y="1712" width="709" height="900"/>
        <path fill="rgb(255,191,85)" stroke="none" d="M 11166,2611 L 11167,2606 C 11167,2605 11170,2601 11175,2592 11180,2583 11186,2572 11193,2558 11201,2543 11209,2528 11217,2511 11225,2494 11234,2475 11241,2455 11249,2434 11256,2416 11261,2398 L 11387,1926 C 11392,1909 11395,1890 11398,1869 11401,1848 11403,1830 11404,1814 11405,1797 11405,1782 11406,1766 11406,1751 11406,1740 11405,1733 11404,1726 11404,1721 11405,1718 L 11406,1713 11726,1713 11725,1718 C 11725,1719 11723,1724 11718,1733 11713,1741 11706,1753 11699,1767 11691,1781 11684,1797 11675,1814 11667,1831 11659,1849 11651,1870 11642,1890 11636,1909 11631,1926 L 11464,2553 11547,2553 C 11569,2553 11595,2545 11624,2529 11655,2513 11684,2494 11711,2471 11738,2448 11763,2425 11787,2402 11810,2380 11830,2360 11845,2345 11860,2329 11867,2321 11868,2321 L 11873,2321 11796,2611 11166,2611 Z"/>
       </g>
      </g>
      <g class="com.sun.star.drawing.ClosedBezierShape">
       <g id="id37">
        <rect class="BoundingBox" stroke="none" fill="none" x="12080" y="1700" width="873" height="929"/>
        <path fill="rgb(255,191,85)" stroke="none" d="M 12414,2570 C 12439,2570 12465,2557 12491,2530 12518,2503 12542,2467 12563,2424 12584,2381 12604,2337 12620,2292 12636,2247 12650,2204 12661,2163 12675,2106 12685,2048 12690,1990 12696,1932 12694,1879 12683,1831 12672,1783 12650,1759 12617,1758 12591,1757 12565,1771 12539,1798 12512,1825 12488,1860 12467,1903 12446,1946 12427,1990 12411,2034 12395,2078 12381,2121 12371,2163 12356,2220 12346,2278 12341,2338 12335,2396 12338,2450 12349,2498 12360,2546 12382,2570 12414,2570 Z M 12732,2504 C 12634,2588 12522,2629 12399,2627 12276,2626 12187,2582 12131,2495 12076,2409 12065,2295 12100,2155 12136,2015 12202,1903 12300,1820 12397,1737 12507,1697 12632,1700 12754,1702 12843,1746 12899,1832 12955,1918 12966,2031 12931,2169 12896,2309 12829,2421 12732,2504 Z"/>
       </g>
      </g>
      <g class="com.sun.star.drawing.ClosedBezierShape">
       <g id="id38">
        <rect class="BoundingBox" stroke="none" fill="none" x="13143" y="1712" width="871" height="900"/>
        <path fill="rgb(255,191,85)" stroke="none" d="M 13220,2611 L 13221,2606 C 13221,2605 13224,2601 13229,2592 13234,2583 13240,2572 13247,2558 13255,2543 13263,2528 13270,2511 13278,2494 13286,2475 13294,2455 13302,2434 13308,2416 13313,2398 L 13481,1777 13469,1777 C 13448,1777 13422,1785 13393,1802 13363,1819 13335,1840 13307,1865 13280,1890 13254,1915 13231,1939 13207,1964 13187,1985 13172,2002 13157,2019 13149,2027 13148,2027 L 13143,2027 13226,1713 14013,1713 13929,2027 13922,2027 C 13921,2027 13918,2019 13912,2002 13906,1985 13898,1964 13888,1939 13878,1915 13865,1890 13851,1865 13837,1840 13820,1819 13800,1802 13779,1785 13758,1777 13737,1777 L 13725,1777 13560,2398 C 13555,2416 13551,2435 13548,2455 13545,2476 13543,2495 13542,2511 13542,2527 13541,2543 13540,2558 13540,2574 13540,2585 13540,2592 13541,2599 13541,2604 13540,2606 L 13539,2611 13220,2611 Z"/>
       </g>
      </g>
      <g class="com.sun.star.drawing.ClosedBezierShape">
       <g id="id39">
        <rect class="BoundingBox" stroke="none" fill="none" x="13962" y="1712" width="894" height="900"/>
        <path fill="rgb(255,191,85)" stroke="none" d="M 13962,2611 L 13964,2606 C 13964,2605 13966,2601 13971,2592 13976,2583 13982,2572 13990,2558 13997,2543 14005,2528 14013,2511 14021,2494 14029,2475 14036,2455 14044,2434 14051,2416 14056,2398 L 14182,1926 C 14189,1898 14194,1867 14197,1833 14200,1800 14201,1772 14201,1751 L 14201,1718 14203,1713 14855,1713 14783,1984 14778,1984 C 14777,1984 14773,1976 14766,1962 14759,1947 14749,1930 14737,1909 14725,1888 14712,1867 14695,1847 14680,1826 14662,1808 14641,1794 14619,1779 14598,1772 14575,1772 L 14468,1772 14372,2128 14383,2128 C 14405,2128 14429,2125 14455,2120 14481,2115 14505,2108 14528,2101 14550,2093 14571,2086 14589,2078 14608,2071 14623,2064 14635,2059 14647,2054 14653,2051 14654,2051 L 14660,2051 14605,2256 14599,2256 C 14598,2256 14593,2253 14585,2248 14576,2243 14564,2235 14550,2228 14535,2220 14519,2213 14500,2205 14482,2198 14461,2191 14438,2186 14415,2181 14392,2178 14370,2178 L 14360,2178 14259,2553 14371,2553 C 14392,2553 14418,2545 14447,2531 14477,2516 14505,2499 14531,2478 14557,2457 14582,2436 14605,2415 14628,2394 14647,2376 14662,2361 14676,2347 14684,2340 14685,2340 L 14691,2340 14617,2611 13962,2611 Z"/>
       </g>
      </g>
      <g class="com.sun.star.drawing.ClosedBezierShape">
       <g id="id40">
        <rect class="BoundingBox" stroke="none" fill="none" x="14925" y="1700" width="874" height="929"/>
        <path fill="rgb(255,191,85)" stroke="none" d="M 15261,2570 C 15286,2570 15312,2557 15338,2530 15365,2503 15389,2467 15410,2424 15431,2381 15450,2337 15466,2292 15482,2247 15496,2204 15507,2163 15521,2106 15531,2048 15536,1990 15542,1932 15540,1879 15529,1831 15518,1783 15496,1759 15463,1758 15438,1757 15412,1771 15386,1798 15359,1825 15335,1860 15314,1903 15293,1946 15274,1990 15258,2034 15242,2078 15228,2121 15218,2163 15203,2220 15193,2278 15187,2338 15181,2396 15184,2450 15195,2498 15206,2546 15229,2570 15261,2570 Z M 15578,2504 C 15480,2588 15369,2629 15246,2627 15122,2626 15033,2582 14977,2495 14922,2409 14911,2295 14946,2155 14982,2015 15048,1903 15146,1820 15244,1737 15354,1697 15478,1700 15600,1702 15689,1746 15745,1832 15801,1918 15812,2031 15777,2169 15742,2309 15676,2421 15578,2504 Z"/>
       </g>
      </g>
     </g>
    </g>
   </g>
  </g>
 </g>
</svg>