<?xml version="1.0" encoding="UTF-8"?>
<!DOCTYPE svg PUBLIC "-//W3C//DTD SVG 1.1//EN" "http://www.w3.org/Graphics/SVG/1.1/DTD/svg11.dtd">
<svg version="1.2" width="301.79mm" height="28.2mm" viewBox="11006 3436 30179 2820" preserveAspectRatio="xMidYMid" fill-rule="evenodd" stroke-width="28.222" stroke-linejoin="round" xmlns="http://www.w3.org/2000/svg" xmlns:ooo="http://xml.openoffice.org/svg/export" xmlns:xlink="http://www.w3.org/1999/xlink" xmlns:presentation="http://sun.com/xmlns/staroffice/presentation" xmlns:smil="http://www.w3.org/2001/SMIL20/" xmlns:anim="urn:oasis:names:tc:opendocument:xmlns:animation:1.0" xmlns:svg="urn:oasis:names:tc:opendocument:xmlns:svg-compatible:1.0" xml:space="preserve">
 <defs class="EmbeddedBulletChars">
  <g id="bullet-char-template-57356" transform="scale(0.00048828125,-0.00048828125)">
   <path d="M 580,1141 L 1163,571 580,0 -4,571 580,1141 Z"/>
  </g>
  <g id="bullet-char-template-57354" transform="scale(0.00048828125,-0.00048828125)">
   <path d="M 8,1128 L 1137,1128 1137,0 8,0 8,1128 Z"/>
  </g>
  <g id="bullet-char-template-10146" transform="scale(0.00048828125,-0.00048828125)">
   <path d="M 174,0 L 602,739 174,1481 1456,739 174,0 Z M 1358,739 L 309,1346 659,739 1358,739 Z"/>
  </g>
  <g id="bullet-char-template-10132" transform="scale(0.00048828125,-0.00048828125)">
   <path d="M 2015,739 L 1276,0 717,0 1260,543 174,543 174,936 1260,936 717,1481 1274,1481 2015,739 Z"/>
  </g>
  <g id="bullet-char-template-10007" transform="scale(0.00048828125,-0.00048828125)">
   <path d="M 0,-2 C -7,14 -16,27 -25,37 L 356,567 C 262,823 215,952 215,954 215,979 228,992 255,992 264,992 276,990 289,987 310,991 331,999 354,1012 L 381,999 492,748 772,1049 836,1024 860,1049 C 881,1039 901,1025 922,1006 886,937 835,863 770,784 769,783 710,716 594,584 L 774,223 C 774,196 753,168 711,139 L 727,119 C 717,90 699,76 672,76 641,76 570,178 457,381 L 164,-76 C 142,-110 111,-127 72,-127 30,-127 9,-110 8,-76 1,-67 -2,-52 -2,-32 -2,-23 -1,-13 0,-2 Z"/>
  </g>
  <g id="bullet-char-template-10004" transform="scale(0.00048828125,-0.00048828125)">
   <path d="M 285,-33 C 182,-33 111,30 74,156 52,228 41,333 41,471 41,549 55,616 82,672 116,743 169,778 240,778 293,778 328,747 346,684 L 369,508 C 377,444 397,411 428,410 L 1163,1116 C 1174,1127 1196,1133 1229,1133 1271,1133 1292,1118 1292,1087 L 1292,965 C 1292,929 1282,901 1262,881 L 442,47 C 390,-6 338,-33 285,-33 Z"/>
  </g>
  <g id="bullet-char-template-9679" transform="scale(0.00048828125,-0.00048828125)">
   <path d="M 813,0 C 632,0 489,54 383,161 276,268 223,411 223,592 223,773 276,916 383,1023 489,1130 632,1184 813,1184 992,1184 1136,1130 1245,1023 1353,916 1407,772 1407,592 1407,412 1353,268 1245,161 1136,54 992,0 813,0 Z"/>
  </g>
  <g id="bullet-char-template-8226" transform="scale(0.00048828125,-0.00048828125)">
   <path d="M 346,457 C 273,457 209,483 155,535 101,586 74,649 74,723 74,796 101,859 155,911 209,963 273,989 346,989 419,989 480,963 531,910 582,859 608,796 608,723 608,648 583,586 532,535 482,483 420,457 346,457 Z"/>
  </g>
  <g id="bullet-char-template-8211" transform="scale(0.00048828125,-0.00048828125)">
   <path d="M -4,459 L 1135,459 1135,606 -4,606 -4,459 Z"/>
  </g>
  <g id="bullet-char-template-61548" transform="scale(0.00048828125,-0.00048828125)">
   <path d="M 173,740 C 173,903 231,1043 346,1159 462,1274 601,1332 765,1332 928,1332 1067,1274 1183,1159 1299,1043 1357,903 1357,740 1357,577 1299,437 1183,322 1067,206 928,148 765,148 601,148 462,206 346,322 231,437 173,577 173,740 Z"/>
  </g>
 </defs>
 <g class="Page">
  <g class="com.sun.star.drawing.ClosedBezierShape">
   <g id="id3">
    <rect class="BoundingBox" stroke="none" fill="none" x="11006" y="3436" width="2167" height="2418"/>
    <path fill="rgb(255,191,85)" stroke="none" d="M 12191,5852 C 11573,5852 11007,5658 11007,4675 11007,3930 11387,3444 12074,3444 12515,3444 12672,3715 12873,3715 12924,3715 12964,3693 12964,3634 12964,3597 12957,3557 12957,3546 12957,3469 12997,3437 13063,3437 13121,3437 13172,3469 13172,3546 13172,3586 13158,3817 13154,3967 13150,4087 13150,4222 13150,4314 13150,4416 13129,4489 12990,4496 12694,4496 12497,4368 12380,4076 12267,3792 12234,3664 12066,3664 11865,3664 11744,3887 11744,4398 11744,5001 11905,5352 12450,5352 12753,5352 12939,5235 12939,5005 12939,4932 12917,4866 12917,4826 12917,4757 12961,4702 13045,4702 13118,4702 13172,4739 13172,4834 13172,5436 12975,5852 12191,5852 Z"/>
   </g>
  </g>
  <g class="com.sun.star.drawing.ClosedBezierShape">
   <g id="id4">
    <rect class="BoundingBox" stroke="none" fill="none" x="13608" y="3494" width="2482" height="2305"/>
    <path fill="rgb(255,191,85)" stroke="none" d="M 14654,4884 C 14979,4884 15008,4825 15012,4730 15016,4579 14935,4174 14837,3977 14775,3853 14749,3827 14691,3827 14516,3827 14384,4298 14384,4689 14384,4833 14403,4884 14654,4884 Z M 13702,5797 C 13639,5797 13609,5772 13609,5694 13609,5457 14264,4470 14264,3893 14264,3758 14165,3721 14103,3721 14067,3721 14023,3736 13990,3736 13910,3736 13870,3674 13870,3612 13870,3553 13910,3495 13990,3495 14114,3495 14560,3521 14804,3521 15030,3521 15242,3499 15293,3499 15384,3499 15454,3550 15454,3677 15454,4134 15790,5135 16012,5537 16060,5621 16089,5657 16089,5709 16089,5756 16060,5797 16005,5797 15917,5797 15709,5772 15487,5772 15304,5772 14884,5797 14844,5797 14768,5797 14742,5745 14742,5679 14742,5614 14782,5563 14844,5563 14873,5563 14906,5573 14983,5573 15067,5573 15133,5515 15133,5362 15133,5128 15089,5110 14716,5110 14388,5110 14355,5154 14355,5263 14355,5482 14574,5537 14574,5676 14574,5741 14545,5797 14476,5797 14424,5797 14176,5772 14059,5772 13924,5772 13775,5797 13702,5797 Z"/>
   </g>
  </g>
  <g class="com.sun.star.drawing.ClosedBezierShape">
   <g id="id5">
    <rect class="BoundingBox" stroke="none" fill="none" x="16383" y="3483" width="2331" height="2316"/>
    <path fill="rgb(255,191,85)" stroke="none" d="M 17717,3725 C 17468,3725 17435,3864 17435,4906 17435,5011 17476,5033 17567,5033 17856,5033 17987,4763 17987,4240 17987,3867 17932,3725 17717,3725 Z M 16384,5679 C 16384,5614 16427,5563 16482,5563 16508,5563 16555,5573 16570,5573 16661,5573 16679,5511 16687,5340 16698,5121 16705,4822 16705,4517 16705,4320 16698,4123 16687,3951 16679,3834 16672,3721 16581,3721 16544,3721 16508,3732 16482,3732 16413,3732 16384,3681 16384,3615 16384,3550 16427,3499 16482,3499 16672,3499 16858,3506 17070,3506 17293,3506 17728,3484 17929,3484 18418,3484 18713,3707 18713,4214 18713,4938 18396,5081 17958,5168 17460,5267 17431,5278 17431,5424 17431,5533 17464,5573 17571,5573 17629,5573 17790,5544 17881,5544 17951,5544 17987,5603 17987,5679 17987,5730 17951,5797 17881,5797 17746,5797 17358,5789 17095,5789 16884,5789 16588,5797 16482,5797 16413,5797 16384,5745 16384,5679 Z"/>
   </g>
  </g>
  <g class="com.sun.star.drawing.ClosedBezierShape">
   <g id="id6">
    <rect class="BoundingBox" stroke="none" fill="none" x="19146" y="3498" width="1335" height="2301"/>
    <path fill="rgb(255,191,85)" stroke="none" d="M 20382,3499 C 20451,3499 20480,3550 20480,3619 20480,3670 20451,3736 20382,3736 20360,3736 20327,3725 20294,3725 20203,3725 20195,3838 20188,3955 20177,4123 20170,4320 20170,4517 20170,4822 20181,5125 20188,5340 20195,5511 20214,5574 20305,5574 20320,5574 20356,5566 20382,5566 20451,5566 20480,5621 20480,5679 20480,5745 20451,5797 20382,5797 20290,5797 20035,5786 19852,5786 19648,5786 19349,5797 19245,5797 19176,5797 19147,5745 19147,5679 19147,5621 19176,5566 19245,5566 19264,5566 19300,5574 19311,5574 19403,5574 19422,5511 19429,5340 19436,5125 19447,4822 19447,4521 19447,4324 19440,4126 19429,3959 19422,3842 19414,3725 19322,3725 19293,3725 19264,3736 19245,3736 19176,3736 19147,3670 19147,3619 19147,3550 19176,3499 19245,3499 19433,3499 19619,3510 19827,3510 20028,3510 20203,3499 20382,3499 Z"/>
   </g>
  </g>
  <g class="com.sun.star.drawing.ClosedBezierShape">
   <g id="id7">
    <rect class="BoundingBox" stroke="none" fill="none" x="20902" y="3498" width="2024" height="2301"/>
    <path fill="rgb(255,191,85)" stroke="none" d="M 22219,3721 C 21989,3721 21957,3867 21946,4017 21920,4415 21927,5004 21942,5340 21949,5508 21986,5570 22106,5570 22446,5570 22603,4590 22829,4590 22891,4590 22924,4612 22924,4681 22924,4741 22902,4997 22902,5245 22902,5464 22924,5617 22924,5709 22924,5761 22873,5797 22836,5797 22621,5797 22015,5790 21595,5790 21394,5790 21100,5797 21001,5797 20932,5797 20903,5730 20903,5679 20903,5614 20946,5563 21001,5563 21023,5563 21060,5574 21071,5574 21162,5574 21180,5511 21187,5340 21202,4986 21213,4378 21187,3955 21180,3838 21173,3721 21081,3721 21052,3721 21023,3732 21001,3732 20932,3732 20903,3667 20903,3615 20903,3550 20946,3499 21001,3499 21184,3499 21365,3506 21570,3506 21873,3506 22135,3499 22413,3499 22471,3499 22515,3542 22515,3619 22515,3663 22489,3740 22413,3740 22369,3740 22303,3721 22219,3721 Z"/>
   </g>
  </g>
  <g class="com.sun.star.drawing.ClosedBezierShape">
   <g id="id8">
    <rect class="BoundingBox" stroke="none" fill="none" x="23390" y="3498" width="2025" height="2301"/>
    <path fill="rgb(255,191,85)" stroke="none" d="M 24708,3721 C 24478,3721 24445,3867 24434,4017 24408,4415 24416,5004 24430,5340 24438,5508 24474,5570 24595,5570 24934,5570 25091,4590 25318,4590 25380,4590 25413,4612 25413,4681 25413,4741 25391,4997 25391,5245 25391,5464 25413,5617 25413,5709 25413,5761 25362,5797 25326,5797 25109,5797 24503,5790 24084,5790 23883,5790 23587,5797 23489,5797 23419,5797 23390,5730 23390,5679 23390,5614 23434,5563 23489,5563 23511,5563 23547,5574 23558,5574 23649,5574 23667,5511 23675,5340 23689,4986 23700,4378 23675,3955 23667,3838 23660,3721 23569,3721 23540,3721 23511,3732 23489,3732 23419,3732 23390,3667 23390,3615 23390,3550 23434,3499 23489,3499 23671,3499 23854,3506 24058,3506 24361,3506 24624,3499 24901,3499 24960,3499 25003,3542 25003,3619 25003,3663 24978,3740 24901,3740 24857,3740 24792,3721 24708,3721 Z"/>
   </g>
  </g>
  <g class="com.sun.star.drawing.ClosedBezierShape">
   <g id="id9">
    <rect class="BoundingBox" stroke="none" fill="none" x="25759" y="3494" width="2482" height="2305"/>
    <path fill="rgb(255,191,85)" stroke="none" d="M 26804,4884 C 27129,4884 27158,4825 27162,4730 27165,4579 27085,4174 26987,3977 26924,3853 26899,3827 26841,3827 26665,3827 26534,4298 26534,4689 26534,4833 26552,4884 26804,4884 Z M 25850,5797 C 25788,5797 25759,5772 25759,5694 25759,5457 26413,4470 26413,3893 26413,3758 26315,3721 26253,3721 26216,3721 26173,3736 26140,3736 26059,3736 26018,3674 26018,3612 26018,3553 26059,3495 26140,3495 26264,3495 26709,3521 26954,3521 27180,3521 27392,3499 27443,3499 27534,3499 27603,3550 27603,3677 27603,4134 27939,5135 28162,5537 28209,5621 28239,5657 28239,5709 28239,5756 28209,5797 28155,5797 28067,5797 27859,5772 27636,5772 27454,5772 27034,5797 26994,5797 26917,5797 26892,5745 26892,5679 26892,5614 26932,5563 26994,5563 27023,5563 27056,5573 27133,5573 27217,5573 27282,5515 27282,5362 27282,5128 27238,5110 26866,5110 26538,5110 26505,5154 26505,5263 26505,5482 26724,5537 26724,5676 26724,5741 26695,5797 26625,5797 26574,5797 26326,5772 26209,5772 26074,5772 25923,5797 25850,5797 Z"/>
   </g>
  </g>
  <g class="com.sun.star.drawing.ClosedBezierShape">
   <g id="id10">
    <rect class="BoundingBox" stroke="none" fill="none" x="29676" y="3447" width="2504" height="2302"/>
    <path fill="rgb(255,191,85)" stroke="none" d="M 31173,3566 C 31173,3493 31206,3448 31280,3448 31327,3448 31440,3467 31652,3467 31882,3467 31984,3448 32061,3448 32137,3448 32178,3471 32178,3555 32178,3767 31867,3774 31557,5484 31528,5641 31531,5747 31400,5747 31316,5747 31056,5725 30892,5725 30669,5725 30457,5747 30428,5747 30315,5747 30278,5677 30260,5539 30216,5221 30056,4216 29884,3869 29797,3690 29676,3654 29676,3562 29676,3486 29713,3448 29782,3448 29873,3448 30122,3467 30384,3467 30527,3467 30852,3448 30884,3448 30954,3448 30990,3500 30990,3566 30990,3650 30954,3683 30884,3683 30859,3683 30830,3672 30797,3672 30738,3672 30702,3705 30702,3770 30702,4033 30771,4449 30976,5199 31045,5451 31111,5488 31195,5488 31349,5488 31426,5210 31426,4635 31426,3836 31173,3803 31173,3566 Z"/>
   </g>
  </g>
  <g class="com.sun.star.drawing.ClosedBezierShape">
   <g id="id11">
    <rect class="BoundingBox" stroke="none" fill="none" x="32458" y="3447" width="1335" height="2302"/>
    <path fill="rgb(255,191,85)" stroke="none" d="M 33692,3448 C 33762,3448 33791,3500 33791,3570 33791,3621 33762,3686 33692,3686 33671,3686 33638,3675 33605,3675 33514,3675 33506,3789 33499,3905 33488,4073 33481,4270 33481,4468 33481,4772 33492,5075 33499,5290 33506,5462 33524,5524 33616,5524 33630,5524 33667,5517 33692,5517 33762,5517 33791,5571 33791,5630 33791,5696 33762,5747 33692,5747 33601,5747 33346,5736 33163,5736 32959,5736 32659,5747 32556,5747 32487,5747 32458,5696 32458,5630 32458,5571 32487,5517 32556,5517 32574,5517 32611,5524 32622,5524 32714,5524 32732,5462 32740,5290 32747,5075 32758,4772 32758,4471 32758,4274 32751,4077 32740,3909 32732,3792 32725,3675 32633,3675 32604,3675 32574,3686 32556,3686 32487,3686 32458,3621 32458,3570 32458,3500 32487,3448 32556,3448 32743,3448 32930,3459 33138,3459 33338,3459 33514,3448 33692,3448 Z"/>
   </g>
  </g>
  <g class="com.sun.star.drawing.ClosedBezierShape">
   <g id="id12">
    <rect class="BoundingBox" stroke="none" fill="none" x="34217" y="3447" width="2230" height="2302"/>
    <path fill="rgb(255,191,85)" stroke="none" d="M 34381,5524 C 34473,5524 34491,5462 34498,5290 34505,5068 34517,4758 34517,4438 34517,4252 34509,4062 34498,3902 34491,3785 34484,3672 34392,3672 34363,3672 34334,3683 34316,3683 34246,3683 34217,3632 34217,3566 34217,3500 34261,3448 34316,3448 34505,3448 34689,3464 34901,3464 35247,3464 36061,3448 36280,3448 36368,3448 36426,3497 36426,3573 36426,3632 36415,3734 36415,3873 36415,3978 36430,4088 36430,4132 36430,4208 36394,4270 36324,4270 36091,4270 35963,3679 35445,3679 35320,3679 35284,3792 35266,3909 35247,4037 35244,4186 35240,4336 35240,4391 35269,4424 35317,4424 35565,4424 35707,4161 35879,4161 35923,4161 35956,4190 35956,4270 35956,4340 35945,4416 35945,4548 35945,4732 35948,4805 35948,4871 35948,4955 35904,4969 35861,4969 35693,4969 35616,4646 35324,4646 35262,4646 35240,4683 35240,4743 35240,4947 35240,5159 35251,5290 35266,5451 35302,5509 35437,5509 35996,5509 36109,4896 36353,4896 36419,4896 36445,4951 36445,5013 36445,5057 36423,5170 36423,5276 36423,5433 36445,5542 36445,5612 36445,5692 36394,5747 36313,5747 36050,5747 35379,5725 34908,5725 34707,5725 34414,5747 34316,5747 34246,5747 34217,5696 34217,5626 34217,5561 34261,5513 34316,5513 34334,5513 34370,5524 34381,5524 Z"/>
   </g>
  </g>
  <g class="com.sun.star.drawing.ClosedBezierShape">
   <g id="id13">
    <rect class="BoundingBox" stroke="none" fill="none" x="36860" y="3447" width="1543" height="2809"/>
    <path fill="rgb(255,191,85)" stroke="none" d="M 38230,3671 C 38113,3671 38095,3722 38095,3996 38095,4747 38182,5061 38182,5429 38182,5918 37974,6254 37458,6254 37039,6254 36860,6010 36860,5641 36860,5356 37006,5177 37254,5177 37477,5177 37564,5327 37564,5517 37564,5714 37415,5787 37316,5787 37221,5787 37203,5834 37203,5871 37203,5929 37236,5969 37349,5969 37517,5969 37748,5904 37748,5542 37748,5279 37670,5185 37539,5090 37407,4995 37382,4907 37382,4683 37382,4508 37389,4014 37389,3897 37389,3744 37353,3671 37265,3671 37229,3671 37192,3682 37166,3682 37097,3682 37068,3631 37068,3565 37068,3481 37112,3448 37166,3448 37316,3448 37462,3455 37630,3455 37872,3455 38084,3448 38303,3448 38357,3448 38401,3481 38401,3565 38401,3631 38372,3682 38303,3682 38284,3682 38255,3671 38230,3671 Z"/>
   </g>
  </g>
  <g class="com.sun.star.drawing.ClosedBezierShape">
   <g id="id14">
    <rect class="BoundingBox" stroke="none" fill="none" x="38703" y="3444" width="2482" height="2305"/>
    <path fill="rgb(255,191,85)" stroke="none" d="M 39747,4834 C 40072,4834 40101,4776 40105,4683 40109,4530 40028,4124 39930,3927 39868,3803 39842,3778 39784,3778 39608,3778 39477,4249 39477,4639 39477,4783 39495,4834 39747,4834 Z M 38794,5747 C 38732,5747 38703,5721 38703,5644 38703,5407 39357,4420 39357,3843 39357,3708 39258,3672 39196,3672 39160,3672 39116,3686 39083,3686 39003,3686 38962,3624 38962,3562 38962,3504 39003,3445 39083,3445 39207,3445 39652,3471 39897,3471 40123,3471 40335,3448 40386,3448 40477,3448 40547,3500 40547,3628 40547,4084 40882,5086 41106,5488 41153,5571 41183,5608 41183,5659 41183,5707 41153,5747 41099,5747 41011,5747 40802,5721 40579,5721 40397,5721 39977,5747 39937,5747 39860,5747 39835,5696 39835,5630 39835,5564 39875,5513 39937,5513 39966,5513 39999,5524 40076,5524 40160,5524 40225,5466 40225,5312 40225,5079 40182,5061 39809,5061 39481,5061 39448,5104 39448,5214 39448,5433 39667,5488 39667,5626 39667,5692 39638,5747 39568,5747 39517,5747 39269,5721 39152,5721 39017,5721 38868,5747 38794,5747 Z"/>
   </g>
  </g>
 </g>
</svg>