<?xml version="1.0" encoding="UTF-8"?>
<!DOCTYPE svg PUBLIC "-//W3C//DTD SVG 1.1//EN" "http://www.w3.org/Graphics/SVG/1.1/DTD/svg11.dtd">
<svg version="1.2" width="126.25mm" height="126.25mm" viewBox="4851 4851 12625 12625" preserveAspectRatio="xMidYMid" fill-rule="evenodd" stroke-width="28.222" stroke-linejoin="round" xmlns="http://www.w3.org/2000/svg" xmlns:ooo="http://xml.openoffice.org/svg/export" xmlns:xlink="http://www.w3.org/1999/xlink" xmlns:presentation="http://sun.com/xmlns/staroffice/presentation" xmlns:smil="http://www.w3.org/2001/SMIL20/" xmlns:anim="urn:oasis:names:tc:opendocument:xmlns:animation:1.0" xmlns:svg="urn:oasis:names:tc:opendocument:xmlns:svg-compatible:1.0" xml:space="preserve">
 <defs class="EmbeddedBulletChars">
  <g id="bullet-char-template-57356" transform="scale(0.00048828125,-0.00048828125)">
   <path d="M 580,1141 L 1163,571 580,0 -4,571 580,1141 Z"/>
  </g>
  <g id="bullet-char-template-57354" transform="scale(0.00048828125,-0.00048828125)">
   <path d="M 8,1128 L 1137,1128 1137,0 8,0 8,1128 Z"/>
  </g>
  <g id="bullet-char-template-10146" transform="scale(0.00048828125,-0.00048828125)">
   <path d="M 174,0 L 602,739 174,1481 1456,739 174,0 Z M 1358,739 L 309,1346 659,739 1358,739 Z"/>
  </g>
  <g id="bullet-char-template-10132" transform="scale(0.00048828125,-0.00048828125)">
   <path d="M 2015,739 L 1276,0 717,0 1260,543 174,543 174,936 1260,936 717,1481 1274,1481 2015,739 Z"/>
  </g>
  <g id="bullet-char-template-10007" transform="scale(0.00048828125,-0.00048828125)">
   <path d="M 0,-2 C -7,14 -16,27 -25,37 L 356,567 C 262,823 215,952 215,954 215,979 228,992 255,992 264,992 276,990 289,987 310,991 331,999 354,1012 L 381,999 492,748 772,1049 836,1024 860,1049 C 881,1039 901,1025 922,1006 886,937 835,863 770,784 769,783 710,716 594,584 L 774,223 C 774,196 753,168 711,139 L 727,119 C 717,90 699,76 672,76 641,76 570,178 457,381 L 164,-76 C 142,-110 111,-127 72,-127 30,-127 9,-110 8,-76 1,-67 -2,-52 -2,-32 -2,-23 -1,-13 0,-2 Z"/>
  </g>
  <g id="bullet-char-template-10004" transform="scale(0.00048828125,-0.00048828125)">
   <path d="M 285,-33 C 182,-33 111,30 74,156 52,228 41,333 41,471 41,549 55,616 82,672 116,743 169,778 240,778 293,778 328,747 346,684 L 369,508 C 377,444 397,411 428,410 L 1163,1116 C 1174,1127 1196,1133 1229,1133 1271,1133 1292,1118 1292,1087 L 1292,965 C 1292,929 1282,901 1262,881 L 442,47 C 390,-6 338,-33 285,-33 Z"/>
  </g>
  <g id="bullet-char-template-9679" transform="scale(0.00048828125,-0.00048828125)">
   <path d="M 813,0 C 632,0 489,54 383,161 276,268 223,411 223,592 223,773 276,916 383,1023 489,1130 632,1184 813,1184 992,1184 1136,1130 1245,1023 1353,916 1407,772 1407,592 1407,412 1353,268 1245,161 1136,54 992,0 813,0 Z"/>
  </g>
  <g id="bullet-char-template-8226" transform="scale(0.00048828125,-0.00048828125)">
   <path d="M 346,457 C 273,457 209,483 155,535 101,586 74,649 74,723 74,796 101,859 155,911 209,963 273,989 346,989 419,989 480,963 531,910 582,859 608,796 608,723 608,648 583,586 532,535 482,483 420,457 346,457 Z"/>
  </g>
  <g id="bullet-char-template-8211" transform="scale(0.00048828125,-0.00048828125)">
   <path d="M -4,459 L 1135,459 1135,606 -4,606 -4,459 Z"/>
  </g>
  <g id="bullet-char-template-61548" transform="scale(0.00048828125,-0.00048828125)">
   <path d="M 173,740 C 173,903 231,1043 346,1159 462,1274 601,1332 765,1332 928,1332 1067,1274 1183,1159 1299,1043 1357,903 1357,740 1357,577 1299,437 1183,322 1067,206 928,148 765,148 601,148 462,206 346,322 231,437 173,577 173,740 Z"/>
  </g>
 </defs>
 <g class="Page">
  <g class="com.sun.star.drawing.ClosedBezierShape">
   <g id="id3">
    <rect class="BoundingBox" stroke="none" fill="none" x="4851" y="4851" width="12625" height="12625"/>
    <path fill="rgb(63,87,79)" stroke="none" d="M 11162,4852 C 7677,4852 4852,7677 4852,11163 4852,14648 7677,17474 11162,17474 14648,17474 17474,14648 17474,11163 17474,7677 14648,4852 11162,4852 Z"/>
   </g>
  </g>
  <g class="com.sun.star.drawing.ClosedBezierShape">
   <g id="id4">
    <rect class="BoundingBox" stroke="none" fill="none" x="7975" y="8124" width="6482" height="2786"/>
    <path fill="rgb(255,209,136)" stroke="none" d="M 14453,10852 L 14273,10231 C 14267,10211 14248,10198 14227,10199 14205,10201 14186,10187 14180,10166 14162,10095 14106,9940 13965,9867 13832,9799 13805,9701 13800,9650 13798,9630 13784,9614 13764,9610 L 13722,9602 C 13702,9598 13687,9581 13686,9561 L 13677,9400 C 13675,9378 13658,9360 13636,9358 L 13548,9349 C 13525,9347 13507,9328 13507,9305 L 13507,9142 C 13507,9124 13497,9108 13481,9101 L 11266,8136 C 11234,8121 11197,8121 11164,8136 L 8951,9101 C 8935,9108 8924,9124 8924,9142 L 8924,9305 C 8924,9328 8906,9347 8884,9349 L 8795,9358 C 8773,9360 8756,9378 8755,9400 L 8745,9561 C 8744,9581 8729,9598 8709,9602 L 8667,9610 C 8648,9614 8633,9630 8631,9650 8627,9701 8599,9799 8467,9867 8325,9940 8270,10095 8251,10166 8246,10187 8226,10201 8205,10199 8184,10198 8165,10211 8159,10231 L 7978,10852 C 7970,10881 7991,10909 8021,10909 L 8822,10909 9208,10908 C 9226,10908 9241,10894 9242,10875 9284,9813 10032,8970 11104,8970 L 11214,8966 C 11215,8966 11216,8966 11217,8966 L 11326,8970 C 12394,8970 13139,9804 13189,10858 13190,10886 13213,10908 13241,10908 L 14411,10909 C 14440,10909 14462,10881 14453,10852 Z"/>
   </g>
  </g>
  <g class="com.sun.star.drawing.ClosedBezierShape">
   <g id="id5">
    <rect class="BoundingBox" stroke="none" fill="none" x="8404" y="7797" width="5619" height="1342"/>
    <path fill="rgb(255,209,136)" stroke="none" d="M 8839,8991 C 8840,8990 8840,8989 8840,8987 8846,8986 8852,8985 8858,8982 L 9182,8842 C 9183,8841 9184,8840 9184,8838 9190,8837 9196,8836 9202,8833 L 9526,8693 C 9527,8693 9527,8691 9527,8690 9533,8689 9539,8687 9545,8684 L 9869,8544 C 9870,8544 9871,8542 9871,8541 9877,8540 9883,8538 9889,8536 L 10213,8395 C 10214,8395 10214,8393 10215,8392 10221,8391 10227,8389 10232,8387 L 10556,8246 C 10556,8246 10557,8245 10557,8243 10563,8242 10569,8240 10575,8238 L 10899,8097 C 10900,8097 10900,8096 10901,8094 10907,8093 10913,8091 10919,8089 L 11127,7999 11127,7999 11127,7999 11174,7978 C 11186,7975 11200,7972 11216,7972 11226,7972 11235,7974 11244,7975 L 11506,8089 C 11512,8091 11518,8093 11524,8094 11524,8096 11525,8097 11526,8097 L 11850,8238 C 11856,8240 11862,8242 11868,8243 11868,8245 11868,8246 11869,8246 L 12193,8387 C 12199,8389 12205,8391 12211,8392 12212,8393 12212,8395 12213,8395 L 12537,8536 C 12543,8538 12549,8540 12555,8541 12555,8542 12556,8544 12556,8544 L 12881,8684 C 12886,8687 12892,8689 12898,8690 12899,8691 12899,8693 12900,8693 L 13224,8833 C 13230,8836 13236,8837 13242,8838 13242,8840 13243,8841 13244,8842 L 13568,8982 C 13573,8985 13579,8986 13585,8987 13586,8989 13586,8990 13587,8991 L 13911,9131 C 13951,9148 13997,9130 14014,9090 14032,9051 14013,9004 13974,8987 L 13649,8847 C 13649,8846 13647,8847 13646,8848 13641,8844 13636,8841 13630,8838 L 13306,8698 C 13305,8697 13304,8698 13302,8699 13298,8695 13292,8692 13286,8689 L 12962,8549 C 12961,8549 12960,8549 12959,8550 12954,8546 12949,8543 12943,8541 L 12619,8400 C 12618,8400 12617,8400 12615,8401 12610,8398 12605,8394 12599,8392 L 12275,8251 C 12274,8251 12273,8251 12272,8252 12267,8249 12262,8245 12256,8243 L 11932,8102 C 11931,8102 11930,8102 11928,8103 11923,8100 11918,8096 11912,8094 L 11588,7953 C 11587,7953 11586,7954 11585,7955 11580,7951 11575,7948 11569,7945 L 11266,7814 C 11251,7804 11234,7798 11216,7798 11204,7798 11193,7801 11183,7805 11182,7805 11181,7804 11180,7805 L 10856,7945 C 10850,7948 10845,7951 10840,7955 10839,7954 10838,7953 10837,7953 L 10513,8094 C 10507,8096 10502,8100 10497,8103 10495,8102 10494,8102 10493,8102 L 10170,8243 C 10164,8245 10159,8249 10154,8252 10153,8251 10152,8251 10151,8251 L 9826,8392 C 9821,8394 9815,8398 9811,8401 9809,8400 9808,8400 9807,8400 L 9483,8541 C 9477,8543 9472,8546 9467,8550 9466,8549 9464,8549 9464,8549 L 9139,8689 C 9134,8692 9128,8695 9123,8699 9122,8698 9121,8697 9120,8698 L 8796,8838 C 8790,8841 8785,8844 8780,8848 8779,8847 8777,8846 8776,8847 L 8452,8987 C 8413,9004 8394,9051 8412,9090 8429,9130 8475,9148 8515,9131 L 8839,8991 Z"/>
   </g>
  </g>
  <g class="com.sun.star.drawing.ClosedBezierShape">
   <g id="id6">
    <rect class="BoundingBox" stroke="none" fill="none" x="6423" y="11566" width="1188" height="1326"/>
    <path fill="rgb(255,209,136)" stroke="none" d="M 6424,12245 C 6424,11837 6632,11571 7008,11571 7250,11571 7336,11719 7446,11719 7474,11719 7496,11707 7496,11675 7496,11655 7492,11633 7492,11627 7492,11585 7514,11567 7550,11567 7582,11567 7610,11585 7610,11627 7610,11649 7602,11775 7600,11857 7598,11923 7598,11997 7598,12047 7598,12103 7586,12143 7510,12147 7348,12147 7240,12077 7176,11917 7114,11761 7096,11691 7004,11691 6894,11691 6828,11813 6828,12093 6828,12425 6916,12617 7214,12617 7380,12617 7482,12553 7482,12427 7482,12387 7470,12351 7470,12329 7470,12291 7494,12261 7540,12261 7580,12261 7610,12281 7610,12333 7610,12663 7502,12891 7072,12891 6734,12891 6424,12785 6424,12245 Z"/>
   </g>
  </g>
  <g class="com.sun.star.drawing.ClosedBezierShape">
   <g id="id7">
    <rect class="BoundingBox" stroke="none" fill="none" x="7849" y="11598" width="1359" height="1264"/>
    <path fill="rgb(255,209,136)" stroke="none" d="M 8618,12277 C 8620,12193 8576,11971 8522,11863 8488,11795 8474,11781 8442,11781 8346,11781 8274,12039 8274,12253 8274,12333 8284,12361 8422,12361 8600,12361 8616,12329 8618,12277 Z M 7850,12805 C 7850,12675 8208,12133 8208,11817 8208,11743 8154,11723 8120,11723 8100,11723 8076,11731 8058,11731 8014,11731 7992,11697 7992,11663 7992,11631 8014,11599 8058,11599 8126,11599 8370,11613 8504,11613 8628,11613 8744,11601 8772,11601 8822,11601 8860,11629 8860,11699 8860,11949 9043,12499 9165,12719 9191,12765 9207,12785 9207,12813 9207,12839 9191,12861 9161,12861 9113,12861 8999,12847 8877,12847 8778,12847 8548,12861 8526,12861 8484,12861 8470,12833 8470,12797 8470,12761 8492,12733 8526,12733 8542,12733 8560,12739 8602,12739 8648,12739 8684,12707 8684,12623 8684,12495 8660,12485 8456,12485 8276,12485 8258,12509 8258,12569 8258,12689 8378,12719 8378,12795 8378,12831 8362,12861 8324,12861 8296,12861 8160,12847 8096,12847 8022,12847 7940,12861 7900,12861 7866,12861 7850,12847 7850,12805 Z"/>
   </g>
  </g>
  <g class="com.sun.star.drawing.ClosedBezierShape">
   <g id="id8">
    <rect class="BoundingBox" stroke="none" fill="none" x="9368" y="11592" width="1278" height="1270"/>
    <path fill="rgb(255,209,136)" stroke="none" d="M 9945,12373 C 9945,12431 9967,12443 10017,12443 10175,12443 10247,12295 10247,12007 10247,11803 10217,11725 10099,11725 9963,11725 9945,11801 9945,12373 Z M 9423,12733 C 9437,12733 9463,12739 9471,12739 9521,12739 9531,12705 9535,12611 9541,12491 9545,12327 9545,12159 9545,12051 9541,11943 9535,11849 9531,11785 9527,11723 9477,11723 9457,11723 9437,11729 9423,11729 9385,11729 9369,11701 9369,11665 9369,11629 9393,11601 9423,11601 9527,11601 9629,11605 9745,11605 9867,11605 10105,11593 10215,11593 10482,11593 10644,11715 10644,11993 10644,12391 10470,12469 10231,12517 9959,12571 9943,12577 9943,12657 9943,12717 9961,12739 10019,12739 10051,12739 10139,12723 10189,12723 10227,12723 10247,12755 10247,12797 10247,12825 10227,12861 10189,12861 10115,12861 9903,12857 9759,12857 9643,12857 9481,12861 9423,12861 9385,12861 9369,12833 9369,12797 9369,12761 9393,12733 9423,12733 Z"/>
   </g>
  </g>
  <g class="com.sun.star.drawing.ClosedBezierShape">
   <g id="id9">
    <rect class="BoundingBox" stroke="none" fill="none" x="10882" y="11600" width="732" height="1262"/>
    <path fill="rgb(255,209,136)" stroke="none" d="M 11612,11667 C 11612,11695 11596,11731 11558,11731 11546,11731 11528,11725 11510,11725 11460,11725 11456,11787 11452,11851 11446,11943 11442,12051 11442,12159 11442,12327 11448,12493 11452,12611 11456,12705 11466,12739 11516,12739 11524,12739 11544,12735 11558,12735 11596,12735 11612,12765 11612,12797 11612,12833 11596,12861 11558,12861 11508,12861 11368,12855 11268,12855 11156,12855 10992,12861 10936,12861 10898,12861 10882,12833 10882,12797 10882,12765 10898,12735 10936,12735 10946,12735 10966,12739 10972,12739 11022,12739 11032,12705 11036,12611 11040,12493 11046,12327 11046,12161 11046,12053 11042,11945 11036,11853 11032,11789 11028,11725 10978,11725 10962,11725 10946,11731 10936,11731 10898,11731 10882,11695 10882,11667 10882,11629 10898,11601 10936,11601 11038,11601 11140,11607 11254,11607 11364,11607 11460,11601 11558,11601 11596,11601 11612,11629 11612,11667 Z"/>
   </g>
  </g>
  <g class="com.sun.star.drawing.ClosedBezierShape">
   <g id="id10">
    <rect class="BoundingBox" stroke="none" fill="none" x="11844" y="11600" width="1110" height="1262"/>
    <path fill="rgb(255,209,136)" stroke="none" d="M 12416,11885 C 12402,12103 12406,12427 12414,12611 12418,12703 12438,12737 12504,12737 12690,12737 12776,12199 12900,12199 12934,12199 12952,12211 12952,12249 12952,12283 12940,12423 12940,12559 12940,12679 12952,12763 12952,12813 12952,12841 12924,12861 12904,12861 12786,12861 12454,12857 12224,12857 12114,12857 11952,12861 11898,12861 11860,12861 11844,12825 11844,12797 11844,12761 11868,12733 11898,12733 11910,12733 11930,12739 11936,12739 11986,12739 11996,12705 12000,12611 12008,12417 12014,12083 12000,11851 11996,11787 11992,11723 11942,11723 11926,11723 11910,11729 11898,11729 11860,11729 11844,11693 11844,11665 11844,11629 11868,11601 11898,11601 11998,11601 12098,11605 12210,11605 12376,11605 12520,11601 12672,11601 12704,11601 12728,11625 12728,11667 12728,11691 12714,11733 12672,11733 12648,11733 12612,11723 12566,11723 12440,11723 12422,11803 12416,11885 Z"/>
   </g>
  </g>
  <g class="com.sun.star.drawing.ClosedBezierShape">
   <g id="id11">
    <rect class="BoundingBox" stroke="none" fill="none" x="13208" y="11600" width="1110" height="1262"/>
    <path fill="rgb(255,209,136)" stroke="none" d="M 13780,11885 C 13766,12103 13770,12427 13778,12611 13782,12703 13802,12737 13868,12737 14054,12737 14140,12199 14264,12199 14298,12199 14316,12211 14316,12249 14316,12283 14304,12423 14304,12559 14304,12679 14316,12763 14316,12813 14316,12841 14288,12861 14268,12861 14150,12861 13818,12857 13588,12857 13478,12857 13316,12861 13262,12861 13224,12861 13208,12825 13208,12797 13208,12761 13232,12733 13262,12733 13274,12733 13294,12739 13300,12739 13350,12739 13360,12705 13364,12611 13372,12417 13378,12083 13364,11851 13360,11787 13356,11723 13306,11723 13290,11723 13274,11729 13262,11729 13224,11729 13208,11693 13208,11665 13208,11629 13232,11601 13262,11601 13362,11601 13462,11605 13574,11605 13740,11605 13884,11601 14036,11601 14068,11601 14092,11625 14092,11667 14092,11691 14078,11733 14036,11733 14012,11733 13976,11723 13930,11723 13804,11723 13786,11803 13780,11885 Z"/>
   </g>
  </g>
  <g class="com.sun.star.drawing.ClosedBezierShape">
   <g id="id12">
    <rect class="BoundingBox" stroke="none" fill="none" x="14506" y="11598" width="1360" height="1264"/>
    <path fill="rgb(255,209,136)" stroke="none" d="M 15274,12277 C 15276,12193 15232,11971 15178,11863 15144,11795 15130,11781 15098,11781 15002,11781 14930,12039 14930,12253 14930,12333 14940,12361 15078,12361 15256,12361 15272,12329 15274,12277 Z M 14506,12805 C 14506,12675 14864,12133 14864,11817 14864,11743 14810,11723 14776,11723 14756,11723 14732,11731 14714,11731 14670,11731 14648,11697 14648,11663 14648,11631 14670,11599 14714,11599 14782,11599 15026,11613 15160,11613 15284,11613 15400,11601 15428,11601 15478,11601 15516,11629 15516,11699 15516,11949 15700,12499 15822,12719 15848,12765 15864,12785 15864,12813 15864,12839 15848,12861 15818,12861 15770,12861 15656,12847 15534,12847 15434,12847 15204,12861 15182,12861 15140,12861 15126,12833 15126,12797 15126,12761 15148,12733 15182,12733 15198,12733 15216,12739 15258,12739 15304,12739 15340,12707 15340,12623 15340,12495 15316,12485 15112,12485 14932,12485 14914,12509 14914,12569 14914,12689 15034,12719 15034,12795 15034,12831 15018,12861 14980,12861 14952,12861 14816,12847 14752,12847 14678,12847 14596,12861 14556,12861 14522,12861 14506,12847 14506,12805 Z"/>
   </g>
  </g>
  <g class="com.sun.star.drawing.ClosedBezierShape">
   <g id="id13">
    <rect class="BoundingBox" stroke="none" fill="none" x="7933" y="13204" width="1371" height="1262"/>
    <path fill="rgb(255,209,136)" stroke="none" d="M 8812,13205 C 8838,13205 8900,13215 9015,13215 9141,13215 9197,13205 9239,13205 9281,13205 9303,13217 9303,13263 9303,13379 9133,13383 8963,14321 8948,14407 8949,14465 8878,14465 8832,14465 8690,14453 8600,14453 8478,14453 8362,14465 8346,14465 8284,14465 8264,14427 8254,14351 8230,14177 8142,13625 8048,13435 8000,13337 7934,13317 7934,13267 7934,13225 7954,13205 7992,13205 8042,13205 8178,13215 8322,13215 8400,13215 8578,13205 8596,13205 8634,13205 8654,13233 8654,13269 8654,13315 8634,13333 8596,13333 8582,13333 8566,13327 8548,13327 8516,13327 8496,13345 8496,13381 8496,13525 8534,13753 8646,14165 8684,14303 8720,14323 8766,14323 8850,14323 8892,14171 8892,13855 8892,13417 8754,13399 8754,13269 8754,13229 8772,13205 8812,13205 Z"/>
   </g>
  </g>
  <g class="com.sun.star.drawing.ClosedBezierShape">
   <g id="id14">
    <rect class="BoundingBox" stroke="none" fill="none" x="9456" y="13204" width="732" height="1262"/>
    <path fill="rgb(255,209,136)" stroke="none" d="M 10187,13271 C 10187,13299 10171,13335 10133,13335 10121,13335 10103,13329 10085,13329 10035,13329 10031,13391 10027,13455 10021,13547 10017,13655 10017,13763 10017,13931 10023,14097 10027,14215 10031,14309 10041,14343 10091,14343 10099,14343 10119,14339 10133,14339 10171,14339 10187,14369 10187,14401 10187,14437 10171,14465 10133,14465 10083,14465 9943,14459 9843,14459 9731,14459 9567,14465 9511,14465 9474,14465 9457,14437 9457,14401 9457,14369 9474,14339 9511,14339 9521,14339 9541,14343 9547,14343 9597,14343 9607,14309 9611,14215 9615,14097 9621,13931 9621,13765 9621,13657 9617,13549 9611,13457 9607,13393 9603,13329 9554,13329 9537,13329 9521,13335 9511,13335 9474,13335 9457,13299 9457,13271 9457,13233 9474,13205 9511,13205 9613,13205 9715,13211 9829,13211 9939,13211 10035,13205 10133,13205 10171,13205 10187,13233 10187,13271 Z"/>
   </g>
  </g>
  <g class="com.sun.star.drawing.ClosedBezierShape">
   <g id="id15">
    <rect class="BoundingBox" stroke="none" fill="none" x="10420" y="13204" width="1222" height="1262"/>
    <path fill="rgb(255,209,136)" stroke="none" d="M 10574,14215 C 10578,14093 10584,13923 10584,13747 10584,13645 10580,13541 10574,13453 10570,13389 10566,13327 10516,13327 10500,13327 10484,13333 10474,13333 10437,13333 10421,13305 10421,13269 10421,13233 10445,13205 10474,13205 10578,13205 10678,13213 10794,13213 10984,13213 11430,13205 11550,13205 11598,13205 11630,13231 11630,13273 11630,13305 11624,13361 11624,13437 11624,13495 11632,13555 11632,13579 11632,13621 11612,13655 11574,13655 11446,13655 11376,13331 11092,13331 11024,13331 11004,13393 10994,13457 10984,13527 10982,13609 10980,13691 10980,13721 10996,13739 11022,13739 11158,13739 11236,13595 11330,13595 11354,13595 11372,13611 11372,13655 11372,13693 11366,13735 11366,13807 11366,13909 11368,13949 11368,13985 11368,14031 11344,14039 11320,14039 11228,14039 11186,13861 11026,13861 10992,13861 10980,13881 10980,13915 10980,14027 10980,14143 10986,14215 10994,14303 11014,14335 11088,14335 11394,14335 11456,13999 11590,13999 11626,13999 11640,14029 11640,14063 11640,14087 11628,14149 11628,14207 11628,14293 11640,14353 11640,14391 11640,14435 11612,14465 11568,14465 11424,14465 11056,14453 10798,14453 10688,14453 10528,14465 10474,14465 10437,14465 10421,14437 10421,14399 10421,14363 10445,14337 10474,14337 10484,14337 10504,14343 10510,14343 10560,14343 10570,14309 10574,14215 Z"/>
   </g>
  </g>
  <g class="com.sun.star.drawing.ClosedBezierShape">
   <g id="id16">
    <rect class="BoundingBox" stroke="none" fill="none" x="11868" y="13204" width="846" height="1540"/>
    <path fill="rgb(255,209,136)" stroke="none" d="M 12544,13505 C 12544,13917 12592,14089 12592,14291 12592,14559 12478,14743 12196,14743 11966,14743 11868,14609 11868,14407 11868,14251 11948,14153 12084,14153 12206,14153 12254,14235 12254,14339 12254,14447 12172,14487 12118,14487 12066,14487 12056,14513 12056,14533 12056,14565 12074,14587 12136,14587 12228,14587 12354,14551 12354,14353 12354,14209 12312,14157 12240,14105 12168,14053 12154,14005 12154,13881 12154,13785 12158,13515 12158,13451 12158,13367 12138,13327 12090,13327 12070,13327 12050,13333 12036,13333 11998,13333 11982,13305 11982,13269 11982,13223 12006,13205 12036,13205 12118,13205 12198,13209 12290,13209 12422,13209 12538,13205 12658,13205 12688,13205 12712,13223 12712,13269 12712,13305 12696,13333 12658,13333 12648,13333 12632,13327 12618,13327 12554,13327 12544,13355 12544,13505 Z"/>
   </g>
  </g>
  <g class="com.sun.star.drawing.ClosedBezierShape">
   <g id="id17">
    <rect class="BoundingBox" stroke="none" fill="none" x="12878" y="13202" width="1360" height="1264"/>
    <path fill="rgb(255,209,136)" stroke="none" d="M 13646,13881 C 13648,13797 13604,13575 13550,13467 13516,13399 13502,13385 13470,13385 13374,13385 13302,13643 13302,13857 13302,13937 13312,13965 13450,13965 13628,13965 13644,13933 13646,13881 Z M 12878,14409 C 12878,14279 13236,13737 13236,13421 13236,13347 13182,13327 13148,13327 13128,13327 13104,13335 13086,13335 13042,13335 13020,13301 13020,13267 13020,13235 13042,13203 13086,13203 13154,13203 13398,13217 13532,13217 13656,13217 13772,13205 13800,13205 13850,13205 13888,13233 13888,13303 13888,13553 14072,14103 14194,14323 14220,14369 14236,14389 14236,14417 14236,14443 14220,14465 14190,14465 14142,14465 14028,14451 13906,14451 13806,14451 13576,14465 13554,14465 13512,14465 13498,14437 13498,14401 13498,14365 13520,14337 13554,14337 13570,14337 13588,14343 13630,14343 13676,14343 13712,14311 13712,14227 13712,14099 13688,14089 13484,14089 13304,14089 13286,14113 13286,14173 13286,14293 13406,14323 13406,14399 13406,14435 13390,14465 13352,14465 13324,14465 13188,14451 13124,14451 13050,14451 12968,14465 12928,14465 12894,14465 12878,14451 12878,14409 Z"/>
   </g>
  </g>
  <g class="com.sun.star.drawing.ClosedBezierShape">
   <g id="id18">
    <rect class="BoundingBox" stroke="none" fill="none" x="8449" y="15228" width="176" height="267"/>
    <path fill="rgb(255,209,136)" stroke="none" d="M 8450,15233 C 8450,15231 8452,15229 8454,15229 L 8493,15229 C 8495,15229 8496,15231 8496,15233 L 8496,15451 C 8496,15452 8497,15453 8499,15453 L 8621,15453 C 8623,15453 8624,15455 8624,15457 L 8624,15490 C 8624,15493 8623,15494 8621,15494 L 8454,15494 C 8452,15494 8450,15493 8450,15490 L 8450,15233 Z"/>
   </g>
  </g>
  <g class="com.sun.star.drawing.ClosedBezierShape">
   <g id="id19">
    <rect class="BoundingBox" stroke="none" fill="none" x="8678" y="15224" width="204" height="276"/>
    <path fill="rgb(255,209,136)" stroke="none" d="M 8829,15423 C 8832,15413 8834,15399 8834,15362 8834,15324 8832,15311 8829,15301 8822,15279 8806,15266 8780,15266 8754,15266 8738,15279 8731,15301 8727,15311 8726,15324 8726,15362 8726,15399 8727,15413 8731,15423 8738,15444 8754,15457 8780,15457 8806,15457 8822,15444 8829,15423 Z M 8679,15362 C 8679,15320 8681,15305 8686,15289 8700,15247 8734,15225 8780,15225 8826,15225 8860,15247 8874,15289 8879,15305 8881,15320 8881,15362 8881,15403 8879,15418 8874,15435 8860,15477 8826,15499 8780,15499 8734,15499 8700,15477 8686,15435 8681,15418 8679,15403 8679,15362 Z"/>
   </g>
  </g>
  <g class="com.sun.star.drawing.ClosedBezierShape">
   <g id="id20">
    <rect class="BoundingBox" stroke="none" fill="none" x="8948" y="15224" width="201" height="276"/>
    <path fill="rgb(255,209,136)" stroke="none" d="M 8950,15458 L 8974,15430 C 8976,15428 8978,15428 8979,15429 8997,15443 9022,15457 9052,15457 9083,15457 9102,15441 9102,15419 9102,15400 9090,15388 9053,15382 L 9039,15380 C 8988,15373 8959,15349 8959,15305 8959,15257 8994,15225 9049,15225 9082,15225 9114,15235 9135,15251 9137,15253 9137,15255 9135,15257 L 9117,15286 C 9115,15288 9113,15288 9111,15287 9090,15273 9070,15266 9048,15266 9021,15266 9006,15281 9006,15302 9006,15320 9019,15332 9055,15338 L 9069,15340 C 9120,15347 9148,15371 9148,15416 9148,15464 9114,15499 9048,15499 9009,15499 8971,15483 8951,15464 8949,15462 8948,15460 8950,15458 Z"/>
   </g>
  </g>
  <g class="com.sun.star.drawing.ClosedBezierShape">
   <g id="id21">
    <rect class="BoundingBox" stroke="none" fill="none" x="9351" y="15228" width="199" height="267"/>
    <path fill="rgb(255,209,136)" stroke="none" d="M 9457,15271 L 9400,15271 C 9399,15271 9398,15271 9398,15273 L 9398,15343 C 9398,15345 9399,15346 9400,15346 L 9457,15346 C 9481,15346 9497,15331 9497,15308 9497,15285 9481,15271 9457,15271 Z M 9503,15494 C 9499,15494 9498,15493 9497,15490 L 9446,15387 9400,15387 C 9399,15387 9398,15388 9398,15389 L 9398,15490 C 9398,15493 9397,15494 9394,15494 L 9356,15494 C 9354,15494 9352,15493 9352,15490 L 9352,15233 C 9352,15231 9354,15229 9356,15229 L 9459,15229 C 9507,15229 9543,15262 9543,15308 9543,15343 9523,15370 9493,15381 L 9549,15489 C 9550,15492 9549,15494 9546,15494 L 9503,15494 Z"/>
   </g>
  </g>
  <g class="com.sun.star.drawing.ClosedBezierShape">
   <g id="id22">
    <rect class="BoundingBox" stroke="none" fill="none" x="9626" y="15228" width="176" height="267"/>
    <path fill="rgb(255,209,136)" stroke="none" d="M 9627,15233 C 9627,15231 9628,15229 9631,15229 L 9797,15229 C 9799,15229 9801,15231 9801,15233 L 9801,15267 C 9801,15269 9799,15271 9797,15271 L 9675,15271 C 9673,15271 9673,15271 9673,15273 L 9673,15338 C 9673,15339 9673,15340 9675,15340 L 9778,15340 C 9780,15340 9781,15341 9781,15344 L 9781,15377 C 9781,15380 9780,15381 9778,15381 L 9675,15381 C 9673,15381 9673,15382 9673,15384 L 9673,15451 C 9673,15452 9673,15453 9675,15453 L 9797,15453 C 9799,15453 9801,15455 9801,15457 L 9801,15490 C 9801,15493 9799,15494 9797,15494 L 9631,15494 C 9628,15494 9627,15493 9627,15490 L 9627,15233 Z"/>
   </g>
  </g>
  <g class="com.sun.star.drawing.ClosedBezierShape">
   <g id="id23">
    <rect class="BoundingBox" stroke="none" fill="none" x="9859" y="15228" width="229" height="267"/>
    <path fill="rgb(255,209,136)" stroke="none" d="M 10009,15398 L 9974,15295 9973,15295 9937,15398 10009,15398 Z M 9951,15233 C 9952,15231 9953,15229 9956,15229 L 9992,15229 C 9995,15229 9996,15231 9997,15233 L 10087,15490 C 10087,15493 10087,15494 10084,15494 L 10046,15494 C 10043,15494 10041,15493 10041,15490 L 10023,15439 9923,15439 9906,15490 C 9905,15493 9903,15494 9901,15494 L 9863,15494 C 9860,15494 9859,15493 9860,15490 L 9951,15233 Z"/>
   </g>
  </g>
  <g class="com.sun.star.drawing.ClosedBezierShape">
   <g id="id24">
    <rect class="BoundingBox" stroke="none" fill="none" x="10155" y="15228" width="199" height="267"/>
    <path fill="rgb(255,209,136)" stroke="none" d="M 10261,15271 L 10204,15271 C 10203,15271 10202,15271 10202,15273 L 10202,15343 C 10202,15345 10203,15346 10204,15346 L 10261,15346 C 10285,15346 10302,15331 10302,15308 10302,15285 10285,15271 10261,15271 Z M 10307,15494 C 10303,15494 10302,15493 10301,15490 L 10250,15387 10204,15387 C 10203,15387 10202,15388 10202,15389 L 10202,15490 C 10202,15493 10201,15494 10198,15494 L 10160,15494 C 10158,15494 10156,15493 10156,15490 L 10156,15233 C 10156,15231 10158,15229 10160,15229 L 10263,15229 C 10311,15229 10347,15262 10347,15308 10347,15343 10327,15370 10297,15381 L 10353,15489 C 10354,15492 10353,15494 10350,15494 L 10307,15494 Z"/>
   </g>
  </g>
  <g class="com.sun.star.drawing.ClosedBezierShape">
   <g id="id25">
    <rect class="BoundingBox" stroke="none" fill="none" x="10408" y="15228" width="199" height="267"/>
    <path fill="rgb(255,209,136)" stroke="none" d="M 10487,15494 C 10485,15494 10484,15493 10484,15490 L 10484,15273 C 10484,15271 10483,15271 10481,15271 L 10413,15271 C 10410,15271 10409,15269 10409,15267 L 10409,15233 C 10409,15231 10410,15229 10413,15229 L 10601,15229 C 10604,15229 10605,15231 10605,15233 L 10605,15267 C 10605,15269 10604,15271 10601,15271 L 10532,15271 C 10530,15271 10530,15271 10530,15273 L 10530,15490 C 10530,15493 10528,15494 10526,15494 L 10487,15494 Z"/>
   </g>
  </g>
  <g class="com.sun.star.drawing.ClosedBezierShape">
   <g id="id26">
    <rect class="BoundingBox" stroke="none" fill="none" x="10676" y="15228" width="176" height="267"/>
    <path fill="rgb(255,209,136)" stroke="none" d="M 10676,15233 C 10676,15231 10678,15229 10680,15229 L 10846,15229 C 10849,15229 10850,15231 10850,15233 L 10850,15267 C 10850,15269 10849,15271 10846,15271 L 10725,15271 C 10723,15271 10722,15271 10722,15273 L 10722,15338 C 10722,15339 10723,15340 10725,15340 L 10827,15340 C 10829,15340 10831,15341 10831,15344 L 10831,15377 C 10831,15380 10829,15381 10827,15381 L 10725,15381 C 10723,15381 10722,15382 10722,15384 L 10722,15451 C 10722,15452 10723,15453 10725,15453 L 10846,15453 C 10849,15453 10850,15455 10850,15457 L 10850,15490 C 10850,15493 10849,15494 10846,15494 L 10680,15494 C 10678,15494 10676,15493 10676,15490 L 10676,15233 Z"/>
   </g>
  </g>
  <g class="com.sun.star.drawing.ClosedBezierShape">
   <g id="id27">
    <rect class="BoundingBox" stroke="none" fill="none" x="10916" y="15224" width="201" height="276"/>
    <path fill="rgb(255,209,136)" stroke="none" d="M 10917,15458 L 10941,15430 C 10943,15428 10945,15428 10947,15429 10964,15443 10989,15457 11019,15457 11050,15457 11069,15441 11069,15419 11069,15400 11057,15388 11020,15382 L 11006,15380 C 10955,15373 10926,15349 10926,15305 10926,15257 10961,15225 11016,15225 11049,15225 11081,15235 11102,15251 11104,15253 11104,15255 11103,15257 L 11084,15286 C 11082,15288 11080,15288 11078,15287 11057,15273 11037,15266 11015,15266 10988,15266 10973,15281 10973,15302 10973,15320 10986,15332 11022,15338 L 11036,15340 C 11087,15347 11115,15371 11115,15416 11115,15464 11081,15499 11015,15499 10976,15499 10938,15483 10918,15464 10916,15462 10915,15460 10917,15458 Z"/>
   </g>
  </g>
  <g class="com.sun.star.drawing.ClosedBezierShape">
   <g id="id28">
    <rect class="BoundingBox" stroke="none" fill="none" x="11930" y="15224" width="190" height="276"/>
    <path fill="rgb(255,209,136)" stroke="none" d="M 11937,15290 C 11950,15247 11984,15225 12029,15225 12071,15225 12103,15247 12118,15282 12119,15284 12118,15286 12116,15286 L 12083,15302 C 12081,15304 12079,15302 12078,15301 12070,15282 12055,15266 12029,15266 12003,15266 11989,15280 11981,15301 11978,15312 11976,15323 11976,15362 11976,15401 11978,15411 11981,15422 11989,15444 12003,15457 12029,15457 12055,15457 12070,15442 12078,15423 12079,15421 12081,15420 12083,15421 L 12116,15437 C 12118,15438 12119,15440 12118,15442 12103,15477 12071,15499 12029,15499 11984,15499 11950,15477 11937,15434 11931,15417 11930,15404 11930,15362 11930,15320 11931,15306 11937,15290 Z"/>
   </g>
  </g>
  <g class="com.sun.star.drawing.ClosedBezierShape">
   <g id="id29">
    <rect class="BoundingBox" stroke="none" fill="none" x="12187" y="15147" width="204" height="353"/>
    <path fill="rgb(255,209,136)" stroke="none" d="M 12267,15198 C 12265,15198 12264,15196 12266,15194 L 12300,15152 C 12302,15150 12304,15148 12308,15148 L 12346,15148 C 12348,15148 12350,15150 12348,15152 L 12302,15194 C 12299,15197 12298,15198 12295,15198 L 12267,15198 Z M 12342,15362 C 12342,15324 12340,15311 12337,15301 12330,15279 12314,15266 12288,15266 12262,15266 12246,15279 12239,15301 12236,15311 12234,15324 12234,15362 12234,15399 12236,15413 12239,15423 12246,15444 12262,15457 12288,15457 12314,15457 12330,15444 12337,15423 12340,15413 12342,15399 12342,15362 Z M 12187,15362 C 12187,15320 12189,15305 12194,15289 12208,15247 12242,15225 12288,15225 12334,15225 12368,15247 12382,15289 12387,15305 12389,15320 12389,15362 12389,15403 12387,15418 12382,15435 12368,15477 12334,15499 12288,15499 12242,15499 12208,15477 12194,15435 12189,15418 12187,15403 12187,15362 Z"/>
   </g>
  </g>
  <g class="com.sun.star.drawing.ClosedBezierShape">
   <g id="id30">
    <rect class="BoundingBox" stroke="none" fill="none" x="12473" y="15228" width="199" height="267"/>
    <path fill="rgb(255,209,136)" stroke="none" d="M 12578,15271 L 12521,15271 C 12519,15271 12519,15271 12519,15273 L 12519,15343 C 12519,15345 12519,15346 12521,15346 L 12578,15346 C 12602,15346 12618,15331 12618,15308 12618,15285 12602,15271 12578,15271 Z M 12623,15494 C 12620,15494 12619,15493 12617,15490 L 12567,15387 12521,15387 C 12519,15387 12519,15388 12519,15389 L 12519,15490 C 12519,15493 12517,15494 12515,15494 L 12477,15494 C 12474,15494 12473,15493 12473,15490 L 12473,15233 C 12473,15231 12474,15229 12477,15229 L 12579,15229 C 12628,15229 12664,15262 12664,15308 12664,15343 12644,15370 12613,15381 L 12669,15489 C 12671,15492 12669,15494 12667,15494 L 12623,15494 Z"/>
   </g>
  </g>
  <g class="com.sun.star.drawing.ClosedBezierShape">
   <g id="id31">
    <rect class="BoundingBox" stroke="none" fill="none" x="12747" y="15228" width="196" height="267"/>
    <path fill="rgb(255,209,136)" stroke="none" d="M 12835,15453 C 12864,15453 12882,15443 12890,15419 12893,15412 12895,15400 12895,15362 12895,15323 12893,15311 12890,15304 12882,15280 12864,15271 12835,15271 L 12796,15271 C 12794,15271 12793,15271 12793,15273 L 12793,15451 C 12793,15452 12794,15453 12796,15453 L 12835,15453 Z M 12747,15233 C 12747,15231 12749,15229 12751,15229 L 12846,15229 C 12892,15229 12922,15249 12934,15288 12939,15301 12941,15316 12941,15362 12941,15408 12939,15422 12934,15435 12922,15474 12892,15494 12846,15494 L 12751,15494 C 12749,15494 12747,15493 12747,15490 L 12747,15233 Z"/>
   </g>
  </g>
  <g class="com.sun.star.drawing.ClosedBezierShape">
   <g id="id32">
    <rect class="BoundingBox" stroke="none" fill="none" x="13017" y="15224" width="203" height="276"/>
    <path fill="rgb(255,209,136)" stroke="none" d="M 13167,15423 C 13170,15413 13171,15399 13171,15362 13171,15324 13170,15311 13167,15301 13159,15279 13144,15266 13117,15266 13091,15266 13075,15279 13068,15301 13065,15311 13063,15324 13063,15362 13063,15399 13065,15413 13068,15423 13075,15444 13091,15457 13117,15457 13144,15457 13159,15444 13167,15423 Z M 13017,15362 C 13017,15320 13018,15305 13024,15289 13037,15247 13071,15225 13117,15225 13163,15225 13197,15247 13211,15289 13217,15305 13218,15320 13218,15362 13218,15403 13217,15418 13211,15435 13197,15477 13163,15499 13117,15499 13071,15499 13037,15477 13024,15435 13018,15418 13017,15403 13017,15362 Z"/>
   </g>
  </g>
  <g class="com.sun.star.drawing.ClosedBezierShape">
   <g id="id33">
    <rect class="BoundingBox" stroke="none" fill="none" x="13302" y="15228" width="192" height="267"/>
    <path fill="rgb(255,209,136)" stroke="none" d="M 13406,15454 C 13432,15454 13446,15439 13446,15417 13446,15395 13432,15380 13406,15380 L 13350,15380 C 13349,15380 13348,15381 13348,15382 L 13348,15451 C 13348,15453 13349,15454 13350,15454 L 13406,15454 Z M 13403,15340 C 13427,15340 13441,15325 13441,15305 13441,15284 13427,15270 13403,15270 L 13350,15270 C 13349,15270 13348,15271 13348,15272 L 13348,15337 C 13348,15339 13349,15340 13350,15340 L 13403,15340 Z M 13302,15233 C 13302,15231 13304,15229 13306,15229 L 13405,15229 C 13461,15229 13487,15257 13487,15300 13487,15330 13473,15347 13456,15356 L 13456,15357 C 13473,15363 13492,15384 13492,15416 13492,15469 13459,15494 13401,15494 L 13306,15494 C 13304,15494 13302,15493 13302,15490 L 13302,15233 Z"/>
   </g>
  </g>
  <g class="com.sun.star.drawing.ClosedBezierShape">
   <g id="id34">
    <rect class="BoundingBox" stroke="none" fill="none" x="13546" y="15228" width="230" height="267"/>
    <path fill="rgb(255,209,136)" stroke="none" d="M 13696,15398 L 13661,15295 13660,15295 13624,15398 13696,15398 Z M 13638,15233 C 13639,15231 13640,15229 13643,15229 L 13679,15229 C 13682,15229 13683,15231 13684,15233 L 13774,15490 C 13774,15493 13774,15494 13771,15494 L 13733,15494 C 13730,15494 13728,15493 13728,15490 L 13710,15439 13610,15439 13593,15490 C 13592,15493 13590,15494 13588,15494 L 13550,15494 C 13547,15494 13546,15493 13547,15490 L 13638,15233 Z"/>
   </g>
  </g>
  <g class="com.sun.star.drawing.ClosedBezierShape">
   <g id="id35">
    <rect class="BoundingBox" stroke="none" fill="none" x="11460" y="15336" width="130" height="49"/>
    <path fill="rgb(255,209,136)" stroke="none" d="M 11484,15384 C 11471,15384 11460,15373 11460,15360 11460,15347 11471,15337 11484,15337 L 11565,15337 C 11578,15337 11588,15347 11588,15360 11588,15373 11578,15384 11565,15384 L 11484,15384 Z"/>
   </g>
  </g>
  <g class="com.sun.star.drawing.ClosedBezierShape">
   <g id="id36">
    <rect class="BoundingBox" stroke="none" fill="none" x="8580" y="6993" width="965" height="719"/>
    <path fill="rgb(255,209,136)" stroke="none" d="M 9481,7236 C 9483,7240 9493,7262 9509,7301 9526,7344 9538,7377 9544,7398 9545,7401 9544,7405 9540,7410 9536,7414 9532,7418 9528,7420 9499,7433 9456,7452 9399,7479 9341,7505 9298,7525 9269,7538 9172,7581 9092,7617 9028,7645 9014,7651 8992,7661 8961,7675 8933,7687 8911,7697 8895,7705 8888,7708 8881,7709 8872,7710 8861,7711 8852,7709 8850,7704 8843,7693 8844,7685 8850,7678 8851,7677 8858,7673 8872,7664 8883,7659 8902,7648 8929,7633 8958,7614 8967,7596 8956,7579 8939,7556 8911,7515 8871,7456 8856,7433 8836,7399 8809,7353 8780,7301 8759,7266 8749,7249 8744,7242 8737,7237 8724,7235 8715,7233 8707,7233 8703,7235 8664,7253 8639,7263 8625,7268 8617,7270 8610,7273 8602,7275 8594,7275 8587,7271 8582,7262 8580,7259 8581,7254 8585,7248 8591,7242 8599,7236 8611,7231 8632,7221 8678,7205 8748,7183 8812,7162 8853,7147 8872,7137 8953,7085 9007,7051 9036,7039 9037,7038 9053,7032 9082,7019 9110,7006 9125,7000 9127,6999 9143,6992 9153,6991 9159,7000 9166,7011 9153,7026 9119,7041 9117,7042 9107,7048 9088,7059 9069,7070 9059,7075 9057,7076 9036,7086 9030,7096 9038,7108 9069,7150 9109,7211 9159,7291 9176,7319 9197,7355 9222,7402 9247,7448 9259,7473 9260,7474 9266,7483 9274,7486 9285,7483 9288,7481 9291,7479 9295,7478 9320,7466 9342,7451 9359,7429 9375,7410 9394,7378 9416,7334 9421,7324 9427,7314 9432,7303 9435,7295 9436,7282 9433,7266 9429,7242 9431,7229 9439,7226 9458,7217 9471,7221 9481,7236 Z"/>
   </g>
  </g>
  <g class="com.sun.star.drawing.ClosedBezierShape">
   <g id="id37">
    <rect class="BoundingBox" stroke="none" fill="none" x="9675" y="6767" width="827" height="549"/>
    <path fill="rgb(255,209,136)" stroke="none" d="M 10495,6978 C 10515,7073 10481,7150 10397,7209 10329,7255 10233,7287 10110,7307 10003,7323 9912,7314 9834,7279 9750,7241 9699,7179 9681,7092 9663,7005 9692,6932 9768,6875 9831,6828 9918,6795 10030,6778 10145,6760 10244,6765 10324,6793 10419,6825 10477,6887 10495,6978 Z M 10052,6817 C 10026,6821 10013,6852 10010,6910 10009,6950 10012,6989 10020,7025 10030,7074 10043,7120 10061,7164 10088,7233 10116,7265 10142,7261 10192,7253 10202,7178 10173,7037 10140,6882 10101,6809 10052,6817 Z"/>
   </g>
  </g>
  <g class="com.sun.star.drawing.ClosedBezierShape">
   <g id="id38">
    <rect class="BoundingBox" stroke="none" fill="none" x="10710" y="6697" width="940" height="551"/>
    <path fill="rgb(255,209,136)" stroke="none" d="M 11646,6893 C 11645,6901 11642,6908 11633,6914 11625,6920 11616,6923 11607,6922 11595,6922 11587,6912 11582,6890 11579,6876 11574,6865 11569,6857 11565,6852 11555,6842 11538,6827 11516,6806 11491,6789 11461,6775 11431,6761 11405,6754 11382,6753 11365,6752 11355,6761 11354,6779 11356,6820 11357,6880 11357,6960 11355,6986 11351,7024 11344,7077 11338,7121 11335,7148 11336,7155 11337,7173 11357,7183 11397,7185 11410,7186 11438,7191 11481,7199 11504,7204 11517,7215 11515,7232 11515,7243 11500,7248 11473,7247 11470,7247 11454,7247 11425,7246 11395,7245 11379,7245 11377,7245 11371,7245 11341,7244 11287,7243 11240,7242 11210,7241 11198,7242 11152,7240 11082,7238 10988,7235 10903,7233 10856,7232 10848,7232 10831,7231 10823,7224 10824,7212 10825,7201 10838,7194 10863,7190 10885,7190 10917,7187 10958,7184 10985,7181 10999,7173 11000,7161 11000,7146 11000,7119 10998,7079 10996,7037 10996,7009 10996,6995 10998,6964 11000,6933 11005,6900 11010,6863 11014,6839 11015,6826 11017,6799 11008,6785 10989,6784 10952,6782 10908,6789 10859,6806 10831,6815 10809,6827 10793,6841 10784,6849 10776,6863 10771,6881 10766,6895 10756,6902 10739,6901 10717,6900 10708,6882 10711,6846 L 10716,6771 C 10719,6738 10727,6717 10740,6709 10754,6700 10785,6697 10836,6698 10830,6698 10881,6710 10987,6735 11077,6744 11163,6749 11243,6749 11293,6747 11368,6740 11467,6729 11558,6721 11603,6717 11603,6717 11625,6718 11638,6727 11641,6745 11642,6748 11644,6782 11648,6845 L 11646,6893 Z"/>
   </g>
  </g>
  <g class="com.sun.star.drawing.ClosedBezierShape">
   <g id="id39">
    <rect class="BoundingBox" stroke="none" fill="none" x="11778" y="6747" width="874" height="649"/>
    <path fill="rgb(255,209,136)" stroke="none" d="M 12608,7230 C 12602,7256 12592,7282 12579,7309 12566,7334 12552,7359 12538,7384 12532,7396 12509,7398 12468,7391 12446,7387 12403,7379 12339,7368 12275,7357 12232,7349 12210,7345 12077,7322 11968,7303 11885,7288 L 11797,7273 C 11791,7272 11786,7268 11782,7262 11779,7257 11777,7253 11778,7249 11781,7240 11788,7235 11800,7234 11805,7234 11815,7234 11831,7237 11842,7239 11859,7242 11884,7246 11923,7252 11945,7238 11952,7207 11954,7196 11959,7167 11967,7119 11974,7081 11981,7046 11989,7013 11989,7013 11996,6989 12010,6943 12024,6897 12032,6871 12033,6865 12038,6848 12030,6832 12012,6819 12006,6815 11980,6806 11936,6794 11901,6783 11884,6773 11886,6764 11890,6751 11899,6745 11913,6748 11907,6747 11938,6753 12007,6765 12077,6777 12151,6790 12229,6804 12338,6823 12422,6837 12476,6847 12531,6856 12581,6865 12624,6873 12643,6876 12651,6890 12650,6913 12650,6919 12646,6936 12639,6965 12634,6986 12622,7013 12605,7046 12597,7060 12588,7067 12576,7066 12570,7065 12565,7062 12561,7057 12558,7052 12557,7045 12558,7037 12561,7026 12562,7018 12561,7010 12555,6972 12533,6940 12495,6915 12466,6895 12431,6881 12391,6874 12387,6873 12382,6874 12377,6878 12373,6881 12370,6886 12369,6889 12365,6905 12361,6922 12357,6942 12349,6980 12343,7009 12338,7028 12334,7045 12340,7055 12359,7058 12361,7058 12370,7058 12388,7060 12406,7061 12415,7062 12417,7063 12443,7067 12465,7075 12484,7084 12498,7091 12502,7107 12497,7132 12493,7148 12480,7174 12459,7212 12449,7228 12439,7235 12429,7233 12417,7231 12412,7226 12414,7218 12414,7215 12415,7212 12417,7207 12418,7201 12420,7198 12420,7195 12425,7179 12419,7160 12404,7139 12388,7114 12367,7100 12340,7095 12336,7094 12330,7097 12322,7102 12315,7128 12304,7167 12286,7220 12269,7272 12261,7298 12261,7296 12259,7306 12263,7313 12274,7315 12315,7322 12371,7313 12442,7288 12491,7271 12527,7254 12550,7238 12557,7233 12564,7225 12569,7215 12575,7205 12582,7201 12593,7203 12600,7204 12604,7209 12607,7216 12609,7221 12609,7226 12608,7230 Z"/>
   </g>
  </g>
  <g class="com.sun.star.drawing.ClosedBezierShape">
   <g id="id40">
    <rect class="BoundingBox" stroke="none" fill="none" x="12849" y="7047" width="812" height="577"/>
    <path fill="rgb(255,209,136)" stroke="none" d="M 13633,7470 C 13589,7560 13513,7610 13404,7620 13318,7629 13217,7613 13101,7573 13001,7539 12930,7489 12887,7424 12841,7353 12837,7277 12877,7195 12917,7113 12987,7065 13088,7051 13171,7040 13265,7053 13369,7089 13478,7126 13557,7175 13607,7235 13666,7306 13675,7384 13633,7470 Z M 13363,7131 C 13339,7123 13308,7143 13269,7192 13242,7225 13221,7259 13204,7293 13182,7339 13164,7384 13150,7429 13130,7500 13133,7539 13157,7548 13205,7564 13261,7506 13326,7373 13397,7228 13409,7147 13363,7131 Z"/>
   </g>
  </g>
 </g>
</svg>