<?xml version="1.0" encoding="UTF-8"?>
<!DOCTYPE svg PUBLIC "-//W3C//DTD SVG 1.1//EN" "http://www.w3.org/Graphics/SVG/1.1/DTD/svg11.dtd">
<svg version="1.2" width="88.78mm" height="88.79mm" viewBox="504 178 8878 8879" preserveAspectRatio="xMidYMid" fill-rule="evenodd" stroke-width="28.222" stroke-linejoin="round" xmlns="http://www.w3.org/2000/svg" xmlns:ooo="http://xml.openoffice.org/svg/export" xmlns:xlink="http://www.w3.org/1999/xlink" xmlns:presentation="http://sun.com/xmlns/staroffice/presentation" xmlns:smil="http://www.w3.org/2001/SMIL20/" xmlns:anim="urn:oasis:names:tc:opendocument:xmlns:animation:1.0" xmlns:svg="urn:oasis:names:tc:opendocument:xmlns:svg-compatible:1.0" xml:space="preserve">
 <defs class="EmbeddedBulletChars">
  <g id="bullet-char-template-57356" transform="scale(0.00048828125,-0.00048828125)">
   <path d="M 580,1141 L 1163,571 580,0 -4,571 580,1141 Z"/>
  </g>
  <g id="bullet-char-template-57354" transform="scale(0.00048828125,-0.00048828125)">
   <path d="M 8,1128 L 1137,1128 1137,0 8,0 8,1128 Z"/>
  </g>
  <g id="bullet-char-template-10146" transform="scale(0.00048828125,-0.00048828125)">
   <path d="M 174,0 L 602,739 174,1481 1456,739 174,0 Z M 1358,739 L 309,1346 659,739 1358,739 Z"/>
  </g>
  <g id="bullet-char-template-10132" transform="scale(0.00048828125,-0.00048828125)">
   <path d="M 2015,739 L 1276,0 717,0 1260,543 174,543 174,936 1260,936 717,1481 1274,1481 2015,739 Z"/>
  </g>
  <g id="bullet-char-template-10007" transform="scale(0.00048828125,-0.00048828125)">
   <path d="M 0,-2 C -7,14 -16,27 -25,37 L 356,567 C 262,823 215,952 215,954 215,979 228,992 255,992 264,992 276,990 289,987 310,991 331,999 354,1012 L 381,999 492,748 772,1049 836,1024 860,1049 C 881,1039 901,1025 922,1006 886,937 835,863 770,784 769,783 710,716 594,584 L 774,223 C 774,196 753,168 711,139 L 727,119 C 717,90 699,76 672,76 641,76 570,178 457,381 L 164,-76 C 142,-110 111,-127 72,-127 30,-127 9,-110 8,-76 1,-67 -2,-52 -2,-32 -2,-23 -1,-13 0,-2 Z"/>
  </g>
  <g id="bullet-char-template-10004" transform="scale(0.00048828125,-0.00048828125)">
   <path d="M 285,-33 C 182,-33 111,30 74,156 52,228 41,333 41,471 41,549 55,616 82,672 116,743 169,778 240,778 293,778 328,747 346,684 L 369,508 C 377,444 397,411 428,410 L 1163,1116 C 1174,1127 1196,1133 1229,1133 1271,1133 1292,1118 1292,1087 L 1292,965 C 1292,929 1282,901 1262,881 L 442,47 C 390,-6 338,-33 285,-33 Z"/>
  </g>
  <g id="bullet-char-template-9679" transform="scale(0.00048828125,-0.00048828125)">
   <path d="M 813,0 C 632,0 489,54 383,161 276,268 223,411 223,592 223,773 276,916 383,1023 489,1130 632,1184 813,1184 992,1184 1136,1130 1245,1023 1353,916 1407,772 1407,592 1407,412 1353,268 1245,161 1136,54 992,0 813,0 Z"/>
  </g>
  <g id="bullet-char-template-8226" transform="scale(0.00048828125,-0.00048828125)">
   <path d="M 346,457 C 273,457 209,483 155,535 101,586 74,649 74,723 74,796 101,859 155,911 209,963 273,989 346,989 419,989 480,963 531,910 582,859 608,796 608,723 608,648 583,586 532,535 482,483 420,457 346,457 Z"/>
  </g>
  <g id="bullet-char-template-8211" transform="scale(0.00048828125,-0.00048828125)">
   <path d="M -4,459 L 1135,459 1135,606 -4,606 -4,459 Z"/>
  </g>
  <g id="bullet-char-template-61548" transform="scale(0.00048828125,-0.00048828125)">
   <path d="M 173,740 C 173,903 231,1043 346,1159 462,1274 601,1332 765,1332 928,1332 1067,1274 1183,1159 1299,1043 1357,903 1357,740 1357,577 1299,437 1183,322 1067,206 928,148 765,148 601,148 462,206 346,322 231,437 173,577 173,740 Z"/>
  </g>
 </defs>
 <g class="Page">
  <g class="com.sun.star.drawing.ClosedBezierShape">
   <g id="id3">
    <rect class="BoundingBox" stroke="none" fill="none" x="504" y="178" width="8878" height="8879"/>
    <path fill="rgb(63,87,79)" stroke="none" d="M 9381,4618 C 9381,2165 7394,178 4943,178 2491,178 504,2165 504,4618 504,7069 2491,9056 4943,9056 7394,9056 9381,7069 9381,4618 Z"/>
   </g>
  </g>
  <g class="com.sun.star.drawing.ClosedBezierShape">
   <g id="id4">
    <rect class="BoundingBox" stroke="none" fill="none" x="1843" y="3133" width="6230" height="2679"/>
    <path fill="rgb(255,191,85)" stroke="none" d="M 8070,5756 L 7896,5160 C 7890,5140 7872,5128 7852,5129 7831,5130 7812,5117 7807,5097 7789,5029 7736,4880 7600,4810 7473,4744 7446,4650 7442,4601 7440,4582 7426,4566 7407,4563 L 7367,4555 C 7348,4552 7333,4535 7332,4516 L 7323,4361 C 7322,4340 7305,4323 7284,4321 L 7199,4313 C 7177,4310 7160,4292 7160,4270 L 7160,4113 C 7160,4096 7150,4080 7135,4074 L 5007,3144 C 4976,3130 4940,3130 4909,3144 L 2780,4074 C 2764,4080 2754,4096 2754,4113 L 2754,4270 C 2754,4292 2737,4310 2715,4313 L 2630,4321 C 2609,4323 2593,4340 2591,4361 L 2582,4516 C 2581,4535 2567,4552 2547,4555 L 2507,4563 C 2488,4566 2475,4582 2473,4601 2468,4650 2442,4744 2314,4810 2179,4880 2125,5029 2107,5097 2102,5117 2084,5130 2063,5129 2043,5128 2024,5140 2019,5160 L 1845,5756 C 1837,5784 1858,5811 1886,5811 L 2656,5811 3027,5810 C 3044,5810 3059,5796 3059,5779 3100,4758 3820,3947 4851,3947 L 4956,3943 C 4957,3943 4958,3943 4959,3943 L 5065,3947 C 6090,3947 6807,4749 6854,5762 6856,5789 6877,5810 6904,5810 L 8028,5811 C 8057,5811 8078,5784 8070,5756 Z"/>
   </g>
  </g>
  <g class="com.sun.star.drawing.ClosedBezierShape">
   <g id="id5">
    <rect class="BoundingBox" stroke="none" fill="none" x="2255" y="2709" width="5400" height="1290"/>
    <path fill="rgb(255,191,85)" stroke="none" d="M 2360,3991 L 2671,3856 C 2672,3856 2672,3854 2673,3853 2678,3852 2684,3850 2690,3848 L 3002,3713 C 3003,3713 3004,3711 3004,3710 3010,3709 3015,3707 3021,3705 L 3332,3570 C 3333,3570 3334,3568 3334,3567 3340,3566 3345,3564 3351,3562 L 3663,3427 C 3663,3426 3664,3425 3664,3424 3670,3423 3676,3421 3681,3419 L 3993,3284 C 3994,3283 3994,3282 3994,3281 4000,3280 4006,3278 4011,3276 L 4323,3140 C 4324,3139 4324,3138 4324,3137 4330,3136 4336,3134 4341,3132 L 4653,2997 C 4654,2996 4654,2995 4654,2994 4660,2992 4666,2991 4672,2989 L 4872,2902 4917,2882 C 4929,2879 4943,2877 4957,2877 4967,2877 4976,2878 4984,2879 L 5236,2989 C 5242,2991 5248,2992 5254,2994 5254,2995 5254,2996 5255,2997 L 5567,3132 C 5572,3134 5578,3136 5584,3137 5584,3138 5584,3139 5585,3140 L 5897,3276 C 5902,3278 5908,3280 5914,3281 5914,3282 5915,3283 5915,3284 L 6227,3419 C 6233,3421 6238,3423 6244,3424 6244,3425 6245,3426 6246,3427 L 6557,3562 C 6563,3564 6568,3566 6574,3567 6574,3568 6575,3570 6576,3570 L 6887,3705 C 6893,3707 6899,3709 6904,3710 6905,3711 6905,3713 6906,3713 L 7217,3848 C 7223,3850 7229,3852 7234,3853 7235,3854 7235,3856 7236,3856 L 7547,3991 C 7586,4008 7630,3990 7647,3952 7663,3914 7646,3869 7607,3853 L 7296,3718 C 7295,3717 7294,3718 7293,3719 7288,3715 7283,3712 7277,3710 L 6966,3575 C 6965,3574 6964,3575 6962,3576 6958,3572 6953,3569 6947,3567 L 6636,3432 C 6635,3431 6634,3432 6632,3433 6628,3429 6623,3426 6617,3424 L 6305,3289 C 6305,3288 6303,3289 6302,3290 6297,3286 6292,3283 6287,3280 L 5975,3144 C 5974,3144 5973,3145 5972,3146 5967,3142 5962,3139 5957,3136 L 5645,3001 C 5644,3001 5643,3002 5642,3002 5637,2999 5632,2996 5627,2993 L 5315,2858 C 5314,2858 5313,2858 5312,2859 5307,2856 5302,2853 5296,2850 L 5005,2724 C 4992,2715 4975,2709 4957,2709 4946,2709 4935,2712 4925,2716 4925,2715 4924,2715 4923,2715 L 4612,2850 C 4606,2853 4601,2856 4596,2859 4595,2858 4594,2858 4593,2858 L 4282,2993 C 4276,2996 4271,2999 4266,3002 4265,3002 4264,3001 4263,3001 L 3951,3136 C 3946,3139 3941,3142 3936,3146 3935,3145 3934,3144 3933,3144 L 3621,3280 C 3616,3283 3611,3286 3606,3290 3605,3289 3603,3288 3603,3289 L 3291,3424 C 3286,3426 3281,3429 3276,3433 3274,3432 3273,3431 3272,3432 L 2961,3567 C 2955,3569 2950,3572 2946,3576 2944,3575 2943,3574 2942,3575 L 2630,3710 C 2624,3712 2619,3715 2615,3719 2613,3718 2612,3717 2611,3718 L 2300,3853 C 2262,3869 2244,3914 2261,3952 2277,3990 2321,4008 2360,3991 Z"/>
   </g>
  </g>
 </g>
</svg>