<?xml version="1.0" encoding="UTF-8"?>
<!DOCTYPE svg PUBLIC "-//W3C//DTD SVG 1.1//EN" "http://www.w3.org/Graphics/SVG/1.1/DTD/svg11.dtd">
<svg version="1.2" width="301.79mm" height="60.37mm" viewBox="11006 1712 30179 6037" preserveAspectRatio="xMidYMid" fill-rule="evenodd" stroke-width="28.222" stroke-linejoin="round" xmlns="http://www.w3.org/2000/svg" xmlns:ooo="http://xml.openoffice.org/svg/export" xmlns:xlink="http://www.w3.org/1999/xlink" xmlns:presentation="http://sun.com/xmlns/staroffice/presentation" xmlns:smil="http://www.w3.org/2001/SMIL20/" xmlns:anim="urn:oasis:names:tc:opendocument:xmlns:animation:1.0" xmlns:svg="urn:oasis:names:tc:opendocument:xmlns:svg-compatible:1.0" xml:space="preserve">
 <defs class="EmbeddedBulletChars">
  <g id="bullet-char-template-57356" transform="scale(0.00048828125,-0.00048828125)">
   <path d="M 580,1141 L 1163,571 580,0 -4,571 580,1141 Z"/>
  </g>
  <g id="bullet-char-template-57354" transform="scale(0.00048828125,-0.00048828125)">
   <path d="M 8,1128 L 1137,1128 1137,0 8,0 8,1128 Z"/>
  </g>
  <g id="bullet-char-template-10146" transform="scale(0.00048828125,-0.00048828125)">
   <path d="M 174,0 L 602,739 174,1481 1456,739 174,0 Z M 1358,739 L 309,1346 659,739 1358,739 Z"/>
  </g>
  <g id="bullet-char-template-10132" transform="scale(0.00048828125,-0.00048828125)">
   <path d="M 2015,739 L 1276,0 717,0 1260,543 174,543 174,936 1260,936 717,1481 1274,1481 2015,739 Z"/>
  </g>
  <g id="bullet-char-template-10007" transform="scale(0.00048828125,-0.00048828125)">
   <path d="M 0,-2 C -7,14 -16,27 -25,37 L 356,567 C 262,823 215,952 215,954 215,979 228,992 255,992 264,992 276,990 289,987 310,991 331,999 354,1012 L 381,999 492,748 772,1049 836,1024 860,1049 C 881,1039 901,1025 922,1006 886,937 835,863 770,784 769,783 710,716 594,584 L 774,223 C 774,196 753,168 711,139 L 727,119 C 717,90 699,76 672,76 641,76 570,178 457,381 L 164,-76 C 142,-110 111,-127 72,-127 30,-127 9,-110 8,-76 1,-67 -2,-52 -2,-32 -2,-23 -1,-13 0,-2 Z"/>
  </g>
  <g id="bullet-char-template-10004" transform="scale(0.00048828125,-0.00048828125)">
   <path d="M 285,-33 C 182,-33 111,30 74,156 52,228 41,333 41,471 41,549 55,616 82,672 116,743 169,778 240,778 293,778 328,747 346,684 L 369,508 C 377,444 397,411 428,410 L 1163,1116 C 1174,1127 1196,1133 1229,1133 1271,1133 1292,1118 1292,1087 L 1292,965 C 1292,929 1282,901 1262,881 L 442,47 C 390,-6 338,-33 285,-33 Z"/>
  </g>
  <g id="bullet-char-template-9679" transform="scale(0.00048828125,-0.00048828125)">
   <path d="M 813,0 C 632,0 489,54 383,161 276,268 223,411 223,592 223,773 276,916 383,1023 489,1130 632,1184 813,1184 992,1184 1136,1130 1245,1023 1353,916 1407,772 1407,592 1407,412 1353,268 1245,161 1136,54 992,0 813,0 Z"/>
  </g>
  <g id="bullet-char-template-8226" transform="scale(0.00048828125,-0.00048828125)">
   <path d="M 346,457 C 273,457 209,483 155,535 101,586 74,649 74,723 74,796 101,859 155,911 209,963 273,989 346,989 419,989 480,963 531,910 582,859 608,796 608,723 608,648 583,586 532,535 482,483 420,457 346,457 Z"/>
  </g>
  <g id="bullet-char-template-8211" transform="scale(0.00048828125,-0.00048828125)">
   <path d="M -4,459 L 1135,459 1135,606 -4,606 -4,459 Z"/>
  </g>
  <g id="bullet-char-template-61548" transform="scale(0.00048828125,-0.00048828125)">
   <path d="M 173,740 C 173,903 231,1043 346,1159 462,1274 601,1332 765,1332 928,1332 1067,1274 1183,1159 1299,1043 1357,903 1357,740 1357,577 1299,437 1183,322 1067,206 928,148 765,148 601,148 462,206 346,322 231,437 173,577 173,740 Z"/>
  </g>
 </defs>
 <g class="Page">
  <g class="com.sun.star.drawing.ClosedBezierShape">
   <g id="id3">
    <rect class="BoundingBox" stroke="none" fill="none" x="11006" y="3436" width="2167" height="2418"/>
    <path fill="rgb(255,191,85)" stroke="none" d="M 12191,5852 C 11573,5852 11007,5658 11007,4675 11007,3930 11387,3444 12074,3444 12515,3444 12672,3715 12873,3715 12924,3715 12964,3693 12964,3634 12964,3597 12957,3557 12957,3546 12957,3469 12997,3437 13063,3437 13121,3437 13172,3469 13172,3546 13172,3586 13158,3817 13154,3967 13150,4087 13150,4222 13150,4314 13150,4416 13129,4489 12990,4496 12694,4496 12497,4368 12380,4076 12267,3792 12234,3664 12066,3664 11865,3664 11744,3887 11744,4398 11744,5001 11905,5352 12450,5352 12753,5352 12939,5235 12939,5005 12939,4932 12917,4866 12917,4826 12917,4757 12961,4702 13045,4702 13118,4702 13172,4739 13172,4834 13172,5436 12975,5852 12191,5852 Z"/>
   </g>
  </g>
  <g class="com.sun.star.drawing.ClosedBezierShape">
   <g id="id4">
    <rect class="BoundingBox" stroke="none" fill="none" x="13608" y="3494" width="2482" height="2305"/>
    <path fill="rgb(255,191,85)" stroke="none" d="M 14654,4884 C 14979,4884 15008,4825 15012,4730 15016,4579 14935,4174 14837,3977 14775,3853 14749,3827 14691,3827 14516,3827 14384,4298 14384,4689 14384,4833 14403,4884 14654,4884 Z M 13702,5797 C 13639,5797 13609,5772 13609,5694 13609,5457 14264,4470 14264,3893 14264,3758 14165,3721 14103,3721 14067,3721 14023,3736 13990,3736 13910,3736 13870,3674 13870,3612 13870,3553 13910,3495 13990,3495 14114,3495 14560,3521 14804,3521 15030,3521 15242,3499 15293,3499 15384,3499 15454,3550 15454,3677 15454,4134 15790,5135 16012,5537 16060,5621 16089,5657 16089,5709 16089,5756 16060,5797 16005,5797 15917,5797 15709,5772 15487,5772 15304,5772 14884,5797 14844,5797 14768,5797 14742,5745 14742,5679 14742,5614 14782,5563 14844,5563 14873,5563 14906,5573 14983,5573 15067,5573 15133,5515 15133,5362 15133,5128 15089,5110 14716,5110 14388,5110 14355,5154 14355,5263 14355,5482 14574,5537 14574,5676 14574,5741 14545,5797 14476,5797 14424,5797 14176,5772 14059,5772 13924,5772 13775,5797 13702,5797 Z"/>
   </g>
  </g>
  <g class="com.sun.star.drawing.ClosedBezierShape">
   <g id="id5">
    <rect class="BoundingBox" stroke="none" fill="none" x="16383" y="3483" width="2331" height="2316"/>
    <path fill="rgb(255,191,85)" stroke="none" d="M 17717,3725 C 17468,3725 17435,3864 17435,4906 17435,5011 17476,5033 17567,5033 17856,5033 17987,4763 17987,4240 17987,3867 17932,3725 17717,3725 Z M 16384,5679 C 16384,5614 16427,5563 16482,5563 16508,5563 16555,5573 16570,5573 16661,5573 16679,5511 16687,5340 16698,5121 16705,4822 16705,4517 16705,4320 16698,4123 16687,3951 16679,3834 16672,3721 16581,3721 16544,3721 16508,3732 16482,3732 16413,3732 16384,3681 16384,3615 16384,3550 16427,3499 16482,3499 16672,3499 16858,3506 17070,3506 17293,3506 17728,3484 17929,3484 18418,3484 18713,3707 18713,4214 18713,4938 18396,5081 17958,5168 17460,5267 17431,5278 17431,5424 17431,5533 17464,5573 17571,5573 17629,5573 17790,5544 17881,5544 17951,5544 17987,5603 17987,5679 17987,5730 17951,5797 17881,5797 17746,5797 17358,5789 17095,5789 16884,5789 16588,5797 16482,5797 16413,5797 16384,5745 16384,5679 Z"/>
   </g>
  </g>
  <g class="com.sun.star.drawing.ClosedBezierShape">
   <g id="id6">
    <rect class="BoundingBox" stroke="none" fill="none" x="19146" y="3498" width="1335" height="2301"/>
    <path fill="rgb(255,191,85)" stroke="none" d="M 20382,3499 C 20451,3499 20480,3550 20480,3619 20480,3670 20451,3736 20382,3736 20360,3736 20327,3725 20294,3725 20203,3725 20195,3838 20188,3955 20177,4123 20170,4320 20170,4517 20170,4822 20181,5125 20188,5340 20195,5511 20214,5574 20305,5574 20320,5574 20356,5566 20382,5566 20451,5566 20480,5621 20480,5679 20480,5745 20451,5797 20382,5797 20290,5797 20035,5786 19852,5786 19648,5786 19349,5797 19245,5797 19176,5797 19147,5745 19147,5679 19147,5621 19176,5566 19245,5566 19264,5566 19300,5574 19311,5574 19403,5574 19422,5511 19429,5340 19436,5125 19447,4822 19447,4521 19447,4324 19440,4126 19429,3959 19422,3842 19414,3725 19322,3725 19293,3725 19264,3736 19245,3736 19176,3736 19147,3670 19147,3619 19147,3550 19176,3499 19245,3499 19433,3499 19619,3510 19827,3510 20028,3510 20203,3499 20382,3499 Z"/>
   </g>
  </g>
  <g class="com.sun.star.drawing.ClosedBezierShape">
   <g id="id7">
    <rect class="BoundingBox" stroke="none" fill="none" x="20902" y="3498" width="2024" height="2301"/>
    <path fill="rgb(255,191,85)" stroke="none" d="M 22219,3721 C 21989,3721 21957,3867 21946,4017 21920,4415 21927,5004 21942,5340 21949,5508 21986,5570 22106,5570 22446,5570 22603,4590 22829,4590 22891,4590 22924,4612 22924,4681 22924,4741 22902,4997 22902,5245 22902,5464 22924,5617 22924,5709 22924,5761 22873,5797 22836,5797 22621,5797 22015,5790 21595,5790 21394,5790 21100,5797 21001,5797 20932,5797 20903,5730 20903,5679 20903,5614 20946,5563 21001,5563 21023,5563 21060,5574 21071,5574 21162,5574 21180,5511 21187,5340 21202,4986 21213,4378 21187,3955 21180,3838 21173,3721 21081,3721 21052,3721 21023,3732 21001,3732 20932,3732 20903,3667 20903,3615 20903,3550 20946,3499 21001,3499 21184,3499 21365,3506 21570,3506 21873,3506 22135,3499 22413,3499 22471,3499 22515,3542 22515,3619 22515,3663 22489,3740 22413,3740 22369,3740 22303,3721 22219,3721 Z"/>
   </g>
  </g>
  <g class="com.sun.star.drawing.ClosedBezierShape">
   <g id="id8">
    <rect class="BoundingBox" stroke="none" fill="none" x="23390" y="3498" width="2025" height="2301"/>
    <path fill="rgb(255,191,85)" stroke="none" d="M 24708,3721 C 24478,3721 24445,3867 24434,4017 24408,4415 24416,5004 24430,5340 24438,5508 24474,5570 24595,5570 24934,5570 25091,4590 25318,4590 25380,4590 25413,4612 25413,4681 25413,4741 25391,4997 25391,5245 25391,5464 25413,5617 25413,5709 25413,5761 25362,5797 25326,5797 25109,5797 24503,5790 24084,5790 23883,5790 23587,5797 23489,5797 23419,5797 23390,5730 23390,5679 23390,5614 23434,5563 23489,5563 23511,5563 23547,5574 23558,5574 23649,5574 23667,5511 23675,5340 23689,4986 23700,4378 23675,3955 23667,3838 23660,3721 23569,3721 23540,3721 23511,3732 23489,3732 23419,3732 23390,3667 23390,3615 23390,3550 23434,3499 23489,3499 23671,3499 23854,3506 24058,3506 24361,3506 24624,3499 24901,3499 24960,3499 25003,3542 25003,3619 25003,3663 24978,3740 24901,3740 24857,3740 24792,3721 24708,3721 Z"/>
   </g>
  </g>
  <g class="com.sun.star.drawing.ClosedBezierShape">
   <g id="id9">
    <rect class="BoundingBox" stroke="none" fill="none" x="25759" y="3494" width="2482" height="2305"/>
    <path fill="rgb(255,191,85)" stroke="none" d="M 26804,4884 C 27129,4884 27158,4825 27162,4730 27165,4579 27085,4174 26987,3977 26924,3853 26899,3827 26841,3827 26665,3827 26534,4298 26534,4689 26534,4833 26552,4884 26804,4884 Z M 25850,5797 C 25788,5797 25759,5772 25759,5694 25759,5457 26413,4470 26413,3893 26413,3758 26315,3721 26253,3721 26216,3721 26173,3736 26140,3736 26059,3736 26018,3674 26018,3612 26018,3553 26059,3495 26140,3495 26264,3495 26709,3521 26954,3521 27180,3521 27392,3499 27443,3499 27534,3499 27603,3550 27603,3677 27603,4134 27939,5135 28162,5537 28209,5621 28239,5657 28239,5709 28239,5756 28209,5797 28155,5797 28067,5797 27859,5772 27636,5772 27454,5772 27034,5797 26994,5797 26917,5797 26892,5745 26892,5679 26892,5614 26932,5563 26994,5563 27023,5563 27056,5573 27133,5573 27217,5573 27282,5515 27282,5362 27282,5128 27238,5110 26866,5110 26538,5110 26505,5154 26505,5263 26505,5482 26724,5537 26724,5676 26724,5741 26695,5797 26625,5797 26574,5797 26326,5772 26209,5772 26074,5772 25923,5797 25850,5797 Z"/>
   </g>
  </g>
  <g class="com.sun.star.drawing.ClosedBezierShape">
   <g id="id10">
    <rect class="BoundingBox" stroke="none" fill="none" x="29676" y="3447" width="2504" height="2302"/>
    <path fill="rgb(255,191,85)" stroke="none" d="M 31173,3566 C 31173,3493 31206,3448 31280,3448 31327,3448 31440,3467 31652,3467 31882,3467 31984,3448 32061,3448 32137,3448 32178,3471 32178,3555 32178,3767 31867,3774 31557,5484 31528,5641 31531,5747 31400,5747 31316,5747 31056,5725 30892,5725 30669,5725 30457,5747 30428,5747 30315,5747 30278,5677 30260,5539 30216,5221 30056,4216 29884,3869 29797,3690 29676,3654 29676,3562 29676,3486 29713,3448 29782,3448 29873,3448 30122,3467 30384,3467 30527,3467 30852,3448 30884,3448 30954,3448 30990,3500 30990,3566 30990,3650 30954,3683 30884,3683 30859,3683 30830,3672 30797,3672 30738,3672 30702,3705 30702,3770 30702,4033 30771,4449 30976,5199 31045,5451 31111,5488 31195,5488 31349,5488 31426,5210 31426,4635 31426,3836 31173,3803 31173,3566 Z"/>
   </g>
  </g>
  <g class="com.sun.star.drawing.ClosedBezierShape">
   <g id="id11">
    <rect class="BoundingBox" stroke="none" fill="none" x="32458" y="3447" width="1335" height="2302"/>
    <path fill="rgb(255,191,85)" stroke="none" d="M 33692,3448 C 33762,3448 33791,3500 33791,3570 33791,3621 33762,3686 33692,3686 33671,3686 33638,3675 33605,3675 33514,3675 33506,3789 33499,3905 33488,4073 33481,4270 33481,4468 33481,4772 33492,5075 33499,5290 33506,5462 33524,5524 33616,5524 33630,5524 33667,5517 33692,5517 33762,5517 33791,5571 33791,5630 33791,5696 33762,5747 33692,5747 33601,5747 33346,5736 33163,5736 32959,5736 32659,5747 32556,5747 32487,5747 32458,5696 32458,5630 32458,5571 32487,5517 32556,5517 32574,5517 32611,5524 32622,5524 32714,5524 32732,5462 32740,5290 32747,5075 32758,4772 32758,4471 32758,4274 32751,4077 32740,3909 32732,3792 32725,3675 32633,3675 32604,3675 32574,3686 32556,3686 32487,3686 32458,3621 32458,3570 32458,3500 32487,3448 32556,3448 32743,3448 32930,3459 33138,3459 33338,3459 33514,3448 33692,3448 Z"/>
   </g>
  </g>
  <g class="com.sun.star.drawing.ClosedBezierShape">
   <g id="id12">
    <rect class="BoundingBox" stroke="none" fill="none" x="34217" y="3447" width="2230" height="2302"/>
    <path fill="rgb(255,191,85)" stroke="none" d="M 34381,5524 C 34473,5524 34491,5462 34498,5290 34505,5068 34517,4758 34517,4438 34517,4252 34509,4062 34498,3902 34491,3785 34484,3672 34392,3672 34363,3672 34334,3683 34316,3683 34246,3683 34217,3632 34217,3566 34217,3500 34261,3448 34316,3448 34505,3448 34689,3464 34901,3464 35247,3464 36061,3448 36280,3448 36368,3448 36426,3497 36426,3573 36426,3632 36415,3734 36415,3873 36415,3978 36430,4088 36430,4132 36430,4208 36394,4270 36324,4270 36091,4270 35963,3679 35445,3679 35320,3679 35284,3792 35266,3909 35247,4037 35244,4186 35240,4336 35240,4391 35269,4424 35317,4424 35565,4424 35707,4161 35879,4161 35923,4161 35956,4190 35956,4270 35956,4340 35945,4416 35945,4548 35945,4732 35948,4805 35948,4871 35948,4955 35904,4969 35861,4969 35693,4969 35616,4646 35324,4646 35262,4646 35240,4683 35240,4743 35240,4947 35240,5159 35251,5290 35266,5451 35302,5509 35437,5509 35996,5509 36109,4896 36353,4896 36419,4896 36445,4951 36445,5013 36445,5057 36423,5170 36423,5276 36423,5433 36445,5542 36445,5612 36445,5692 36394,5747 36313,5747 36050,5747 35379,5725 34908,5725 34707,5725 34414,5747 34316,5747 34246,5747 34217,5696 34217,5626 34217,5561 34261,5513 34316,5513 34334,5513 34370,5524 34381,5524 Z"/>
   </g>
  </g>
  <g class="com.sun.star.drawing.ClosedBezierShape">
   <g id="id13">
    <rect class="BoundingBox" stroke="none" fill="none" x="36860" y="3447" width="1543" height="2809"/>
    <path fill="rgb(255,191,85)" stroke="none" d="M 38230,3671 C 38113,3671 38095,3722 38095,3996 38095,4747 38182,5061 38182,5429 38182,5918 37974,6254 37458,6254 37039,6254 36860,6010 36860,5641 36860,5356 37006,5177 37254,5177 37477,5177 37564,5327 37564,5517 37564,5714 37415,5787 37316,5787 37221,5787 37203,5834 37203,5871 37203,5929 37236,5969 37349,5969 37517,5969 37748,5904 37748,5542 37748,5279 37670,5185 37539,5090 37407,4995 37382,4907 37382,4683 37382,4508 37389,4014 37389,3897 37389,3744 37353,3671 37265,3671 37229,3671 37192,3682 37166,3682 37097,3682 37068,3631 37068,3565 37068,3481 37112,3448 37166,3448 37316,3448 37462,3455 37630,3455 37872,3455 38084,3448 38303,3448 38357,3448 38401,3481 38401,3565 38401,3631 38372,3682 38303,3682 38284,3682 38255,3671 38230,3671 Z"/>
   </g>
  </g>
  <g class="com.sun.star.drawing.ClosedBezierShape">
   <g id="id14">
    <rect class="BoundingBox" stroke="none" fill="none" x="38703" y="3444" width="2482" height="2305"/>
    <path fill="rgb(255,191,85)" stroke="none" d="M 39747,4834 C 40072,4834 40101,4776 40105,4683 40109,4530 40028,4124 39930,3927 39868,3803 39842,3778 39784,3778 39608,3778 39477,4249 39477,4639 39477,4783 39495,4834 39747,4834 Z M 38794,5747 C 38732,5747 38703,5721 38703,5644 38703,5407 39357,4420 39357,3843 39357,3708 39258,3672 39196,3672 39160,3672 39116,3686 39083,3686 39003,3686 38962,3624 38962,3562 38962,3504 39003,3445 39083,3445 39207,3445 39652,3471 39897,3471 40123,3471 40335,3448 40386,3448 40477,3448 40547,3500 40547,3628 40547,4084 40882,5086 41106,5488 41153,5571 41183,5608 41183,5659 41183,5707 41153,5747 41099,5747 41011,5747 40802,5721 40579,5721 40397,5721 39977,5747 39937,5747 39860,5747 39835,5696 39835,5630 39835,5564 39875,5513 39937,5513 39966,5513 39999,5524 40076,5524 40160,5524 40225,5466 40225,5312 40225,5079 40182,5061 39809,5061 39481,5061 39448,5104 39448,5214 39448,5433 39667,5488 39667,5626 39667,5692 39638,5747 39568,5747 39517,5747 39269,5721 39152,5721 39017,5721 38868,5747 38794,5747 Z"/>
   </g>
  </g>
  <g class="com.sun.star.drawing.ClosedBezierShape">
   <g id="id15">
    <rect class="BoundingBox" stroke="none" fill="none" x="11178" y="6879" width="563" height="856"/>
    <path fill="rgb(255,191,85)" stroke="none" d="M 11179,6891 C 11179,6884 11184,6879 11192,6879 L 11315,6879 C 11322,6879 11327,6884 11327,6891 L 11327,7592 C 11327,7597 11330,7600 11335,7600 L 11727,7600 C 11735,7600 11740,7605 11740,7613 L 11740,7720 C 11740,7728 11735,7733 11727,7733 L 11192,7733 C 11184,7733 11179,7728 11179,7720 L 11179,6891 Z"/>
   </g>
  </g>
  <g class="com.sun.star.drawing.ClosedBezierShape">
   <g id="id16">
    <rect class="BoundingBox" stroke="none" fill="none" x="11914" y="6865" width="652" height="884"/>
    <path fill="rgb(255,191,85)" stroke="none" d="M 12399,7502 C 12409,7470 12414,7426 12414,7305 12414,7184 12409,7141 12399,7110 12375,7041 12325,6998 12240,6998 12155,6998 12105,7041 12081,7110 12071,7141 12066,7184 12066,7305 12066,7426 12071,7470 12081,7502 12105,7571 12155,7614 12240,7614 12325,7614 12375,7571 12399,7502 Z M 11937,7541 C 11920,7487 11915,7440 11915,7305 11915,7171 11920,7123 11937,7071 11981,6935 12093,6865 12240,6865 12388,6865 12498,6935 12542,7071 12559,7123 12565,7171 12565,7305 12565,7440 12559,7487 12542,7541 12498,7677 12388,7747 12240,7747 12093,7747 11981,7677 11937,7541 Z"/>
   </g>
  </g>
  <g class="com.sun.star.drawing.ClosedBezierShape">
   <g id="id17">
    <rect class="BoundingBox" stroke="none" fill="none" x="12782" y="6865" width="643" height="884"/>
    <path fill="rgb(255,191,85)" stroke="none" d="M 12788,7634 C 12783,7629 12781,7621 12786,7615 L 12864,7525 C 12869,7518 12876,7518 12881,7523 12937,7567 13018,7614 13114,7614 13216,7614 13275,7562 13275,7490 13275,7428 13237,7388 13119,7372 L 13073,7366 C 12909,7343 12816,7264 12816,7122 12816,6968 12929,6865 13105,6865 13212,6865 13314,6899 13382,6950 13388,6955 13389,6960 13384,6968 L 13324,7061 C 13319,7067 13313,7068 13307,7064 13237,7019 13173,6998 13101,6998 13014,6998 12967,7046 12967,7112 12967,7171 13008,7211 13124,7228 L 13170,7234 C 13334,7256 13424,7334 13424,7481 13424,7634 13315,7747 13102,7747 12977,7747 12855,7697 12788,7634 Z"/>
   </g>
  </g>
  <g class="com.sun.star.drawing.ClosedBezierShape">
   <g id="id18">
    <rect class="BoundingBox" stroke="none" fill="none" x="14079" y="6879" width="638" height="856"/>
    <path fill="rgb(255,191,85)" stroke="none" d="M 14549,7133 C 14549,7059 14497,7012 14419,7012 L 14236,7012 C 14231,7012 14228,7014 14228,7019 L 14228,7246 C 14228,7251 14231,7254 14236,7254 L 14419,7254 C 14497,7254 14549,7206 14549,7133 Z M 14566,7733 C 14556,7733 14551,7729 14547,7720 L 14384,7388 14236,7388 C 14231,7388 14228,7390 14228,7395 L 14228,7720 C 14228,7728 14223,7733 14216,7733 L 14093,7733 C 14085,7733 14080,7728 14080,7720 L 14080,6891 C 14080,6884 14085,6879 14093,6879 L 14424,6879 C 14581,6879 14696,6983 14696,7133 14696,7245 14632,7333 14534,7369 L 14714,7717 C 14719,7725 14714,7733 14705,7733 L 14566,7733 Z"/>
   </g>
  </g>
  <g class="com.sun.star.drawing.ClosedBezierShape">
   <g id="id19">
    <rect class="BoundingBox" stroke="none" fill="none" x="14963" y="6879" width="563" height="856"/>
    <path fill="rgb(255,191,85)" stroke="none" d="M 14964,6891 C 14964,6884 14969,6879 14977,6879 L 15512,6879 C 15520,6879 15525,6884 15525,6891 L 15525,6999 C 15525,7007 15520,7012 15512,7012 L 15120,7012 C 15115,7012 15112,7014 15112,7019 L 15112,7228 C 15112,7233 15115,7235 15120,7235 L 15451,7235 C 15458,7235 15463,7240 15463,7248 L 15463,7357 C 15463,7364 15458,7369 15451,7369 L 15120,7369 C 15115,7369 15112,7372 15112,7377 L 15112,7592 C 15112,7597 15115,7600 15120,7600 L 15512,7600 C 15520,7600 15525,7605 15525,7613 L 15525,7720 C 15525,7728 15520,7733 15512,7733 L 14977,7733 C 14969,7733 14964,7728 14964,7720 L 14964,6891 Z"/>
   </g>
  </g>
  <g class="com.sun.star.drawing.ClosedBezierShape">
   <g id="id20">
    <rect class="BoundingBox" stroke="none" fill="none" x="15713" y="6879" width="734" height="856"/>
    <path fill="rgb(255,191,85)" stroke="none" d="M 16194,7423 L 16081,7091 16077,7091 15963,7423 16194,7423 Z M 16007,6891 C 16010,6884 16015,6879 16024,6879 L 16139,6879 C 16148,6879 16153,6884 16155,6891 L 16445,7720 C 16447,7728 16445,7733 16435,7733 L 16312,7733 C 16303,7733 16298,7729 16296,7720 L 16239,7555 15918,7555 15862,7720 C 15859,7729 15854,7733 15845,7733 L 15724,7733 C 15715,7733 15712,7728 15715,7720 L 16007,6891 Z"/>
   </g>
  </g>
  <g class="com.sun.star.drawing.ClosedBezierShape">
   <g id="id21">
    <rect class="BoundingBox" stroke="none" fill="none" x="16667" y="6879" width="637" height="856"/>
    <path fill="rgb(255,191,85)" stroke="none" d="M 17137,7133 C 17137,7059 17084,7012 17006,7012 L 16824,7012 C 16819,7012 16817,7014 16817,7019 L 16817,7246 C 16817,7251 16819,7254 16824,7254 L 17006,7254 C 17084,7254 17137,7206 17137,7133 Z M 17153,7733 C 17143,7733 17138,7729 17134,7720 L 16971,7388 16824,7388 C 16819,7388 16817,7390 16817,7395 L 16817,7720 C 16817,7728 16811,7733 16803,7733 L 16680,7733 C 16673,7733 16668,7728 16668,7720 L 16668,6891 C 16668,6884 16673,6879 16680,6879 L 17011,6879 C 17168,6879 17283,6983 17283,7133 17283,7245 17219,7333 17122,7369 L 17301,7717 C 17306,7725 17301,7733 17292,7733 L 17153,7733 Z"/>
   </g>
  </g>
  <g class="com.sun.star.drawing.ClosedBezierShape">
   <g id="id22">
    <rect class="BoundingBox" stroke="none" fill="none" x="17480" y="6879" width="638" height="856"/>
    <path fill="rgb(255,191,85)" stroke="none" d="M 17737,7733 C 17730,7733 17725,7728 17725,7720 L 17725,7019 C 17725,7014 17722,7012 17717,7012 L 17494,7012 C 17486,7012 17481,7007 17481,6999 L 17481,6891 C 17481,6884 17486,6879 17494,6879 L 18105,6879 C 18112,6879 18117,6884 18117,6891 L 18117,6999 C 18117,7007 18112,7012 18105,7012 L 17880,7012 C 17875,7012 17873,7014 17873,7019 L 17873,7720 C 17873,7728 17868,7733 17860,7733 L 17737,7733 Z"/>
   </g>
  </g>
  <g class="com.sun.star.drawing.ClosedBezierShape">
   <g id="id23">
    <rect class="BoundingBox" stroke="none" fill="none" x="18344" y="6879" width="562" height="856"/>
    <path fill="rgb(255,191,85)" stroke="none" d="M 18345,6891 C 18345,6884 18350,6879 18357,6879 L 18893,6879 C 18900,6879 18905,6884 18905,6891 L 18905,6999 C 18905,7007 18900,7012 18893,7012 L 18500,7012 C 18495,7012 18493,7014 18493,7019 L 18493,7228 C 18493,7233 18495,7235 18500,7235 L 18831,7235 C 18839,7235 18844,7240 18844,7248 L 18844,7357 C 18844,7364 18839,7369 18831,7369 L 18500,7369 C 18495,7369 18493,7372 18493,7377 L 18493,7592 C 18493,7597 18495,7600 18500,7600 L 18893,7600 C 18900,7600 18905,7605 18905,7613 L 18905,7720 C 18905,7728 18900,7733 18893,7733 L 18357,7733 C 18350,7733 18345,7728 18345,7720 L 18345,6891 Z"/>
   </g>
  </g>
  <g class="com.sun.star.drawing.ClosedBezierShape">
   <g id="id24">
    <rect class="BoundingBox" stroke="none" fill="none" x="19116" y="6865" width="644" height="884"/>
    <path fill="rgb(255,191,85)" stroke="none" d="M 19123,7634 C 19118,7629 19115,7621 19120,7615 L 19198,7525 C 19203,7518 19211,7518 19216,7523 19271,7567 19353,7614 19448,7614 19551,7614 19610,7562 19610,7490 19610,7428 19572,7388 19453,7372 L 19408,7366 C 19243,7343 19151,7264 19151,7122 19151,6968 19263,6865 19439,6865 19547,6865 19648,6899 19716,6950 19722,6955 19724,6960 19719,6968 L 19658,7061 C 19653,7067 19647,7068 19641,7064 19572,7019 19507,6998 19435,6998 19349,6998 19301,7046 19301,7112 19301,7171 19342,7211 19458,7228 L 19503,7234 C 19669,7256 19759,7334 19759,7481 19759,7634 19650,7747 19437,7747 19311,7747 19189,7697 19123,7634 Z"/>
   </g>
  </g>
  <g class="com.sun.star.drawing.ClosedBezierShape">
   <g id="id25">
    <rect class="BoundingBox" stroke="none" fill="none" x="22376" y="6865" width="612" height="884"/>
    <path fill="rgb(255,191,85)" stroke="none" d="M 22376,7305 C 22376,7170 22381,7127 22399,7074 22443,6935 22551,6865 22695,6865 22833,6865 22936,6935 22985,7048 22987,7054 22985,7061 22978,7063 L 22872,7115 C 22864,7118 22858,7115 22855,7108 22828,7048 22779,6998 22695,6998 22613,6998 22566,7042 22542,7111 22531,7146 22527,7180 22527,7305 22527,7431 22531,7465 22542,7501 22566,7570 22613,7614 22695,7614 22779,7614 22828,7564 22855,7503 22858,7497 22864,7493 22872,7497 L 22978,7549 C 22985,7551 22987,7557 22985,7564 22936,7677 22833,7747 22695,7747 22551,7747 22443,7677 22399,7537 22381,7484 22376,7441 22376,7305 Z"/>
   </g>
  </g>
  <g class="com.sun.star.drawing.ClosedBezierShape">
   <g id="id26">
    <rect class="BoundingBox" stroke="none" fill="none" x="23205" y="6618" width="652" height="1131"/>
    <path fill="rgb(255,191,85)" stroke="none" d="M 23463,6777 C 23456,6777 23453,6771 23458,6765 L 23569,6630 C 23575,6623 23581,6618 23593,6618 L 23717,6618 C 23724,6618 23729,6624 23723,6630 L 23575,6767 C 23566,6776 23561,6777 23552,6777 L 23463,6777 Z M 23689,7502 C 23699,7471 23704,7427 23704,7305 23704,7184 23699,7141 23689,7110 23665,7041 23614,6998 23529,6998 23444,6998 23394,7041 23370,7110 23360,7141 23355,7184 23355,7305 23355,7427 23360,7471 23370,7502 23394,7571 23444,7614 23529,7614 23614,7614 23665,7571 23689,7502 Z M 23227,7541 C 23210,7488 23205,7441 23205,7305 23205,7171 23210,7123 23227,7071 23271,6935 23382,6865 23529,6865 23678,6865 23788,6935 23832,7071 23850,7123 23855,7171 23855,7305 23855,7441 23850,7488 23832,7541 23788,7677 23678,7747 23529,7747 23382,7747 23271,7677 23227,7541 Z"/>
   </g>
  </g>
  <g class="com.sun.star.drawing.ClosedBezierShape">
   <g id="id27">
    <rect class="BoundingBox" stroke="none" fill="none" x="24124" y="6879" width="637" height="856"/>
    <path fill="rgb(255,191,85)" stroke="none" d="M 24593,7133 C 24593,7059 24540,7012 24462,7012 L 24279,7012 C 24274,7012 24272,7014 24272,7019 L 24272,7246 C 24272,7251 24274,7254 24279,7254 L 24462,7254 C 24540,7254 24593,7206 24593,7133 Z M 24609,7733 C 24599,7733 24594,7729 24590,7720 L 24427,7388 24279,7388 C 24274,7388 24272,7390 24272,7395 L 24272,7720 C 24272,7728 24267,7733 24259,7733 L 24136,7733 C 24129,7733 24124,7728 24124,7720 L 24124,6891 C 24124,6884 24129,6879 24136,6879 L 24467,6879 C 24624,6879 24740,6983 24740,7133 24740,7245 24676,7333 24578,7369 L 24757,7717 C 24762,7725 24757,7733 24748,7733 L 24609,7733 Z"/>
   </g>
  </g>
  <g class="com.sun.star.drawing.ClosedBezierShape">
   <g id="id28">
    <rect class="BoundingBox" stroke="none" fill="none" x="25008" y="6879" width="626" height="856"/>
    <path fill="rgb(255,191,85)" stroke="none" d="M 25163,7600 L 25291,7600 C 25385,7600 25443,7569 25468,7492 25477,7468 25483,7429 25483,7306 25483,7181 25477,7143 25468,7120 25443,7043 25385,7012 25291,7012 L 25163,7012 C 25158,7012 25156,7014 25156,7019 L 25156,7592 C 25156,7597 25158,7600 25163,7600 Z M 25008,6891 C 25008,6884 25013,6879 25020,6879 L 25326,6879 C 25473,6879 25571,6944 25611,7068 25625,7111 25632,7157 25632,7306 25632,7454 25625,7501 25611,7544 25571,7668 25473,7733 25326,7733 L 25020,7733 C 25013,7733 25008,7728 25008,7720 L 25008,6891 Z"/>
   </g>
  </g>
  <g class="com.sun.star.drawing.ClosedBezierShape">
   <g id="id29">
    <rect class="BoundingBox" stroke="none" fill="none" x="25874" y="6865" width="651" height="884"/>
    <path fill="rgb(255,191,85)" stroke="none" d="M 26358,7502 C 26368,7470 26373,7426 26373,7305 26373,7184 26368,7141 26358,7110 26334,7041 26284,6998 26197,6998 26113,6998 26063,7041 26039,7110 26029,7141 26024,7184 26024,7305 26024,7426 26029,7470 26039,7502 26063,7571 26113,7614 26197,7614 26284,7614 26334,7571 26358,7502 Z M 25896,7541 C 25879,7487 25874,7440 25874,7305 25874,7171 25879,7123 25896,7071 25940,6935 26051,6865 26197,6865 26346,6865 26457,6935 26501,7071 26518,7123 26523,7171 26523,7305 26523,7440 26518,7487 26501,7541 26457,7677 26346,7747 26197,7747 26051,7747 25940,7677 25896,7541 Z"/>
   </g>
  </g>
  <g class="com.sun.star.drawing.ClosedBezierShape">
   <g id="id30">
    <rect class="BoundingBox" stroke="none" fill="none" x="26793" y="6879" width="614" height="856"/>
    <path fill="rgb(255,191,85)" stroke="none" d="M 26948,7602 L 27126,7602 C 27210,7602 27257,7555 27257,7483 27257,7413 27210,7365 27126,7365 L 26948,7365 C 26943,7365 26941,7368 26941,7373 L 26941,7595 C 26941,7600 26943,7602 26948,7602 Z M 27119,7234 C 27194,7234 27242,7189 27242,7122 27242,7054 27194,7009 27119,7009 L 26948,7009 C 26943,7009 26941,7012 26941,7017 L 26941,7226 C 26941,7231 26943,7234 26948,7234 L 27119,7234 Z M 26793,6891 C 26793,6884 26798,6879 26805,6879 L 27123,6879 C 27304,6879 27390,6969 27390,7106 27390,7202 27345,7258 27291,7288 L 27291,7290 C 27343,7310 27405,7378 27405,7482 27405,7651 27298,7733 27110,7733 L 26805,7733 C 26798,7733 26793,7728 26793,7720 L 26793,6891 Z"/>
   </g>
  </g>
  <g class="com.sun.star.drawing.ClosedBezierShape">
   <g id="id31">
    <rect class="BoundingBox" stroke="none" fill="none" x="27580" y="6879" width="734" height="856"/>
    <path fill="rgb(255,191,85)" stroke="none" d="M 28060,7423 L 27948,7091 27944,7091 27830,7423 28060,7423 Z M 27873,6891 C 27876,6884 27881,6879 27890,6879 L 28005,6879 C 28014,6879 28019,6884 28022,6891 L 28311,7720 C 28314,7728 28311,7733 28302,7733 L 28179,7733 C 28171,7733 28166,7729 28163,7720 L 28106,7555 27784,7555 27728,7720 C 27725,7729 27720,7733 27712,7733 L 27590,7733 C 27581,7733 27579,7728 27581,7720 L 27873,6891 Z"/>
   </g>
  </g>
  <g class="com.sun.star.drawing.ClosedBezierShape">
   <g id="id32">
    <rect class="BoundingBox" stroke="none" fill="none" x="20867" y="7225" width="415" height="154"/>
    <path fill="rgb(255,191,85)" stroke="none" d="M 21204,7377 L 20943,7377 C 20901,7377 20868,7344 20868,7301 20868,7259 20901,7225 20943,7225 L 21204,7225 C 21247,7225 21281,7259 21281,7301 21281,7344 21247,7377 21204,7377 Z"/>
   </g>
  </g>
  <g class="com.sun.star.drawing.ClosedBezierShape">
   <g id="id33">
    <rect class="BoundingBox" stroke="none" fill="none" x="11178" y="1725" width="709" height="900"/>
    <path fill="rgb(255,191,85)" stroke="none" d="M 11179,2624 L 11180,2619 C 11180,2618 11183,2614 11188,2605 11193,2596 11199,2585 11206,2571 11214,2556 11222,2541 11230,2524 11238,2507 11247,2488 11254,2468 11262,2447 11269,2429 11274,2411 L 11400,1939 C 11405,1922 11408,1903 11411,1882 11414,1861 11416,1843 11417,1827 11418,1810 11418,1795 11419,1779 11419,1764 11419,1753 11418,1746 11417,1739 11417,1734 11418,1731 L 11419,1726 11739,1726 11738,1731 C 11738,1732 11736,1737 11731,1746 11726,1754 11719,1766 11712,1780 11704,1794 11697,1810 11688,1827 11680,1844 11672,1862 11664,1883 11655,1903 11649,1922 11644,1939 L 11477,2566 11560,2566 C 11582,2566 11608,2558 11637,2542 11668,2526 11697,2507 11724,2484 11751,2461 11776,2438 11800,2415 11823,2393 11843,2373 11858,2358 11873,2342 11880,2334 11881,2334 L 11886,2334 11809,2624 11179,2624 Z"/>
   </g>
  </g>
  <g class="com.sun.star.drawing.ClosedBezierShape">
   <g id="id34">
    <rect class="BoundingBox" stroke="none" fill="none" x="12092" y="1712" width="873" height="929"/>
    <path fill="rgb(255,191,85)" stroke="none" d="M 12427,2583 C 12452,2583 12478,2570 12504,2543 12531,2516 12555,2480 12576,2437 12597,2394 12617,2350 12633,2305 12649,2260 12663,2217 12674,2176 12688,2119 12698,2061 12703,2003 12709,1945 12707,1892 12696,1844 12685,1796 12663,1772 12630,1771 12604,1770 12578,1784 12552,1811 12525,1838 12501,1873 12480,1916 12459,1959 12440,2003 12424,2047 12408,2091 12394,2134 12384,2176 12369,2233 12359,2291 12354,2351 12348,2409 12351,2463 12362,2511 12373,2559 12395,2583 12427,2583 Z M 12745,2517 C 12647,2601 12535,2642 12412,2640 12289,2639 12200,2595 12144,2508 12089,2422 12078,2308 12113,2168 12149,2028 12215,1916 12313,1833 12410,1750 12520,1710 12645,1713 12767,1715 12856,1759 12912,1845 12968,1931 12979,2044 12944,2182 12909,2322 12842,2434 12745,2517 Z"/>
   </g>
  </g>
  <g class="com.sun.star.drawing.ClosedBezierShape">
   <g id="id35">
    <rect class="BoundingBox" stroke="none" fill="none" x="13155" y="1725" width="872" height="900"/>
    <path fill="rgb(255,191,85)" stroke="none" d="M 13233,2624 L 13234,2619 C 13234,2618 13237,2614 13242,2605 13247,2596 13253,2585 13260,2571 13268,2556 13276,2541 13283,2524 13291,2507 13299,2488 13307,2468 13315,2447 13321,2429 13326,2411 L 13494,1790 13482,1790 C 13461,1790 13435,1798 13406,1815 13376,1832 13348,1853 13320,1878 13293,1903 13267,1928 13244,1952 13220,1977 13200,1998 13185,2015 13170,2032 13162,2040 13161,2040 L 13156,2040 13239,1726 14026,1726 13942,2040 13935,2040 C 13934,2040 13931,2032 13925,2015 13919,1998 13911,1977 13901,1952 13891,1928 13878,1903 13864,1878 13850,1853 13833,1832 13813,1815 13792,1798 13771,1790 13750,1790 L 13738,1790 13573,2411 C 13568,2429 13564,2448 13561,2468 13558,2489 13556,2508 13555,2524 13555,2540 13554,2556 13553,2571 13553,2587 13553,2598 13553,2605 13554,2612 13554,2617 13553,2619 L 13552,2624 13233,2624 Z"/>
   </g>
  </g>
  <g class="com.sun.star.drawing.ClosedBezierShape">
   <g id="id36">
    <rect class="BoundingBox" stroke="none" fill="none" x="13974" y="1725" width="895" height="900"/>
    <path fill="rgb(255,191,85)" stroke="none" d="M 13975,2624 L 13977,2619 C 13977,2618 13979,2614 13984,2605 13989,2596 13995,2585 14003,2571 14010,2556 14018,2541 14026,2524 14034,2507 14042,2488 14049,2468 14057,2447 14064,2429 14069,2411 L 14195,1939 C 14202,1911 14207,1880 14210,1846 14213,1813 14214,1785 14214,1764 L 14214,1731 14216,1726 14868,1726 14796,1997 14791,1997 C 14790,1997 14786,1989 14779,1975 14772,1960 14762,1943 14750,1922 14738,1901 14725,1880 14708,1860 14693,1839 14675,1821 14654,1807 14632,1792 14611,1785 14588,1785 L 14481,1785 14385,2141 14396,2141 C 14418,2141 14442,2138 14468,2133 14494,2128 14518,2121 14541,2114 14563,2106 14584,2099 14602,2091 14621,2084 14636,2077 14648,2072 14660,2067 14666,2064 14667,2064 L 14673,2064 14618,2269 14612,2269 C 14611,2269 14606,2266 14598,2261 14589,2256 14577,2248 14563,2241 14548,2233 14532,2226 14513,2218 14495,2211 14474,2204 14451,2199 14428,2194 14405,2191 14383,2191 L 14373,2191 14272,2566 14384,2566 C 14405,2566 14431,2558 14460,2544 14490,2529 14518,2512 14544,2491 14570,2470 14595,2449 14618,2428 14641,2407 14660,2389 14675,2374 14689,2360 14697,2353 14698,2353 L 14704,2353 14630,2624 13975,2624 Z"/>
   </g>
  </g>
  <g class="com.sun.star.drawing.ClosedBezierShape">
   <g id="id37">
    <rect class="BoundingBox" stroke="none" fill="none" x="14938" y="1712" width="873" height="929"/>
    <path fill="rgb(255,191,85)" stroke="none" d="M 15274,2583 C 15299,2583 15325,2570 15351,2543 15378,2516 15402,2480 15423,2437 15444,2394 15463,2350 15479,2305 15495,2260 15509,2217 15520,2176 15534,2119 15544,2061 15549,2003 15555,1945 15553,1892 15542,1844 15531,1796 15509,1772 15476,1771 15451,1770 15425,1784 15399,1811 15372,1838 15348,1873 15327,1916 15306,1959 15287,2003 15271,2047 15255,2091 15241,2134 15231,2176 15216,2233 15206,2291 15200,2351 15194,2409 15197,2463 15208,2511 15219,2559 15242,2583 15274,2583 Z M 15591,2517 C 15493,2601 15382,2642 15259,2640 15135,2639 15046,2595 14990,2508 14935,2422 14924,2308 14959,2168 14995,2028 15061,1916 15159,1833 15257,1750 15367,1710 15491,1713 15613,1715 15702,1759 15758,1845 15814,1931 15825,2044 15790,2182 15755,2322 15689,2434 15591,2517 Z"/>
   </g>
  </g>
 </g>
</svg>