<?xml version="1.0" encoding="UTF-8" standalone="no"?>
<svg
   xmlns:dc="http://purl.org/dc/elements/1.1/"
   xmlns:cc="http://creativecommons.org/ns#"
   xmlns:rdf="http://www.w3.org/1999/02/22-rdf-syntax-ns#"
   xmlns:svg="http://www.w3.org/2000/svg"
   xmlns="http://www.w3.org/2000/svg"
   xmlns:sodipodi="http://sodipodi.sourceforge.net/DTD/sodipodi-0.dtd"
   xmlns:inkscape="http://www.inkscape.org/namespaces/inkscape"
   sodipodi:docname="Traza-Loteo.svg"
   inkscape:version="1.0 (4035a4fb49, 2020-05-01)"
   id="svg1050"
   version="1.1"
   viewBox="0 0 210 297"
   height="297mm"
   width="210mm">
  <defs
     id="defs1044" />
  <sodipodi:namedview
     inkscape:window-maximized="0"
     inkscape:window-y="1"
     inkscape:window-x="1574"
     inkscape:window-height="768"
     inkscape:window-width="1349"
     showgrid="false"
     inkscape:document-rotation="0"
     inkscape:current-layer="layer1"
     inkscape:document-units="mm"
     inkscape:cy="550.87286"
     inkscape:cx="360.0631"
     inkscape:zoom="0.49497475"
     inkscape:pageshadow="2"
     inkscape:pageopacity="0.0"
     borderopacity="1.0"
     bordercolor="#666666"
     pagecolor="#ffffff"
     id="base" />
  <metadata
     id="metadata1047">
    <rdf:RDF>
      <cc:Work
         rdf:about="">
        <dc:format>image/svg+xml</dc:format>
        <dc:type
           rdf:resource="http://purl.org/dc/dcmitype/StillImage" />
        <dc:title></dc:title>
      </cc:Work>
    </rdf:RDF>
  </metadata>
  <g
     id="layer1"
     inkscape:groupmode="layer"
     inkscape:label="Layer 1">
    <g
       id="g172"
       transform="matrix(0.32942378,0,0,-0.32942378,104.50281,47.614705)">
      <path
         d="m 0,0 -26.837,-19.595 7.656,-8.973 -10.396,-32.242 0.078,-14.662 c 1.746,2.183 3.243,4.573 5.012,6.739 1.112,1.362 2.21,2.696 3.201,4.15 0.041,0.06 0.092,0.128 0.138,0.192 -0.188,0.256 -0.311,0.576 -0.306,0.982 l 0.016,1.239 c 0.015,1.181 1.066,1.749 1.996,1.6 0.024,0.052 0.037,0.106 0.066,0.156 0.093,0.119 0.187,0.239 0.28,0.358 0.021,0.02 0.046,0.031 0.067,0.05 0.096,0.31 0.21,0.621 0.351,0.94 0.506,1.149 0.853,2.244 1.14,3.474 0.713,3.055 1.215,6.166 2.184,9.155 1.689,5.21 3.635,10.36 6.195,15.206 -0.044,0.214 -0.037,0.436 0.015,0.656 -0.096,0.469 0.041,0.974 0.55,1.385 5.108,4.126 10.975,7.174 16.094,11.275 1.664,1.332 3.334,2.684 4.944,4.081 0.782,0.678 1.868,1.519 2.595,2.487 -0.058,0.258 -0.052,0.547 0.06,0.868 0.073,0.209 0.164,0.409 0.241,0.616 C 10.126,-6.73 4.675,-3.905 0,0 Z"
         style="fill:none;stroke:#ffbc38;stroke-width:1;stroke-linecap:butt;stroke-linejoin:miter;stroke-miterlimit:10;stroke-dasharray:none;stroke-opacity:1"
         id="path174" />
    </g>
    <g
       id="g176"
       transform="matrix(0.32942378,0,0,-0.32942378,116.82094,40.181391)">
      <path
         d="m 0,0 c -1.226,3.246 -1.417,6.888 -1.626,10.306 -0.245,4.02 -0.434,8.037 -0.432,12.066 0.003,4.534 0.248,9.065 0.138,13.598 -0.074,3.014 -0.388,6.014 -0.621,9.016 L -22.979,-7.79 c 3.398,-2.834 7.028,-5.371 10.68,-7.875 C -8.724,-10.042 -4.882,-4.576 0,0 Z"
         style="fill:none;stroke:#ffbc38;stroke-width:1;stroke-linecap:butt;stroke-linejoin:miter;stroke-miterlimit:10;stroke-dasharray:none;stroke-opacity:1"
         id="path178" />
    </g>
    <g
       id="g180"
       transform="matrix(0.32942378,0,0,-0.32942378,121.93958,24.608143)">
      <path
         d="m 0,0 c 2.977,-0.924 5.946,-1.773 8.869,-2.866 1.477,-0.552 2.951,-1.122 4.475,-1.534 0.334,-0.091 0.674,-0.164 1.013,-0.239 0.211,0.515 0.403,1.033 0.628,1.545 2.261,5.14 4.576,10.232 6.441,15.534 1.821,5.176 3.539,10.39 5.411,15.548 0.989,2.727 2.101,5.408 3.036,8.143 L 29.857,36.142 11.282,35.221 -13.952,5.351 C -12.085,4.677 -10.19,4.076 -8.326,3.392 -5.502,2.356 -2.877,0.893 0,0 Z"
         style="fill:none;stroke:#ffbc38;stroke-width:1;stroke-linecap:butt;stroke-linejoin:miter;stroke-miterlimit:10;stroke-dasharray:none;stroke-opacity:1"
         id="path182" />
    </g>
    <g
       id="g184"
       transform="matrix(0.32942378,0,0,-0.32942378,125.0298,26.800888)">
      <path
         d="m 0,0 c -3.164,1.159 -6.319,2.206 -9.549,3.17 -3.302,0.985 -6.288,2.621 -9.521,3.78 -1.749,0.628 -3.51,1.211 -5.253,1.842 0.011,-0.265 0.016,-0.544 0.026,-0.802 0.178,-4.32 0.753,-8.61 0.85,-12.941 0.101,-4.538 -0.147,-9.073 -0.143,-13.61 0.003,-3.938 0.192,-7.865 0.432,-11.794 0.195,-3.188 0.281,-6.805 1.668,-9.745 0.365,-0.772 0.123,-1.492 -0.356,-1.965 -0.074,-0.258 -0.218,-0.513 -0.468,-0.743 -4.932,-4.56 -8.723,-10.027 -12.295,-15.676 -0.02,-0.032 -0.042,-0.064 -0.062,-0.096 0.186,-0.945 -0.486,-1.967 -1.38,-2.117 -2.641,-3.967 -5.457,-7.903 -7.28,-12.3 0.095,-0.264 0.133,-0.56 0.077,-0.889 -0.34,-1.998 -2.148,-3.661 -3.573,-4.957 -1.544,-1.403 -3.208,-2.67 -4.805,-4.012 -0.472,-0.396 -0.957,-0.772 -1.442,-1.15 2.14,-1.376 4.864,-1.923 7.27,-2.513 2.939,-0.72 5.821,-1.56 8.637,-2.677 4.072,-1.616 7.972,-3.749 12.032,-5.429 0.06,0.286 0.138,0.567 0.191,0.854 0.234,1.272 1.468,1.462 2.358,0.97 0.325,0.922 0.622,1.854 0.853,2.806 0.668,2.756 1.239,5.485 2.134,8.185 1.561,4.713 3.347,9.322 4.747,14.09 1.484,5.057 2.814,10.156 4.13,15.259 2.618,10.155 5.054,20.356 7.766,30.487 0.031,0.116 0.073,0.219 0.12,0.317 0.501,3.663 2.075,7.194 3.25,10.656 1.123,3.308 2.151,6.603 3.334,9.859 C 2.486,-0.806 1.24,-0.454 0,0 Z"
         style="fill:none;stroke:#ffbc38;stroke-width:1;stroke-linecap:butt;stroke-linejoin:miter;stroke-miterlimit:10;stroke-dasharray:none;stroke-opacity:1"
         id="path186" />
    </g>
    <g
       id="g188"
       transform="matrix(0.32942378,0,0,-0.32942378,149.97419,46.474735)">
      <path
         d="m 0,0 -15.601,-6.222 c -0.122,-1.03 -0.244,-2.061 -0.246,-3.101 -0.002,-0.813 0.01,-1.624 0.023,-2.433 0.485,-0.142 0.887,-0.522 1.008,-1.192 0.262,-1.446 0.347,-2.899 0.335,-4.353 0.267,0.011 0.535,0.021 0.803,0.036 1.423,0.079 2.793,0.029 4.21,-0.13 2.885,-0.324 5.719,-0.464 8.624,-0.449 2.579,0.014 5.123,-0.222 7.686,-0.345 l 2.386,14.01 z"
         style="fill:none;stroke:#ffbc38;stroke-width:1;stroke-linecap:butt;stroke-linejoin:miter;stroke-miterlimit:10;stroke-dasharray:none;stroke-opacity:1"
         id="path190" />
    </g>
    <g
       id="g192"
       transform="matrix(0.32942378,0,0,-0.32942378,149.97876,53.46692)">
      <path
         d="m 0,0 c -3.283,-0.007 -6.476,0.114 -9.74,0.468 -1.645,0.178 -3.304,0.082 -4.955,0.066 -0.219,-2.072 -0.572,-4.137 -0.926,-6.177 -1.675,-9.634 -2.964,-19.364 -5.179,-28.896 -0.549,-2.359 -1.25,-4.665 -1.626,-7.062 -0.374,-2.392 -0.59,-4.807 -0.937,-7.203 -0.593,-4.097 -1.902,-8.088 -2.087,-12.235 0.886,-0.176 1.778,-0.328 2.692,-0.415 2.686,-0.255 5.388,-0.252 8.078,-0.467 2.685,-0.213 5.318,-0.69 8.019,-0.751 0.765,-0.017 1.531,-0.003 2.297,10e-4 L 6.263,-0.282 C 4.178,-0.154 2.096,0.005 0,0 Z"
         style="fill:none;stroke:#ffbc38;stroke-width:1;stroke-linecap:butt;stroke-linejoin:miter;stroke-miterlimit:10;stroke-dasharray:none;stroke-opacity:1"
         id="path194" />
    </g>
    <g
       id="g196"
       transform="matrix(0.32942378,0,0,-0.32942378,134.63248,62.598184)">
      <path
         d="m 0,0 c -0.691,-0.474 -1.389,-0.932 -2.075,-1.406 -1.071,-1.343 -2.159,-2.668 -3.214,-4.037 -2.11,-2.735 -3.161,-5.832 -4.109,-9.112 -0.657,-2.276 -1.429,-4.342 -2.415,-6.375 0.072,-0.128 0.149,-0.253 0.222,-0.38 0.223,-0.086 0.444,-0.227 0.651,-0.445 0.984,-1.035 1.878,-2.136 2.742,-3.271 0.432,-0.57 0.865,-1.14 1.286,-1.718 0.329,-0.451 0.507,-0.542 0.885,-0.648 C -5.653,-17.99 -0.57,-9.307 0,0 Z"
         style="fill:none;stroke:#ffbc38;stroke-width:1;stroke-linecap:butt;stroke-linejoin:miter;stroke-miterlimit:10;stroke-dasharray:none;stroke-opacity:1"
         id="path198" />
    </g>
    <g
       id="g200"
       transform="matrix(0.32942378,0,0,-0.32942378,143.41097,54.889338)">
      <path
         d="M 0,0 C -0.456,0.126 -0.849,0.416 -1.023,0.87 -1.521,0.705 -2.038,0.595 -2.584,0.582 -3.211,0.567 -3.83,0.689 -4.437,0.846 -4.516,0.781 -4.596,0.74 -4.677,0.664 -5.321,0.108 -6.248,0.025 -6.915,0.564 -7.437,0.049 -7.93,-0.485 -8.417,-1.025 c 0.543,-0.992 0.05,-2.592 -1.443,-2.616 -0.25,-0.004 -0.499,0.01 -0.747,0.022 -0.94,-1.176 -1.854,-2.376 -2.785,-3.576 -1.278,-1.648 -2.641,-3.151 -4.121,-4.552 -0.586,-1.034 -1.185,-2.06 -1.81,-3.072 0.018,-0.441 -0.102,-0.894 -0.439,-1.259 -0.373,-0.404 -0.755,-0.798 -1.14,-1.189 -0.451,-0.672 -0.908,-1.34 -1.383,-1.994 -0.314,-0.432 -0.642,-0.832 -0.979,-1.215 0.561,-10.776 -5.946,-20.442 -6.062,-31.147 -0.001,-0.092 -0.016,-0.175 -0.029,-0.259 1.52,-0.545 3.047,-1.077 4.643,-1.282 2.347,-0.302 4.729,-0.099 7.081,-0.363 2.475,-0.277 4.818,-1.095 7.174,-1.866 0.531,-0.174 1.061,-0.336 1.592,-0.494 0.316,4.428 1.707,8.72 2.279,13.119 0.299,2.3 0.531,4.61 0.916,6.898 0.401,2.385 1.122,4.694 1.657,7.05 1.077,4.746 1.925,9.558 2.74,14.354 0.761,4.476 1.458,8.962 2.225,13.436 C 0.496,-0.846 0.171,-0.468 0,0 Z"
         style="fill:none;stroke:#ffbc38;stroke-width:1;stroke-linecap:butt;stroke-linejoin:miter;stroke-miterlimit:10;stroke-dasharray:none;stroke-opacity:1"
         id="path202" />
    </g>
    <g
       id="g204"
       transform="matrix(0.32942378,0,0,-0.32942378,140.85361,74.563712)">
      <path
         d="m 0,0 c -0.675,-3.494 -0.877,-7.05 -1.037,-10.605 -0.109,-2.434 -0.295,-4.844 -0.53,-7.253 1.942,0.11 2.626,-2.919 0.566,-3.309 -0.31,-0.059 -0.621,-0.061 -0.931,-0.084 -0.065,-0.551 -0.126,-1.101 -0.196,-1.653 -0.538,-4.262 -1.063,-8.514 -1.154,-12.812 -0.045,-2.092 -0.008,-4.221 -0.262,-6.3 -0.145,-1.19 -0.504,-2.474 -0.562,-3.716 1.322,-0.646 2.892,-0.678 4.342,-0.759 2.005,-0.111 3.939,-0.382 5.909,-0.773 2.34,-0.465 4.668,-0.992 6.997,-1.507 0.531,-0.117 1.055,-0.276 1.578,-0.445 l 8.039,47.195 c -0.425,0 -0.849,-0.011 -1.274,-0.005 -2.453,0.036 -4.829,0.381 -7.26,0.645 C 9.971,-0.921 5.659,-1.136 1.44,-0.33 0.957,-0.238 0.477,-0.124 0,0 Z"
         style="fill:none;stroke:#ffbc38;stroke-width:1;stroke-linecap:butt;stroke-linejoin:miter;stroke-miterlimit:10;stroke-dasharray:none;stroke-opacity:1"
         id="path206" />
    </g>
    <g
       id="g208"
       transform="matrix(0.32942378,0,0,-0.32942378,137.37192,73.617343)">
      <path
         d="m 0,0 c -1.915,0.156 -3.841,0.072 -5.756,0.235 -2.071,0.176 -3.971,0.726 -5.928,1.407 -0.683,0.237 -1.366,0.47 -2.054,0.693 -0.276,-1.34 -0.335,-2.71 -0.365,-4.094 -0.044,-1.955 -0.156,-3.881 -0.377,-5.825 -0.258,-2.266 -0.623,-4.538 -0.714,-6.819 -0.02,-0.482 -0.004,-0.964 -0.009,-1.446 1.221,-0.166 2.44,-0.343 3.655,-0.541 2.518,-0.41 5.023,-0.896 7.511,-1.454 2.409,-0.541 4.813,-1.123 7.163,-1.88 0.782,-0.252 1.634,-0.555 2.501,-0.782 0.239,2.511 0.425,5.023 0.541,7.561 0.169,3.711 0.423,7.429 1.152,11.074 C 4.915,-1.059 2.518,-0.205 0,0 Z"
         style="fill:none;stroke:#ffbc38;stroke-width:1;stroke-linecap:butt;stroke-linejoin:miter;stroke-miterlimit:10;stroke-dasharray:none;stroke-opacity:1"
         id="path210" />
    </g>
    <g
       id="g212"
       transform="matrix(0.32942378,0,0,-0.32942378,136.16638,80.668098)">
      <path
         d="m 0,0 c -2.625,0.617 -5.27,1.153 -7.929,1.605 -1.182,0.201 -2.367,0.378 -3.554,0.542 0.029,-0.633 0.048,-1.267 0.092,-1.9 0.038,-0.557 -0.289,-1.055 -0.742,-1.36 1.292,-3.377 2.888,-6.635 4.15,-10.025 1.418,-3.807 2.403,-7.799 3.346,-11.757 0.519,-0.134 1.041,-0.258 1.564,-0.372 1.428,-0.311 2.817,-0.643 4.201,-1.114 1.424,-0.485 2.852,-0.968 4.249,-1.531 0.482,-0.194 0.981,-0.396 1.471,-0.617 0.082,0.856 0.228,1.71 0.362,2.563 0.328,2.081 0.297,4.221 0.34,6.323 0.091,4.47 0.604,8.88 1.165,13.313 0.079,0.632 0.148,1.262 0.221,1.893 -0.694,0.153 -1.384,0.331 -2.06,0.538 C 4.595,-1.203 2.324,-0.547 0,0 Z"
         style="fill:none;stroke:#ffbc38;stroke-width:1;stroke-linecap:butt;stroke-linejoin:miter;stroke-miterlimit:10;stroke-dasharray:none;stroke-opacity:1"
         id="path214" />
    </g>
    <g
       id="g216"
       transform="matrix(0.32942378,0,0,-0.32942378,111.19331,56.797098)">
      <path
         d="M 0,0 C -0.598,0.188 -1.208,0.36 -1.823,0.523 -1.825,0.512 -1.824,0.502 -1.826,0.491 -2.565,-3.057 -5.366,-5.83 -6.567,-9.22 c -1.428,-4.029 -2.391,-8.212 -3.198,-12.402 -0.738,-3.834 -1.74,-7.6 -2.507,-11.429 -0.651,-3.249 -1.505,-6.782 -3.862,-9.24 4.041,-1.298 8.099,-2.612 12.063,-4.131 2.32,-0.889 4.818,-2.15 7.348,-2.602 0.147,0.189 0.34,0.328 0.556,0.425 2.145,7.744 4.646,15.382 6.883,23.099 1.143,3.943 2.041,7.961 3.246,11.884 0.694,2.261 1.448,4.504 2.094,6.777 C 10.689,-4.584 5.57,-1.754 0,0 Z"
         style="fill:none;stroke:#ffbc38;stroke-width:1;stroke-linecap:butt;stroke-linejoin:miter;stroke-miterlimit:10;stroke-dasharray:none;stroke-opacity:1"
         id="path218" />
    </g>
    <g
       id="g220"
       transform="matrix(0.32942378,0,0,-0.32942378,104.9605,70.076399)">
      <path
         d="m 0,0 c 2.533,2.31 3.017,6.251 3.633,9.444 0.722,3.742 1.73,7.414 2.452,11.159 0.771,3.997 1.751,8.034 3.171,11.855 0.655,1.761 1.505,3.33 2.492,4.921 0.83,1.339 1.729,2.716 2.066,4.275 -3.131,0.778 -6.238,1.666 -8.799,3.621 -3.91,-2.728 -8.039,-5.149 -11.81,-8.071 -0.004,-0.255 -0.057,-0.521 -0.209,-0.795 -2.659,-4.788 -4.571,-9.88 -6.31,-15.064 -0.942,-2.808 -1.464,-5.712 -2.108,-8.598 -0.289,-1.293 -0.523,-2.636 -1.046,-3.858 -0.295,-0.691 -0.984,-1.637 -0.86,-2.425 0.015,-0.102 0.011,-0.195 0.012,-0.29 0.021,-0.024 0.044,-0.04 0.066,-0.066 2.15,-2.639 5.708,-3.638 8.854,-4.541 2.657,-0.763 5.262,-1.617 7.877,-2.473 C -0.467,-0.592 -0.306,-0.279 0,0 Z"
         style="fill:none;stroke:#ffbc38;stroke-width:1;stroke-linecap:butt;stroke-linejoin:miter;stroke-miterlimit:10;stroke-dasharray:none;stroke-opacity:1"
         id="path222" />
    </g>
    <g
       id="g224"
       transform="matrix(0.32942378,0,0,-0.32942378,109.55535,73.16511)">
      <path
         d="m 0,0 c -4.263,1.63 -8.631,3.02 -12.973,4.424 -1.96,0.633 -3.868,1.417 -5.84,2.009 -1.749,0.525 -3.522,0.967 -5.272,1.49 -2.776,0.83 -5.767,1.863 -8.049,3.745 0.738,-2.067 1.55,-4.108 2.283,-6.179 1.195,-3.377 1.953,-6.895 2.96,-10.331 0.961,-3.277 2.006,-6.529 3.157,-9.744 1.042,-2.911 2.142,-5.763 2.816,-8.79 1.24,-5.574 1.373,-11.304 2.256,-16.933 1.764,-11.252 5.293,-22.213 5.92,-33.626 2.475,-0.14 4.923,-0.557 7.371,-0.952 2.968,-0.478 5.964,-0.684 8.925,-1.216 3.047,-0.547 6.067,-1.308 9.153,-1.612 1.94,-0.191 3.898,-0.337 5.803,-0.738 -0.21,1.138 -0.407,2.278 -0.585,3.424 -0.019,0.121 -0.023,0.237 -0.02,0.349 -0.205,0.912 -0.41,1.825 -0.638,2.732 -0.879,3.501 -1.775,7.005 -2.879,10.442 -1.985,6.186 -4.247,12.246 -5.918,18.529 -0.764,2.87 -1.533,5.83 -2.656,8.584 -0.896,2.195 -2.366,4.108 -3.295,6.289 -0.892,2.091 -1.06,3.966 -0.464,6.163 0.586,2.164 1.551,4.198 2.404,6.264 1.68,4.067 3.148,8.517 3.436,12.97 C 5.169,-2.231 2.532,-0.968 0,0 Z"
         style="fill:none;stroke:#ffbc38;stroke-width:1;stroke-linecap:butt;stroke-linejoin:miter;stroke-miterlimit:10;stroke-dasharray:none;stroke-opacity:1"
         id="path226" />
    </g>
    <g
       id="g228"
       transform="matrix(0.32942378,0,0,-0.32942378,97.37949,70.856773)">
      <path
         d="m 0,0 c -1.555,-1.873 -2.905,-3.912 -4.359,-5.866 l 1.718,0.168 10.25,-37.549 2.507,-98.363 -4.483,-21.885 c 2.696,-2.112 5.112,-4.682 7.539,-7.066 3.115,4.673 6.004,9.363 6.946,15.028 1.065,6.405 1.184,12.924 1.12,19.403 -0.065,6.582 -0.141,13.152 -0.069,19.736 0.033,2.977 -0.015,5.96 -0.058,8.943 -0.125,0.238 -0.237,0.483 -0.325,0.751 -0.137,0.416 -0.015,0.89 0.181,1.263 0.034,0.064 0.079,0.117 0.122,0.172 -0.034,2.871 -0.049,5.74 0.042,8.602 0.138,4.354 0.651,8.901 0.025,13.258 -0.146,0.257 -0.237,0.549 -0.246,0.856 -0.008,0.263 -0.028,0.525 -0.039,0.788 -0.138,0.627 -0.296,1.251 -0.496,1.866 -0.197,0.609 -0.048,1.105 0.27,1.455 -0.491,5.307 -1.554,10.544 -2.693,15.753 -1.262,5.765 -2.605,11.526 -3.342,17.388 -0.706,5.616 -0.953,11.269 -2.525,16.742 -0.847,2.946 -2.045,5.783 -3.029,8.685 -1.097,3.235 -2.095,6.503 -3.012,9.793 C 5.206,-7.072 4.475,-4.071 3.389,-1.14 2.933,0.093 2.463,1.319 2.006,2.549 1.358,1.688 0.695,0.838 0,0"
         style="fill:#ffbc38;fill-opacity:1;fill-rule:nonzero;stroke:none"
         id="path230" />
    </g>
    <g
       style="fill:#ffffff"
       id="g232"
       transform="matrix(0.32942378,0,0,-0.32942378,97.37949,70.856773)">
      <path
         d="m 0,0 c -1.555,-1.873 -2.905,-3.912 -4.359,-5.866 l 1.718,0.168 10.25,-37.549 2.507,-98.363 -4.483,-21.885 c 2.696,-2.112 5.112,-4.682 7.539,-7.066 3.115,4.673 6.004,9.363 6.946,15.028 1.065,6.405 1.184,12.924 1.12,19.403 -0.065,6.582 -0.141,13.152 -0.069,19.736 0.033,2.977 -0.015,5.96 -0.058,8.943 -0.125,0.238 -0.237,0.483 -0.325,0.751 -0.137,0.416 -0.015,0.89 0.181,1.263 0.034,0.064 0.079,0.117 0.122,0.172 -0.034,2.871 -0.049,5.74 0.042,8.602 0.138,4.354 0.651,8.901 0.025,13.258 -0.146,0.257 -0.237,0.549 -0.246,0.856 -0.008,0.263 -0.028,0.525 -0.039,0.788 -0.138,0.627 -0.296,1.251 -0.496,1.866 -0.197,0.609 -0.048,1.105 0.27,1.455 -0.491,5.307 -1.554,10.544 -2.693,15.753 -1.262,5.765 -2.605,11.526 -3.342,17.388 -0.706,5.616 -0.953,11.269 -2.525,16.742 -0.847,2.946 -2.045,5.783 -3.029,8.685 -1.097,3.235 -2.095,6.503 -3.012,9.793 C 5.206,-7.072 4.475,-4.071 3.389,-1.14 2.933,0.093 2.463,1.319 2.006,2.549 1.358,1.688 0.695,0.838 0,0 Z"
         style="fill:#ffffff;stroke:#ffbc38;stroke-width:1;stroke-linecap:butt;stroke-linejoin:miter;stroke-miterlimit:10;stroke-dasharray:none;stroke-opacity:1"
         id="path234" />
    </g>
    <g
       id="g236"
       transform="matrix(0.32942378,0,0,-0.32942378,107.50767,142.12352)">
      <path
         d="m 0,0 c 0.435,-1.87 0.731,-3.774 0.767,-5.68 4.754,-2.492 9.331,-5.324 14.153,-7.696 3.015,-1.483 6.107,-2.852 9.34,-3.789 2.497,-0.724 5.257,-1.315 7.818,-0.575 0.36,0.104 0.679,0.087 0.955,-0.005 0.428,3.479 0.72,6.967 0.704,10.476 -0.018,3.955 -0.199,8.773 -2.643,12.078 -2.658,3.596 -6.725,6.059 -10.303,8.626 -4.426,3.176 -8.485,6.862 -12.822,10.163 -4.453,3.389 -9.034,6.539 -13.764,9.525 -0.66,0.416 -1.325,0.835 -1.989,1.255 1.638,-5.249 2.715,-10.66 4.44,-15.885 C -1.545,13.045 1.644,7.473 1.421,1.588 1.385,0.642 0.727,0.116 0,0 Z"
         style="fill:none;stroke:#ffbc38;stroke-width:1;stroke-linecap:butt;stroke-linejoin:miter;stroke-miterlimit:10;stroke-dasharray:none;stroke-opacity:1"
         id="path238" />
    </g>
    <g
       id="g240"
       transform="matrix(0.32942378,0,0,-0.32942378,96.373209,161.50057)">
      <path
         d="m 0,0 c 1.445,3.026 3.324,5.774 5.126,8.613 1.964,3.095 3.819,6.284 5.486,9.549 2.981,5.838 4.827,12.068 7.215,18.15 1.043,2.658 2.088,5.398 2.436,8.25 0.375,3.087 -0.12,6.256 -0.454,9.327 -1.402,12.893 -3.845,25.822 -3.036,38.842 0.026,0.418 0.174,0.752 0.393,1.007 -0.249,0.896 -0.481,1.799 -0.667,2.719 -0.19,0.937 0.472,1.962 1.394,2.098 -3.64,2.57 -7.116,5.359 -10.13,8.594 L 7.601,106.354 10.355,72.382 11.336,58.447 3.364,24.902 -3.79,1.281 C -2.551,0.751 -1.304,0.23 0,0 Z"
         style="fill:none;stroke:#ffbc38;stroke-width:1;stroke-linecap:butt;stroke-linejoin:miter;stroke-miterlimit:10;stroke-dasharray:none;stroke-opacity:1"
         id="path242" />
    </g>
    <g
       id="g244"
       transform="matrix(0.32942378,0,0,-0.32942378,144.94724,91.718557)">
      <path
         d="m 0,0 c -1.732,0.393 -3.472,0.757 -5.211,1.122 -0.597,-12.684 -3.817,-25.077 -5.039,-37.697 1.869,-0.483 3.713,-1.021 5.55,-1.622 L 1.725,-0.473 C 1.157,-0.299 0.585,-0.133 0,0 Z"
         style="fill:none;stroke:#ffbc38;stroke-width:1;stroke-linecap:butt;stroke-linejoin:miter;stroke-miterlimit:10;stroke-dasharray:none;stroke-opacity:1"
         id="path246" />
    </g>
    <g
       id="g248"
       transform="matrix(0.32942378,0,0,-0.32942378,129.82267,101.28189)">
      <path
         d="m 0,0 c 1.315,11.664 -0.711,23.664 2.394,35.126 0.058,0.217 0.151,0.394 0.259,0.549 -4.114,1.103 -8.162,2.455 -12.231,3.713 -5.09,1.575 -10.063,2.96 -15.417,3.068 -0.121,0.002 -0.246,10e-4 -0.368,0.002 C -19.823,28.707 -14.668,14.799 -9.44,0.927 -6.278,0.422 -3.117,-0.089 0.043,-0.606 -0.004,-0.426 -0.026,-0.227 0,0 Z"
         style="fill:none;stroke:#ffbc38;stroke-width:1;stroke-linecap:butt;stroke-linejoin:miter;stroke-miterlimit:10;stroke-dasharray:none;stroke-opacity:1"
         id="path250" />
    </g>
    <g
       id="g252"
       transform="matrix(0.32942378,0,0,-0.32942378,140.55555,90.972147)">
      <path
         d="M 0,0 C -1.434,0.106 -2.932,0.288 -4.272,0.845 -4.565,0.642 -4.936,0.553 -5.366,0.635 -5.8,0.544 -6.268,0.645 -6.69,0.985 c -2.817,0.784 -5.715,1.039 -8.639,1.166 -3.244,0.14 -6.374,0.386 -9.565,1.029 -0.662,0.133 -1.322,0.279 -1.979,0.431 0.028,-0.21 0.018,-0.437 -0.049,-0.683 -3.022,-11.157 -0.991,-22.905 -2.272,-34.268 -0.049,-0.434 -0.23,-0.775 -0.48,-1.032 4.494,-0.748 8.984,-1.523 13.464,-2.359 5.35,-0.999 10.681,-2.104 15.986,-3.321 1.296,12.568 4.487,24.922 4.995,37.568 C 3.188,-0.244 1.622,-0.12 0,0 Z"
         style="fill:none;stroke:#ffbc38;stroke-width:1;stroke-linecap:butt;stroke-linejoin:miter;stroke-miterlimit:10;stroke-dasharray:none;stroke-opacity:1"
         id="path254" />
    </g>
    <g
       id="g256"
       transform="matrix(0.32942378,0,0,-0.32942378,123.44592,100.45112)">
      <path
         d="M 0,0 C 2.03,-0.331 4.061,-0.654 6.092,-0.98 0.949,12.682 -4.137,26.372 -9.619,39.902 c -7.062,-0.195 -14.599,-0.889 -21.116,1.747 0.459,-1.683 0.909,-3.373 1.415,-5.05 1.888,-6.252 4.417,-12.316 6.071,-18.638 0.843,-3.222 1.759,-6.434 2.453,-9.692 0.338,-1.586 0.831,-3.178 0.884,-4.789 C -13.292,2.219 -6.651,1.083 0,0 Z"
         style="fill:none;stroke:#ffbc38;stroke-width:1;stroke-linecap:butt;stroke-linejoin:miter;stroke-miterlimit:10;stroke-dasharray:none;stroke-opacity:1"
         id="path258" />
    </g>
    <g
       id="g260"
       transform="matrix(0.32942378,0,0,-0.32942378,105.51124,107.45546)">
      <path
         d="m 0,0 c 6.071,-1.446 12.269,-2.352 18.491,-2.815 5.614,-0.418 11.232,-0.242 16.832,-0.905 1.256,-0.149 2.509,-0.326 3.758,-0.519 -2.944,8.619 -5.676,17.302 -7.566,26.197 -2.443,0.748 -4.987,0.844 -7.523,1.132 -2.883,0.327 -5.715,1.016 -8.564,1.543 -2.963,0.548 -5.962,0.76 -8.936,1.229 -2.16,0.341 -4.306,0.721 -6.478,0.887 C 0.457,21.948 -0.196,16.99 -0.21,12.223 -0.217,9.677 -0.208,7.13 -0.2,4.583 0.01,4.241 0.182,3.896 0.31,3.506 0.447,3.09 0.326,2.616 0.128,2.242 0.048,2.089 -0.067,1.964 -0.195,1.852 -0.192,1.243 -0.186,0.634 -0.183,0.025 -0.122,0.016 -0.063,0.015 0,0 Z"
         style="fill:none;stroke:#ffbc38;stroke-width:1;stroke-linecap:butt;stroke-linejoin:miter;stroke-miterlimit:10;stroke-dasharray:none;stroke-opacity:1"
         id="path262" />
    </g>
    <g
       id="g264"
       transform="matrix(0.32942378,0,0,-0.32942378,116.1526,109.69584)">
      <path
         d="m 0,0 c -5.618,0.485 -11.257,0.308 -16.877,0.862 -5.237,0.516 -10.456,1.33 -15.585,2.512 0.056,-8.27 0.132,-16.54 0.112,-24.808 -0.016,-6.521 -0.224,-13.296 -1.741,-19.669 -0.011,-0.045 -0.028,-0.089 -0.039,-0.135 2.554,1.521 5.717,2.255 8.53,2.682 3.118,0.473 6.715,0.803 9.71,-0.421 3.926,-1.606 6.846,-5.142 10.02,-7.823 3.591,-3.033 7.647,-5.529 11.506,-8.198 1.369,-0.947 2.659,-2.016 3.958,-3.053 0.061,-0.048 0.124,-0.105 0.184,-0.156 1.761,10.558 4.113,21.034 6.378,31.469 0.062,0.286 0.188,0.512 0.347,0.693 -0.614,1.979 -1.231,3.957 -1.88,5.921 -2.109,6.38 -4.394,12.726 -6.609,19.096 C 5.352,-0.588 2.681,-0.231 0,0 Z"
         style="fill:none;stroke:#ffbc38;stroke-width:1;stroke-linecap:butt;stroke-linejoin:miter;stroke-miterlimit:10;stroke-dasharray:none;stroke-opacity:1"
         id="path266" />
    </g>
    <g
       id="g268"
       transform="matrix(0.32942378,0,0,-0.32942378,118.60105,129.66732)">
      <path
         d="m 0,0 c -1.247,0.996 -2.485,2.013 -3.807,2.908 -3.815,2.583 -7.686,5.134 -11.279,8.024 -3.018,2.428 -5.664,5.852 -9.247,7.48 -2.559,1.163 -5.955,0.717 -8.625,0.249 -2.716,-0.477 -6.097,-1.176 -8.186,-3.123 -0.596,-0.555 -1.298,-0.564 -1.862,-0.281 -1.538,-3.46 -3.737,-6.682 -5.839,-9.789 5.275,-3.802 11.051,-7.043 16.322,-10.585 5.016,-3.369 9.816,-7.082 14.52,-10.871 2.117,-1.705 4.153,-3.527 6.354,-5.123 1.864,-1.351 3.768,-2.647 5.598,-4.046 1.748,-1.335 3.509,-2.768 4.99,-4.415 0.088,1.123 0.205,2.2 0.273,3.135 0.598,8.165 0.781,16.354 1.447,24.517 0.036,0.432 0.181,0.771 0.39,1.026 C 0.691,-0.583 0.34,-0.271 0,0 Z"
         style="fill:none;stroke:#ffbc38;stroke-width:1;stroke-linecap:butt;stroke-linejoin:miter;stroke-miterlimit:10;stroke-dasharray:none;stroke-opacity:1"
         id="path270" />
    </g>
    <g
       id="g272"
       transform="matrix(0.32942378,0,0,-0.32942378,139.73043,122.42876)">
      <path
         d="m 0,0 c -8.186,2.395 -16.72,3.373 -25.24,3.874 -0.633,-4.818 -1.422,-9.614 -2.151,-14.418 -1.456,-9.6 -2.036,-19.298 -3.407,-28.906 -0.245,-1.716 -0.55,-3.398 -0.633,-5.131 -0.076,-1.58 -0.117,-3.163 -0.243,-4.741 -0.165,-2.059 -0.344,-4.502 -1.522,-6.275 4.729,-0.952 9.415,-2.069 13.906,-3.795 3.435,-1.32 6.79,-2.84 10.23,-4.145 L 1.68,-0.49 C 1.119,-0.327 0.559,-0.164 0,0 Z"
         style="fill:none;stroke:#ffbc38;stroke-width:1;stroke-linecap:butt;stroke-linejoin:miter;stroke-miterlimit:10;stroke-dasharray:none;stroke-opacity:1"
         id="path274" />
    </g>
    <g
       id="g276"
       transform="matrix(0.32942378,0,0,-0.32942378,127.86436,140.18942)">
      <path
         d="m 0,0 c -0.259,-0.19 0.068,0.155 0.117,0.281 0.101,0.261 0.207,0.509 0.285,0.781 0.191,0.661 0.314,1.341 0.404,2.022 0.22,1.664 0.273,3.351 0.343,5.026 0.151,3.621 0.831,7.159 1.253,10.756 0.533,4.536 0.935,9.086 1.445,13.625 0.957,8.528 2.464,16.971 3.56,25.477 -0.956,0.043 -1.913,0.087 -2.867,0.123 -4.07,0.154 -8.15,0.317 -12.184,0.907 -1.776,0.26 -4.147,0.581 -5.976,1.539 0.376,-1.164 0.761,-2.325 1.163,-3.479 0.619,-1.78 -1.753,-2.617 -2.868,-1.492 -0.03,-1.564 -0.207,-3.104 -0.453,-4.708 -1.518,-9.926 -3.97,-19.703 -4.559,-29.747 -0.364,-6.203 -0.456,-12.437 -1.107,-18.61 3.629,0.067 7.319,-0.77 10.804,-1.54 3.259,-0.721 6.568,-1.319 9.874,-1.944 C -0.628,-0.604 -0.358,-0.262 0,0 Z"
         style="fill:none;stroke:#ffbc38;stroke-width:1;stroke-linecap:butt;stroke-linejoin:miter;stroke-miterlimit:10;stroke-dasharray:none;stroke-opacity:1"
         id="path278" />
    </g>
    <g
       id="g280"
       transform="matrix(0.32942378,0,0,-0.32942378,133.02486,143.04871)">
      <path
         d="m 0,0 c -4.5,1.717 -9.307,2.78 -14.012,3.766 -0.042,0.009 -0.084,0.016 -0.125,0.025 -0.179,-0.427 -0.371,-1.009 -0.483,-1.378 -0.331,-1.093 -10.743,-66.663 -11.004,-71.46 0.933,-0.202 1.865,-0.408 2.798,-0.62 5.588,-1.267 11.006,-3.218 16.606,-4.387 1.628,-0.339 3.267,-0.635 4.901,-0.95 L 10.719,-4.332 C 7.109,-2.98 3.601,-1.374 0,0 Z"
         style="fill:none;stroke:#ffbc38;stroke-width:1;stroke-linecap:butt;stroke-linejoin:miter;stroke-miterlimit:10;stroke-dasharray:none;stroke-opacity:1"
         id="path282" />
    </g>
    <g
       id="g284"
       transform="matrix(0.32942378,0,0,-0.32942378,127.25311,141.57764)">
      <path
         d="m 0,0 c -3.231,0.621 -6.466,1.198 -9.685,1.91 -3.286,0.726 -6.88,1.616 -10.327,1.426 -0.273,-1.887 -0.597,-3.768 -1.032,-5.637 -0.208,-0.893 -1.228,-1.418 -2.083,-1.182 -0.005,10e-4 -0.009,0.004 -0.015,0.005 0.379,-2.9 0.389,-5.868 0.25,-8.752 -0.231,-4.767 -0.918,-9.501 -1.653,-14.212 -0.762,-4.89 -1.413,-9.78 -2.015,-14.692 -1.217,-9.925 -2.537,-19.927 -5.363,-29.54 1.106,0.28 2.391,0.148 3.51,0.096 5.747,-0.262 11.366,-1.12 16.969,-2.24 C -11.074,-67.393 -0.269,-0.727 0,0 Z"
         style="fill:none;stroke:#ffbc38;stroke-width:1;stroke-linecap:butt;stroke-linejoin:miter;stroke-miterlimit:10;stroke-dasharray:none;stroke-opacity:1"
         id="path286" />
    </g>
    <g
       id="g288"
       transform="matrix(0.32942378,0,0,-0.32942378,102.62682,179.84189)">
      <path
         d="m 0,0 c 0.75,3.701 1.631,7.369 2.756,10.975 1.889,6.053 4.145,11.987 5.938,18.07 0.928,3.146 1.735,6.32 2.381,9.535 0.578,2.875 1.134,5.755 1.995,8.558 -3.397,0.885 -6.84,1.493 -10.33,1.959 -0.756,0.101 -1.515,0.243 -2.277,0.407 -0.863,-9.4 -4.056,-18.238 -7.211,-27.07 -0.78,-2.182 -1.55,-4.367 -2.27,-6.57 -0.719,-2.203 -1.602,-4.507 -1.885,-6.818 -0.426,-3.479 0.712,-6.859 1.574,-10.213 C -6.31,-0.232 -3.161,0.055 0,0 Z"
         style="fill:none;stroke:#ffbc38;stroke-width:1;stroke-linecap:butt;stroke-linejoin:miter;stroke-miterlimit:10;stroke-dasharray:none;stroke-opacity:1"
         id="path290" />
    </g>
    <g
       id="g292"
       transform="matrix(0.32942378,0,0,-0.32942378,111.07306,165.73837)">
      <path
         d="m 0,0 c -3.094,1.182 -6.16,2.38 -9.312,3.385 -0.979,-3.2 -1.559,-6.499 -2.243,-9.773 -0.753,-3.6 -1.749,-7.154 -2.851,-10.662 -1.904,-6.057 -4.159,-11.999 -5.941,-18.095 -0.757,-2.593 -1.361,-5.209 -1.879,-7.841 1.46,-0.128 2.914,-0.308 4.35,-0.517 5.389,-0.784 10.678,-2.08 16.012,-3.147 0.475,2.628 0.953,5.255 1.438,7.881 2.257,12.213 4.157,24.507 7.357,36.517 C 4.562,-1.703 2.246,-0.858 0,0 Z"
         style="fill:none;stroke:#ffbc38;stroke-width:1;stroke-linecap:butt;stroke-linejoin:miter;stroke-miterlimit:10;stroke-dasharray:none;stroke-opacity:1"
         id="path294" />
    </g>
    <g
       id="g296"
       transform="matrix(0.32942378,0,0,-0.32942378,120.84689,166.19201)">
      <path
         d="m 0,0 c -2.179,0.325 -4.414,0.45 -6.609,0.609 -1.224,0.089 -2.45,0.17 -3.677,0.189 -0.231,0.004 -0.482,-0.02 -0.732,-0.036 -0.482,-0.43 -1.179,-0.607 -1.904,-0.206 -0.2,0.111 -0.368,0.246 -0.51,0.395 -0.011,-0.033 -0.02,-0.066 -0.031,-0.099 -0.292,-0.874 -1.166,-1.429 -2.083,-1.182 -0.205,0.055 -0.406,0.125 -0.61,0.183 -0.142,-0.712 -0.682,-1.338 -1.618,-1.342 -0.537,-0.002 -1.073,0.023 -1.606,0.067 -1.733,-6.439 -3.107,-12.929 -4.271,-19.497 -1.475,-8.323 -3.066,-16.643 -4.573,-24.977 2.863,-0.481 5.747,-0.838 8.608,-1.338 3.972,-0.695 7.919,-1.523 11.849,-2.427 1.738,-0.399 3.468,-0.841 5.202,-1.26 0.419,3.041 0.876,6.077 1.423,9.106 1.294,7.165 2.995,14.215 4.88,21.244 1.69,6.306 3.348,12.647 3.855,19.169 C 5.068,-0.865 2.532,-0.378 0,0 Z"
         style="fill:none;stroke:#ffbc38;stroke-width:1;stroke-linecap:butt;stroke-linejoin:miter;stroke-miterlimit:10;stroke-dasharray:none;stroke-opacity:1"
         id="path298" />
    </g>
    <g
       id="g300"
       transform="matrix(0.32942378,0,0,-0.32942378,130.44715,168.46986)">
      <path
         d="m 0,0 c -4.847,1.057 -9.544,2.747 -14.379,3.885 -1.273,0.299 -2.552,0.598 -3.836,0.89 -0.615,-7.078 -2.452,-13.992 -4.334,-20.828 -1.929,-7.009 -3.497,-14.119 -4.742,-21.281 -0.432,-2.486 -0.78,-4.979 -1.107,-7.474 4.962,-1.229 9.916,-2.497 14.849,-3.821 3.643,-0.977 7.268,-1.985 10.931,-2.771 L 5.945,-1.127 C 3.953,-0.754 1.952,-0.426 0,0 Z"
         style="fill:none;stroke:#ffbc38;stroke-width:1;stroke-linecap:butt;stroke-linejoin:miter;stroke-miterlimit:10;stroke-dasharray:none;stroke-opacity:1"
         id="path302" />
    </g>
    <g
       id="g304"
       transform="matrix(0.32942378,0,0,-0.32942378,103.55172,180.98765)">
      <path
         d="m 0,0 c -0.502,-2.927 -0.931,-5.869 -1.357,-8.821 -1.974,-13.661 -3.702,-27.366 -6.43,-40.904 -0.038,-0.19 -0.105,-0.348 -0.183,-0.491 1.112,-0.174 2.224,-0.347 3.335,-0.521 6.329,-0.987 12.678,-1.843 19.027,-2.704 -0.036,0.909 -0.158,1.811 -0.175,2.721 -0.008,0.455 0.137,0.807 0.365,1.069 0.298,6.104 0.829,12.194 1.553,18.262 1.106,9.279 2.61,18.501 4.24,27.701 C 14.938,-2.605 9.549,-1.26 4.055,-0.478 2.736,-0.29 1.376,-0.12 0,0 Z"
         style="fill:none;stroke:#ffbc38;stroke-width:1;stroke-linecap:butt;stroke-linejoin:miter;stroke-miterlimit:10;stroke-dasharray:none;stroke-opacity:1"
         id="path306" />
    </g>
    <g
       id="g308"
       transform="matrix(0.32942378,0,0,-0.32942378,92.772072,196.04977)">
      <path
         d="m 0,0 c 0.376,0.329 0.606,1.09 0.765,1.852 0.241,1.151 0.296,2.341 0.337,3.514 0.091,2.59 -0.027,5.18 -0.063,7.769 -0.068,4.87 1.121,9.589 2.331,14.289 -2.626,0.753 -4.947,2.397 -7.407,3.527 -0.694,0.319 -0.927,1.238 -0.777,1.913 1.047,4.72 2.118,9.652 1.646,14.515 -0.2,2.062 -0.753,4.231 -2.047,5.892 -1.06,1.361 -2.487,2.188 -4.058,2.712 -1.545,-8.788 -1.039,-17.819 -2.622,-26.617 -1.55,-8.616 -5.236,-16.909 -5.484,-25.737 4.325,-0.955 8.598,-2.089 12.901,-3.172 1.364,-0.343 2.734,-0.644 4.108,-0.919 0.089,0.16 0.204,0.317 0.37,0.462 z"
         style="fill:none;stroke:#ffbc38;stroke-width:1;stroke-linecap:butt;stroke-linejoin:miter;stroke-miterlimit:10;stroke-dasharray:none;stroke-opacity:1"
         id="path310" />
    </g>
    <g
       id="g312"
       transform="matrix(0.32942378,0,0,-0.32942378,99.422345,181.4424)">
      <path
         d="M 0,0 C -0.794,-0.333 -1.785,-0.169 -2.243,0.558 -2.321,0.495 -2.394,0.434 -2.439,0.387 c -0.433,-0.454 -0.823,-0.946 -1.196,-1.449 -0.946,-1.276 -1.815,-2.61 -2.649,-3.961 -1.484,-2.408 -2.374,-5.054 -3.643,-7.571 -0.813,-1.614 -1.852,-3.267 -3.313,-4.083 -1.291,-5.196 -2.617,-10.335 -2.499,-15.775 0.059,-2.728 0.168,-5.471 -0.05,-8.195 -0.122,-1.521 -0.28,-3.393 -1.045,-4.841 2.714,-0.461 5.44,-0.859 8.167,-1.284 3.404,-0.531 6.808,-1.062 10.211,-1.593 -0.095,0.272 -0.13,0.579 -0.061,0.921 1.557,7.726 2.795,15.51 3.93,23.308 1.24,8.516 2.141,17.168 3.673,25.675 C 5.956,1.562 2.839,1.191 0,0 Z"
         style="fill:none;stroke:#ffbc38;stroke-width:1;stroke-linecap:butt;stroke-linejoin:miter;stroke-miterlimit:10;stroke-dasharray:none;stroke-opacity:1"
         id="path314" />
    </g>
    <g
       id="g316"
       transform="matrix(0.32942378,0,0,-0.32942378,88.842384,176.55582)">
      <path
         d="M 0,0 C 3.531,15.911 6.63,31.912 9.861,47.885 L 3.674,53.78 -19.243,-52.179 c 3.249,-1.21 6.696,-1.953 10.07,-2.594 0.123,-0.024 0.243,-0.053 0.366,-0.076 0.402,8.751 3.922,16.955 5.498,25.507 1.749,9.488 1.02,19.243 2.989,28.703 C -0.267,-0.386 -0.152,-0.175 0,0 Z"
         style="fill:none;stroke:#ffbc38;stroke-width:1;stroke-linecap:butt;stroke-linejoin:miter;stroke-miterlimit:10;stroke-dasharray:none;stroke-opacity:1"
         id="path318" />
    </g>
    <g
       id="g320"
       transform="matrix(0.32942378,0,0,-0.32942378,96.95293,162.59088)">
      <path
         d="m 0,0 c -0.223,-0.121 -0.467,-0.207 -0.76,-0.195 -0.065,0.003 -0.126,0.015 -0.19,0.02 -0.262,-0.031 -0.501,-0.004 -0.713,0.072 -2.678,0.364 -5.031,1.739 -7.609,2.526 -0.438,0.134 -0.737,0.387 -0.929,0.692 l -1.523,0.352 c -3.082,-15.27 -6.062,-30.56 -9.419,-45.772 4.693,-1.543 7.735,-5.322 8.492,-10.4 0.771,-5.171 -0.187,-10.456 -1.291,-15.534 0.817,-0.425 1.625,-0.869 2.445,-1.287 0.842,-0.43 1.95,-1.105 2.991,-1.402 0.209,0.852 0.411,1.704 0.596,2.558 0.315,1.452 1.919,1.491 2.772,0.704 0.474,0.981 0.901,1.988 1.325,2.989 1.022,2.416 2.32,4.597 3.802,6.764 0.958,1.399 2.448,3.959 4.318,4.763 -0.795,3.037 -1.642,6.081 -1.428,9.243 0.312,4.586 2.328,9.226 3.849,13.521 3.231,9.119 6.802,18.258 7.621,27.983 0.01,0.129 0.034,0.249 0.067,0.363 C 9.644,-0.717 4.8,0.928 0,0 Z"
         style="fill:none;stroke:#ffbc38;stroke-width:1;stroke-linecap:butt;stroke-linejoin:miter;stroke-miterlimit:10;stroke-dasharray:none;stroke-opacity:1"
         id="path322" />
    </g>
    <g
       id="g324"
       transform="matrix(0.32942378,0,0,-0.32942378,113.74621,182.76891)">
      <path
         d="m 0,0 c -2.416,0.408 -4.846,0.717 -7.264,1.109 -2.906,-16.365 -5.381,-32.795 -5.889,-49.437 -10e-4,-0.059 -0.014,-0.11 -0.021,-0.166 2.818,-0.385 5.635,-0.776 8.449,-1.186 5.59,-0.815 11.172,-1.694 16.735,-2.676 -0.53,2.45 -0.034,5.149 0.379,7.555 0.499,2.906 1.025,5.792 1.467,8.703 1.178,7.744 2.762,15.442 3.63,23.23 0.332,2.98 0.681,5.953 1.059,8.921 -2.225,0.541 -4.452,1.071 -6.684,1.576 C 7.928,-1.48 3.976,-0.671 0,0 Z"
         style="fill:none;stroke:#ffbc38;stroke-width:1;stroke-linecap:butt;stroke-linejoin:miter;stroke-miterlimit:10;stroke-dasharray:none;stroke-opacity:1"
         id="path326" />
    </g>
    <g
       id="g328"
       transform="matrix(0.32942378,0,0,-0.32942378,120.94864,184.33964)">
      <path
         d="m 0,0 c -0.422,-3.455 -0.815,-6.914 -1.28,-10.371 -1.003,-7.449 -2.657,-14.837 -3.496,-22.301 -0.297,-2.647 -0.9,-5.243 -1.364,-7.863 -0.398,-2.245 -0.941,-4.845 -0.209,-7.074 0.075,-0.229 0.095,-0.44 0.082,-0.636 3.452,-0.643 6.898,-1.317 10.329,-2.072 4.543,-1 9.064,-2.111 13.585,-3.212 L 25.65,-6.547 C 21.48,-5.657 17.357,-4.5 13.208,-3.406 8.814,-2.248 4.412,-1.102 0,0 Z"
         style="fill:none;stroke:#ffbc38;stroke-width:1;stroke-linecap:butt;stroke-linejoin:miter;stroke-miterlimit:10;stroke-dasharray:none;stroke-opacity:1"
         id="path330" />
    </g>
    <g
       id="g332"
       transform="matrix(0.32942378,0,0,-0.32942378,127.01457,111.9717)">
      <path
         d="m 0,0 c -6.959,1.875 -14.01,3.795 -21.135,5.187 0.664,-1.906 1.331,-3.811 1.998,-5.715 1.597,-4.559 3.188,-9.12 4.679,-13.715 0.695,-2.143 1.357,-4.301 2.025,-6.457 0.722,0.323 1.624,0.208 2.105,-0.693 0.148,-0.277 0.065,-0.177 0.243,-0.307 0.039,-0.028 0.486,-0.303 0.69,-0.404 0.646,-0.32 1.36,-0.512 2.057,-0.688 1.965,-0.497 3.988,-0.733 6.003,-0.913 3.676,-0.33 7.365,-0.408 11.05,-0.576 0.586,-0.027 1.173,-0.073 1.76,-0.114 0.199,0.064 0.407,0.095 0.612,0.096 -0.06,0.343 0.008,0.721 0.284,1.105 1.973,2.742 1.54,6.917 1.475,10.111 -0.067,3.294 -0.07,6.591 -0.08,9.887 C 9.048,-3.028 4.545,-1.225 0,0 Z"
         style="fill:none;stroke:#ffbc38;stroke-width:1;stroke-linecap:butt;stroke-linejoin:miter;stroke-miterlimit:10;stroke-dasharray:none;stroke-opacity:1"
         id="path334" />
    </g>
    <g
       id="g336"
       transform="matrix(0.32942378,0,0,-0.32942378,132.24883,110.95553)">
      <path
         d="m 0,0 c -0.027,9.08 2.66,14.061 4.033,23.021 -5.917,1.026 -15.644,3.04 -21.576,3.988 -0.411,-0.065 -19.397,3.116 -28.437,4.808 0.542,-2.43 1.122,-4.852 1.777,-7.256 1.733,-6.35 3.79,-12.603 5.929,-18.827 C -35.435,5.206 -4.044,0.191 0,0 Z"
         style="fill:none;stroke:#ffbc38;stroke-width:1;stroke-linecap:butt;stroke-linejoin:miter;stroke-miterlimit:10;stroke-dasharray:none;stroke-opacity:1"
         id="path338" />
    </g>
    <g
       id="g340"
       transform="matrix(0.32942378,0,0,-0.32942378,140.40735,104.62696)">
      <path
         d="m 0,0 c -7.034,1.63 -10.32,2.004 -17.422,3.272 -1.352,-8.803 -5.907,-47.383 -7.786,-50.219 2.981,-0.223 19.969,-2.676 25.403,-4.233 L 8.509,-2.373 C 5.701,-1.433 2.887,-0.669 0,0 Z"
         style="fill:none;stroke:#ffbc38;stroke-width:1;stroke-linecap:butt;stroke-linejoin:miter;stroke-miterlimit:10;stroke-dasharray:none;stroke-opacity:1"
         id="path342" />
    </g>
    <g
       id="g344"
       transform="matrix(0.32942378,0,0,-0.32942378,118.66315,81.119377)">
      <path
         d="m 0,0 c 3.021,9.917 5.619,19.956 8.245,29.984 2.488,9.502 5.024,18.998 8.037,28.35 0.305,0.948 0.643,1.885 0.961,2.829 -2.016,0.589 -4.036,1.173 -6.103,1.595 -4.504,0.92 -9.067,1.475 -13.468,2.731 -0.37,-0.3 -0.844,-0.402 -1.298,-0.351 -0.606,-2.027 -1.278,-4.035 -1.895,-6.059 -1.172,-3.847 -2.054,-7.783 -3.174,-11.647 -2.296,-7.923 -4.878,-15.761 -7.06,-23.717 -0.054,-0.199 -0.139,-0.363 -0.236,-0.51 0.059,-0.473 -0.057,-0.973 -0.344,-1.352 -0.207,-5.284 -1.996,-10.573 -4.047,-15.368 -0.846,-1.979 -1.853,-4.064 -2.186,-6.207 -0.321,-2.066 1.102,-4.081 2.076,-5.792 1.303,-2.288 2.226,-4.701 3.008,-7.165 0.114,-0.039 0.229,-0.091 0.344,-0.158 4.434,-2.594 9.811,-2.741 14.813,-2.703 1.946,0.015 3.895,0.082 5.845,0.135 -1.776,4.319 -3.589,8.622 -5.471,12.897 C -2.596,-1.047 -1.154,0.231 0,0 Z"
         style="fill:none;stroke:#ffbc38;stroke-width:1;stroke-linecap:butt;stroke-linejoin:miter;stroke-miterlimit:10;stroke-dasharray:none;stroke-opacity:1"
         id="path346" />
    </g>
    <g
       id="g348"
       transform="matrix(0.32942378,0,0,-0.32942378,127.57001,61.70393)">
      <path
         d="m 0,0 c -2.235,0.219 -4.399,0.718 -6.545,1.301 -0.74,-2.191 -1.459,-4.388 -2.14,-6.599 -5.761,-18.703 -9.871,-37.868 -15.69,-56.555 -0.097,-0.313 -0.258,-0.551 -0.451,-0.735 1.683,-3.886 3.331,-7.786 4.932,-11.705 1.616,0.002 3.231,-0.025 4.844,-0.152 3.256,-0.258 6.446,-1.015 9.592,-1.929 -0.666,3.663 -0.959,7.437 -0.587,11.129 0.095,0.944 0.731,1.642 1.714,1.672 0.86,0.025 1.761,-0.83 1.672,-1.715 -0.214,-2.127 -0.194,-4.271 -0.02,-6.4 0.024,-0.293 0.051,-0.585 0.081,-0.877 0.009,-0.096 0.02,-0.192 0.03,-0.288 0.003,-0.023 0.022,-0.193 0.028,-0.242 0.064,-0.518 0.136,-1.035 0.217,-1.551 0.15,-0.956 0.336,-1.906 0.542,-2.852 0.843,-0.267 1.683,-0.535 2.521,-0.8 5.638,-1.783 11.29,-3.61 17.143,-4.551 0.101,-0.016 0.203,-0.024 0.304,-0.039 -0.5,0.25 -0.984,0.533 -1.424,0.902 -0.308,0.258 -0.448,0.636 -0.468,1.027 -0.468,0.791 -0.78,1.681 -1.029,2.56 -0.651,2.298 -1.075,4.613 -1.834,6.887 -1.611,4.828 -3.508,9.556 -5.175,14.364 -0.665,1.92 -1.302,3.96 -1.094,6.017 0.237,2.34 0.881,4.643 1.34,6.945 0.615,3.094 0.734,6.343 1.402,9.441 0.004,0.568 0.036,1.131 0.126,1.689 -1.396,2.197 -2.937,4.3 -4.537,6.359 -0.461,0.594 -0.666,1.34 -0.249,2.037 0.053,0.088 0.106,0.176 0.16,0.265 -0.104,0.174 -0.18,0.383 -0.21,0.638 -0.794,6.571 3.521,12.245 6.335,17.826 0.513,1.017 1.042,2.021 1.608,3 C 11.911,-2.732 10.69,-2.46 9.494,-2.153 6.354,-1.346 3.241,-0.318 0,0 Z"
         style="fill:none;stroke:#ffbc38;stroke-width:1;stroke-linecap:butt;stroke-linejoin:miter;stroke-miterlimit:10;stroke-dasharray:none;stroke-opacity:1"
         id="path350" />
    </g>
    <g
       id="g352"
       transform="matrix(0.32942378,0,0,-0.32942378,112.1739,147.64592)">
      <path
         d="m 0,0 c -5.028,2.409 -9.766,5.353 -14.686,7.954 -0.19,-0.052 -0.387,-0.076 -0.583,-0.069 -1.612,-6.128 -1.79,-12.581 -4.146,-18.528 -0.768,-1.937 -1.88,-3.811 -1.777,-5.942 0.156,-3.261 1.447,-6.196 2.352,-9.285 1.289,-4.401 1.93,-8.965 3.31,-13.35 0.654,-2.079 1.404,-4.306 2.71,-6.082 1.297,-1.763 3.338,-2.028 5.421,-2.335 1.503,-0.221 3.028,-0.368 4.508,-0.724 1.51,-0.364 2.975,-0.986 4.427,-1.528 2.837,-1.06 5.669,-2.134 8.568,-3.008 3.521,11.248 4.845,23.035 6.268,34.694 0.564,4.624 1.378,9.238 2.045,13.866 C 12.332,-5.914 5.324,-2.551 0,0 Z"
         style="fill:none;stroke:#ffbc38;stroke-width:1;stroke-linecap:butt;stroke-linejoin:miter;stroke-miterlimit:10;stroke-dasharray:none;stroke-opacity:1"
         id="path354" />
    </g>
    <g
       id="g356"
       transform="matrix(0.32942378,0,0,-0.32942378,137.94695,39.075283)">
      <path
         d="m 0,0 c 4.312,-1.239 8.652,-2.4 12.932,-3.749 0.256,-0.081 0.51,-0.167 0.765,-0.249 L 1.311,48.896 C 0.055,43.764 -1.664,38.763 -3.13,33.69 -4.594,28.622 -6.365,23.727 -8.109,18.751 -9.411,15.035 -11.552,11.064 -11.795,7.086 -11.878,5.731 -13.227,5.235 -14.198,5.583 -14.314,5.203 -14.419,4.82 -14.529,4.438 -9.726,2.831 -4.861,1.396 0,0 Z"
         style="fill:none;stroke:#ffbc38;stroke-width:1;stroke-linecap:butt;stroke-linejoin:miter;stroke-miterlimit:10;stroke-dasharray:none;stroke-opacity:1"
         id="path358" />
    </g>
    <g
       id="g360"
       transform="matrix(0.32942378,0,0,-0.32942378,137.54343,55.430318)">
      <path
         d="m 0,0 c -2.689,1.112 -5.314,2.19 -8.12,2.989 -6.352,1.811 -12.864,3.043 -18.89,5.838 -2.934,-7.791 -5.958,-15.551 -8.707,-23.406 0.616,-0.183 1.233,-0.358 1.857,-0.512 2.608,-0.643 5.311,-0.678 7.937,-1.266 2.738,-0.612 5.409,-1.491 8.153,-2.076 0.902,-0.192 1.839,-0.246 2.775,-0.3 0.544,0.706 1.127,1.386 1.769,2.027 1.718,1.715 3.668,3.165 5.627,4.596 0.086,0.191 0.213,0.377 0.399,0.55 2.477,2.304 4.45,5.039 6.62,7.618 0.891,1.059 1.833,2.076 2.789,3.081 C 1.462,-0.592 0.724,-0.299 0,0 Z"
         style="fill:none;stroke:#ffbc38;stroke-width:1;stroke-linecap:butt;stroke-linejoin:miter;stroke-miterlimit:10;stroke-dasharray:none;stroke-opacity:1"
         id="path362" />
    </g>
    <g
       id="g364"
       transform="matrix(0.32942378,0,0,-0.32942378,133.28142,52.871847)">
      <path
         d="m 0,0 c 6.943,6.817 12.507,14.826 18.783,22.225 2.449,2.888 4.949,5.708 7.355,8.633 0.84,1.021 1.713,2.066 2.656,3.035 l -0.032,0.138 c -1.528,0.502 -3.057,1 -4.598,1.454 -8.421,2.484 -17.028,4.753 -25.425,7.549 -0.418,-1.64 -0.807,-3.287 -1.189,-4.93 C -3.655,32.923 -4.951,27.788 -6.515,22.703 -8.438,16.449 -10.634,10.291 -12.913,4.163 -12.76,4.136 -12.605,4.095 -12.447,4.021 -8.479,2.17 -4.244,1.067 -0.006,-0.007 -0.004,-0.005 -0.002,-0.002 0,0 Z"
         style="fill:none;stroke:#ffbc38;stroke-width:1;stroke-linecap:butt;stroke-linejoin:miter;stroke-miterlimit:10;stroke-dasharray:none;stroke-opacity:1"
         id="path366" />
    </g>
    <g
       id="g368"
       transform="matrix(0.32942378,0,0,-0.32942378,142.4171,43.817043)">
      <path
         d="m 0,0 c -2.352,-2.916 -4.89,-5.654 -7.293,-8.527 -5.56,-6.645 -10.627,-13.714 -16.666,-19.941 0.651,-0.172 1.3,-0.347 1.946,-0.531 2.735,-0.779 5.303,-1.815 7.921,-2.907 1.32,-0.551 2.695,-1.122 4.105,-1.506 0.447,0.463 0.895,0.926 1.337,1.394 0.292,0.31 0.574,0.628 0.864,0.94 2.18,5.899 6.664,10.744 7.519,17.133 0.437,3.27 0.867,6.425 1.719,9.621 0.389,1.46 0.789,2.919 1.093,4.394 L 2.002,2.392 C 1.319,1.608 0.652,0.809 0,0 Z"
         style="fill:none;stroke:#ffbc38;stroke-width:1;stroke-linecap:butt;stroke-linejoin:miter;stroke-miterlimit:10;stroke-dasharray:none;stroke-opacity:1"
         id="path370" />
    </g>
    <g
       id="g372"
       transform="matrix(0.32942378,0,0,-0.32942378,125.12804,35.286779)">
      <path
         d="m 0,0 c -0.176,-0.424 -0.526,-0.703 -0.954,-0.813 -1.194,-4.57 -2.358,-9.148 -3.504,-13.73 -2.546,-10.177 -5.035,-20.379 -8.054,-30.428 -1.413,-4.702 -3.321,-9.233 -4.741,-13.932 -0.717,-2.374 -1.085,-4.823 -1.771,-7.199 -0.437,-1.515 -1.009,-2.985 -1.564,-4.461 5.443,-1.524 11.144,-1.968 16.621,-3.368 0.905,-0.231 1.799,-0.503 2.69,-0.783 2.56,7.281 5.401,14.466 8.122,21.685 3.456,9.168 6.799,18.393 9.479,27.823 1.498,5.271 2.593,10.655 3.981,15.951 C 13.268,-6.77 6.421,-3.831 0,0 Z"
         style="fill:none;stroke:#ffbc38;stroke-width:1;stroke-linecap:butt;stroke-linejoin:miter;stroke-miterlimit:10;stroke-dasharray:none;stroke-opacity:1"
         id="path374" />
    </g>
    <g
       id="g376"
       transform="matrix(0.32942378,0,0,-0.32942378,132.72006,13.420781)">
      <path
         d="m 0,0 c -1.03,-2.889 -2.218,-5.731 -3.242,-8.61 -1.848,-5.191 -3.554,-10.432 -5.425,-15.616 -1.818,-5.035 -4.104,-9.889 -6.257,-14.786 -0.06,-0.136 -0.113,-0.274 -0.172,-0.41 0.235,-0.203 0.414,-0.498 0.492,-0.897 0.008,-0.04 0.015,-0.08 0.023,-0.119 0.137,-0.696 -0.123,-1.577 -0.826,-1.892 -0.321,-0.144 -0.626,-0.198 -0.925,-0.204 -1.324,-3.611 -2.371,-7.295 -3.665,-10.933 -1.043,-2.936 -2.357,-5.966 -2.804,-9.09 4.08,-2.549 8.374,-4.732 12.797,-6.622 2.69,-1.149 5.422,-2.19 8.178,-3.169 0.75,2.552 1.595,5.075 2.639,7.54 0.242,0.571 0.896,0.834 1.514,0.817 0.655,1.778 1.389,3.531 1.993,5.273 1.727,4.975 3.56,9.854 5.005,14.921 1.453,5.095 3.186,10.109 4.473,15.251 0.569,2.273 1.074,4.553 1.682,6.815 L 12.644,-9.62 Z"
         style="fill:none;stroke:#ffbc38;stroke-width:1;stroke-linecap:butt;stroke-linejoin:miter;stroke-miterlimit:10;stroke-dasharray:none;stroke-opacity:1"
         id="path378" />
    </g>
    <g
       id="g380"
       transform="matrix(0.32942378,0,0,-0.32942378,112.16468,46.275764)">
      <path
         d="m 0,0 c -3.715,2.553 -7.408,5.143 -10.877,8.016 l -9.697,-9.911 c 4.29,-3.487 9.256,-6.066 14.006,-8.891 C -4.729,-7.004 -2.324,-3.519 0,0 Z"
         style="fill:none;stroke:#ffbc38;stroke-width:1;stroke-linecap:butt;stroke-linejoin:miter;stroke-miterlimit:10;stroke-dasharray:none;stroke-opacity:1"
         id="path382" />
    </g>
    <g
       id="g384"
       transform="matrix(0.32942378,0,0,-0.32942378,100.98802,237.87716)">
      <path
         d="m 0,0 -22.128,3.6 c -2.792,-17 -5.66,-34.456 -8.462,-51.507 l 22.128,-3.6 C -5.651,-34.409 -2.781,-16.935 0,0 Z"
         style="fill:none;stroke:#ffbc38;stroke-width:1;stroke-linecap:butt;stroke-linejoin:miter;stroke-miterlimit:10;stroke-dasharray:none;stroke-opacity:1"
         id="path386" />
    </g>
    <g
       id="g388"
       transform="matrix(0.32942378,0,0,-0.32942378,97.959286,256.31267)">
      <path
         d="m 0,0 -22.129,3.6 c -2.93,-17.826 -5.775,-35.118 -8.37,-50.88 l 22.13,-3.601 C -5.775,-35.122 -2.928,-17.812 0,0 Z"
         style="fill:none;stroke:#ffbc38;stroke-width:1;stroke-linecap:butt;stroke-linejoin:miter;stroke-miterlimit:10;stroke-dasharray:none;stroke-opacity:1"
         id="path390" />
    </g>
    <g
       id="g392"
       transform="matrix(0.32942378,0,0,-0.32942378,85.392924,233.83287)">
      <path
         d="m 0,0 c 3.481,18.833 6.793,36.757 9.696,52.467 l -20.581,3.349 C -13.988,39.775 -17.441,21.927 -21.022,3.42 Z"
         style="fill:none;stroke:#ffbc38;stroke-width:1;stroke-linecap:butt;stroke-linejoin:miter;stroke-miterlimit:10;stroke-dasharray:none;stroke-opacity:1"
         id="path394" />
    </g>
    <g
       id="g396"
       transform="matrix(0.32942378,0,0,-0.32942378,110.30934,239.39369)">
      <path
         d="M 0,0 -23.838,3.878 C -26.633,-13.14 -29.5,-30.597 -32.3,-47.629 l 23.838,-3.878 C -5.652,-34.409 -2.781,-16.936 0,0 Z"
         style="fill:none;stroke:#ffbc38;stroke-width:1;stroke-linecap:butt;stroke-linejoin:miter;stroke-miterlimit:10;stroke-dasharray:none;stroke-opacity:1"
         id="path398" />
    </g>
    <g
       id="g400"
       transform="matrix(0.32942378,0,0,-0.32942378,116.53204,201.47815)">
      <path
         d="m 0,0 -23.836,3.898 c -1.922,-11.716 -5.036,-30.707 -8.788,-53.565 l 23.839,-3.879 C -4.586,-27.962 -1.35,-8.233 0,0 Z"
         style="fill:none;stroke:#ffbc38;stroke-width:1;stroke-linecap:butt;stroke-linejoin:miter;stroke-miterlimit:10;stroke-dasharray:none;stroke-opacity:1"
         id="path402" />
    </g>
    <g
       id="g404"
       transform="matrix(0.32942378,0,0,-0.32942378,80.102016,270.61741)">
      <path
         d="m 0,0 19.253,-3.132 c 2.599,15.788 5.445,33.096 8.368,50.881 L 9.386,50.716 C 6.119,33.058 2.932,15.835 0,0 Z"
         style="fill:none;stroke:#ffbc38;stroke-width:1;stroke-linecap:butt;stroke-linejoin:miter;stroke-miterlimit:10;stroke-dasharray:none;stroke-opacity:1"
         id="path406" />
    </g>
    <g
       id="g408"
       transform="matrix(0.32942378,0,0,-0.32942378,85.490301,196.40162)">
      <path
         d="m 0,0 c -2.134,-11.037 -5.77,-29.838 -10.206,-52.771 0.235,-0.19 0.414,-0.436 0.535,-0.711 l 19.892,-3.236 c 5.724,30.985 9.724,52.644 9.87,53.432 z"
         style="fill:none;stroke:#ffbc38;stroke-width:1;stroke-linecap:butt;stroke-linejoin:miter;stroke-miterlimit:10;stroke-dasharray:none;stroke-opacity:1"
         id="path410" />
    </g>
    <g
       id="g412"
       transform="matrix(0.32942378,0,0,-0.32942378,93.576796,197.72409)">
      <path
         d="m 0,0 c -1.918,-10.387 -5.505,-29.809 -9.868,-53.429 l 15.883,-2.584 c 4.318,26.31 7.592,46.268 8.793,53.591 z"
         style="fill:none;stroke:#ffbc38;stroke-width:1;stroke-linecap:butt;stroke-linejoin:miter;stroke-miterlimit:10;stroke-dasharray:none;stroke-opacity:1"
         id="path414" />
    </g>
    <g
       id="g416"
       transform="matrix(0.32942378,0,0,-0.32942378,118.00005,201.71823)">
      <path
         d="m 0,0 c -1.923,-11.723 -5.036,-30.703 -8.783,-53.542 l 24.999,-4.067 c 0.062,0.023 0.118,0.055 0.183,0.072 0.144,0.016 0.287,0.033 0.43,0.05 0.037,0 0.071,-0.009 0.107,-0.011 l 9.069,53.245 z"
         style="fill:none;stroke:#ffbc38;stroke-width:1;stroke-linecap:butt;stroke-linejoin:miter;stroke-miterlimit:10;stroke-dasharray:none;stroke-opacity:1"
         id="path418" />
    </g>
    <g
       id="g420"
       transform="matrix(0.32942378,0,0,-0.32942378,107.21178,199.95393)">
      <path
         d="m 0,0 -22.126,3.619 c -1.875,-11.429 -4.999,-30.479 -8.792,-53.588 l 22.129,-3.6 C -4.584,-27.949 -1.345,-8.203 0,0 Z"
         style="fill:none;stroke:#ffbc38;stroke-width:1;stroke-linecap:butt;stroke-linejoin:miter;stroke-miterlimit:10;stroke-dasharray:none;stroke-opacity:1"
         id="path422" />
    </g>
    <g
       id="g424"
       transform="matrix(0.32942378,0,0,-0.32942378,92.470896,234.98442)">
      <path
         d="M 0,0 C 3.083,18.773 6.033,36.747 8.641,52.639 L -7.332,55.238 C -10.284,39.26 -13.586,21.385 -17.027,2.77 Z"
         style="fill:none;stroke:#ffbc38;stroke-width:1;stroke-linecap:butt;stroke-linejoin:miter;stroke-miterlimit:10;stroke-dasharray:none;stroke-opacity:1"
         id="path426" />
    </g>
    <g
       id="g428"
       transform="matrix(0.32942378,0,0,-0.32942378,83.464411,252.44742)">
      <path
         d="m 0,0 18.147,-2.952 c 2.813,17.117 5.684,34.592 8.461,51.507 L 9.492,51.34 C 6.373,34.465 3.157,17.069 0,0 Z"
         style="fill:none;stroke:#ffbc38;stroke-width:1;stroke-linecap:butt;stroke-linejoin:miter;stroke-miterlimit:10;stroke-dasharray:none;stroke-opacity:1"
         id="path430" />
    </g>
    <g
       id="g432"
       transform="matrix(0.32942378,0,0,-0.32942378,93.939391,235.22334)">
      <path
         d="m 0,0 22.129,-3.6 c 3.077,18.741 6.026,36.706 8.641,52.639 l -22.129,3.6 C 5.992,36.497 3.05,18.572 0,0 Z"
         style="fill:none;stroke:#ffbc38;stroke-width:1;stroke-linecap:butt;stroke-linejoin:miter;stroke-miterlimit:10;stroke-dasharray:none;stroke-opacity:1"
         id="path434" />
    </g>
    <g
       id="g436"
       transform="matrix(0.32942378,0,0,-0.32942378,113.39715,220.58521)">
      <path
         d="m 0,0 -23.838,3.878 c -2.655,-16.173 -5.597,-34.098 -8.641,-52.639 l 23.837,-3.878 C -5.564,-33.899 -2.615,-15.933 0,0 Z"
         style="fill:none;stroke:#ffbc38;stroke-width:1;stroke-linecap:butt;stroke-linejoin:miter;stroke-miterlimit:10;stroke-dasharray:none;stroke-opacity:1"
         id="path438" />
    </g>
    <g
       id="g440"
       transform="matrix(0.32942378,0,0,-0.32942378,111.77816,239.63266)">
      <path
         d="m 0,0 c -2.795,-17.018 -5.663,-34.475 -8.462,-51.507 l 25.008,-4.069 8.765,51.458 z"
         style="fill:none;stroke:#ffbc38;stroke-width:1;stroke-linecap:butt;stroke-linejoin:miter;stroke-miterlimit:10;stroke-dasharray:none;stroke-opacity:1"
         id="path442" />
    </g>
    <g
       id="g444"
       transform="matrix(0.32942378,0,0,-0.32942378,107.28055,257.8292)">
      <path
         d="m 0,0 -23.838,3.878 c -2.935,-17.851 -5.78,-35.147 -8.371,-50.88 l 23.84,-3.878 C -5.775,-35.122 -2.928,-17.812 0,0 Z"
         style="fill:none;stroke:#ffbc38;stroke-width:1;stroke-linecap:butt;stroke-linejoin:miter;stroke-miterlimit:10;stroke-dasharray:none;stroke-opacity:1"
         id="path446" />
    </g>
    <g
       id="g448"
       transform="matrix(0.32942378,0,0,-0.32942378,74.915501,251.05655)">
      <path
         d="m 0,0 21.492,-3.497 c 3.17,17.139 6.389,34.553 9.492,51.34 L 9.925,51.269 C 6.653,34.362 3.289,16.987 0,0 Z"
         style="fill:none;stroke:#ffbc38;stroke-width:1;stroke-linecap:butt;stroke-linejoin:miter;stroke-miterlimit:10;stroke-dasharray:none;stroke-opacity:1"
         id="path450" />
    </g>
    <g
       id="g452"
       transform="matrix(0.32942378,0,0,-0.32942378,114.86573,220.82415)">
      <path
         d="m 0,0 c -2.654,-16.174 -5.596,-34.098 -8.641,-52.639 l 25.338,-4.123 8.957,52.588 z"
         style="fill:none;stroke:#ffbc38;stroke-width:1;stroke-linecap:butt;stroke-linejoin:miter;stroke-miterlimit:10;stroke-dasharray:none;stroke-opacity:1"
         id="path454" />
    </g>
    <g
       id="g456"
       transform="matrix(0.32942378,0,0,-0.32942378,76.715605,233.92816)">
      <path
         d="M 0,0 -0.63,0.102 0.095,4.559 0.858,4.435 c 3.893,20.115 7.6,39.274 10.817,55.906 -0.431,4.38 1.105,8.685 2.328,12.822 0.243,0.824 0.435,1.659 0.635,2.492 0.357,1.847 0.704,3.64 1.042,5.389 0.332,2.267 0.571,4.549 0.743,6.835 0.74,9.809 1.746,20.055 5.101,29.381 -1.575,0.396 -3.143,0.844 -4.675,1.388 l -28.788,-133.105 -27.324,-160.452 5.502,0.781 C -29.162,-150.622 -13.61,-70.325 0,0 Z"
         style="fill:none;stroke:#ffbc38;stroke-width:1;stroke-linecap:butt;stroke-linejoin:miter;stroke-miterlimit:10;stroke-dasharray:none;stroke-opacity:1"
         id="path458" />
    </g>
    <g
       id="g460"
       transform="matrix(0.32942378,0,0,-0.32942378,105.74995,276.29703)">
      <path
         d="m 0,0 c -1.73,-10.505 -3.334,-20.229 -4.761,-28.874 l 25.821,3.668 3.61,21.192 z"
         style="fill:none;stroke:#ffbc38;stroke-width:1;stroke-linecap:butt;stroke-linejoin:miter;stroke-miterlimit:10;stroke-dasharray:none;stroke-opacity:1"
         id="path462" />
    </g>
    <g
       id="g464"
       transform="matrix(0.32942378,0,0,-0.32942378,116.97909,259.40712)">
      <path
         d="m 0,0 -24.983,4.065 c -2.934,-17.853 -5.78,-35.149 -8.37,-50.881 l 24.694,-4.017 z"
         style="fill:none;stroke:#ffbc38;stroke-width:1;stroke-linecap:butt;stroke-linejoin:miter;stroke-miterlimit:10;stroke-dasharray:none;stroke-opacity:1"
         id="path466" />
    </g>
    <g
       id="g468"
       transform="matrix(0.32942378,0,0,-0.32942378,67.151411,291.06877)">
      <path
         d="m 0,0 23.836,3.386 c 2.49,13.388 6.068,32.684 10.196,54.98 L 12.038,61.945 C 6.661,34.214 2.278,11.647 0,0 Z"
         style="fill:none;stroke:#ffbc38;stroke-width:1;stroke-linecap:butt;stroke-linejoin:miter;stroke-miterlimit:10;stroke-dasharray:none;stroke-opacity:1"
         id="path470" />
    </g>
    <g
       id="g472"
       transform="matrix(0.32942378,0,0,-0.32942378,71.400155,269.20171)">
      <path
         d="m 0,0 21.957,-3.572 c 2.937,15.864 6.126,33.099 9.385,50.716 L 9.812,50.646 C 6.38,32.922 3.046,15.711 0,0 Z"
         style="fill:none;stroke:#ffbc38;stroke-width:1;stroke-linecap:butt;stroke-linejoin:miter;stroke-miterlimit:10;stroke-dasharray:none;stroke-opacity:1"
         id="path474" />
    </g>
    <g
       id="g476"
       transform="matrix(0.32942378,0,0,-0.32942378,94.960697,274.54175)">
      <path
         d="m 0,0 -22.131,3.6 c -2.982,-18.106 -5.599,-33.967 -7.591,-46 l 23.276,3.306 C -4.649,-28.216 -2.45,-14.878 0,0 Z"
         style="fill:none;stroke:#ffbc38;stroke-width:1;stroke-linecap:butt;stroke-linejoin:miter;stroke-miterlimit:10;stroke-dasharray:none;stroke-opacity:1"
         id="path478" />
    </g>
    <g
       id="g480"
       transform="matrix(0.32942378,0,0,-0.32942378,86.202682,273.11693)">
      <path
         d="m 0,0 -19.342,3.147 c -3.988,-21.536 -7.457,-40.237 -9.94,-53.586 l 21.465,3.049 C -5.804,-35.223 -3.097,-18.81 0,0 Z"
         style="fill:none;stroke:#ffbc38;stroke-width:1;stroke-linecap:butt;stroke-linejoin:miter;stroke-miterlimit:10;stroke-dasharray:none;stroke-opacity:1"
         id="path482" />
    </g>
    <g
       id="g484"
       transform="matrix(0.32942378,0,0,-0.32942378,104.28188,276.05821)">
      <path
         d="m 0,0 -23.84,3.878 c -2.348,-14.255 -4.464,-27.08 -6.22,-37.704 l 25.072,3.562 C -3.505,-21.279 -1.822,-11.066 0,0 Z"
         style="fill:none;stroke:#ffbc38;stroke-width:1;stroke-linecap:butt;stroke-linejoin:miter;stroke-miterlimit:10;stroke-dasharray:none;stroke-opacity:1"
         id="path486" />
    </g>
    <g
       id="g488"
       transform="matrix(0.32942378,0,0,-0.32942378,24.284121,57.176989)">
      <path
         d="M 0,0 C 16.39,6.052 34.478,4.023 51.908,2.818 90.091,0.18 123.859,1.2 161.646,7.285 c 21.696,3.494 56.537,18.847 72.444,34.009 18.708,17.831 18.04,62.23 43.007,90.11 12.169,13.589 30.166,21.774 48.406,22.015 0.83,0.011 1.66,0.005 2.489,-0.017 24.503,-0.642 43.109,-21.846 42.045,-46.334 -0.378,-8.684 0.35,-17.417 2.196,-25.911 3.424,-15.758 11.858,-31.829 26.73,-38.064 10.582,-4.436 22.575,-3.183 33.972,-1.853 31.953,3.728 24.722,4.326 56.675,8.054"
         style="fill:none;stroke:#50edf7;stroke-width:17;stroke-linecap:butt;stroke-linejoin:miter;stroke-miterlimit:10;stroke-dasharray:none;stroke-opacity:1"
         id="path490" />
    </g>
    <text
       y="46.832497"
       x="44.052727"
       transform="rotate(3.0825823)"
       style="font-variant:normal;font-weight:bold;font-stretch:normal;font-size:10.0404px;font-family:'DIN Next LT Pro Bold';-inkscape-font-specification:DINNextLTPro-Bold;writing-mode:lr-tb;fill:#ffbc38;fill-opacity:1;fill-rule:nonzero;stroke:none;stroke-width:0.329423"
       id="text494"><tspan
         style="stroke-width:0.329423"
         x="44.052727"
         y="46.832497"
         id="tspan492">R</tspan></text>
    <text
       y="48.028507"
       x="49.168755"
       transform="rotate(1.6808382)"
       style="font-variant:normal;font-weight:bold;font-stretch:normal;font-size:10.0404px;font-family:'DIN Next LT Pro Bold';-inkscape-font-specification:DINNextLTPro-Bold;writing-mode:lr-tb;fill:#ffbc38;fill-opacity:1;fill-rule:nonzero;stroke:none;stroke-width:0.329423"
       id="text498"><tspan
         style="stroke-width:0.329423"
         x="49.168755"
         y="48.028507"
         id="tspan496"></tspan></text>
    <text
       y="49.339493"
       x="50.768578"
       transform="rotate(0.23648672)"
       style="font-variant:normal;font-weight:bold;font-stretch:normal;font-size:10.0404px;font-family:'DIN Next LT Pro Bold';-inkscape-font-specification:DINNextLTPro-Bold;writing-mode:lr-tb;fill:#ffbc38;fill-opacity:1;fill-rule:nonzero;stroke:none;stroke-width:0.329423"
       id="text502"><tspan
         style="stroke-width:0.329423"
         x="50.768578"
         y="49.339493"
         id="tspan500">o</tspan></text>
    <text
       y="52.557133"
       x="55.892208"
       transform="rotate(-3.0368361)"
       style="font-variant:normal;font-weight:bold;font-stretch:normal;font-size:10.0404px;font-family:'DIN Next LT Pro Bold';-inkscape-font-specification:DINNextLTPro-Bold;writing-mode:lr-tb;fill:#ffbc38;fill-opacity:1;fill-rule:nonzero;stroke:none;stroke-width:0.329423"
       id="text506"><tspan
         style="stroke-width:0.329423"
         x="55.892208"
         y="52.557133"
         id="tspan504">D</tspan></text>
    <text
       y="55.110966"
       x="60.193668"
       transform="rotate(-5.4371951)"
       style="font-variant:normal;font-weight:bold;font-stretch:normal;font-size:10.0404px;font-family:'DIN Next LT Pro Bold';-inkscape-font-specification:DINNextLTPro-Bold;writing-mode:lr-tb;fill:#ffbc38;fill-opacity:1;fill-rule:nonzero;stroke:none;stroke-width:0.329423"
       id="text510"><tspan
         style="stroke-width:0.329423"
         x="60.193668"
         y="55.110966"
         id="tspan508">e</tspan></text>
    <text
       y="58.065182"
       x="65.579933"
       transform="rotate(-8.0436206)"
       style="font-variant:normal;font-weight:bold;font-stretch:normal;font-size:10.0404px;font-family:'DIN Next LT Pro Bold';-inkscape-font-specification:DINNextLTPro-Bold;writing-mode:lr-tb;fill:#ffbc38;fill-opacity:1;fill-rule:nonzero;stroke:none;stroke-width:0.329423"
       id="text514"><tspan
         style="stroke-width:0.329423"
         x="65.579933"
         y="58.065182"
         id="tspan512">l</tspan></text>
    <text
       y="61.788925"
       x="65.63604"
       transform="rotate(-11.159551)"
       style="font-variant:normal;font-weight:bold;font-stretch:normal;font-size:10.0404px;font-family:'DIN Next LT Pro Bold';-inkscape-font-specification:DINNextLTPro-Bold;writing-mode:lr-tb;fill:#ffbc38;fill-opacity:1;fill-rule:nonzero;stroke:none;stroke-width:0.329423"
       id="text518"><tspan
         style="stroke-width:0.329423"
         x="65.63604"
         y="61.788925"
         id="tspan516">o</tspan></text>
    <text
       y="71.685257"
       x="61.690208"
       transform="rotate(-19.702925)"
       style="font-variant:normal;font-weight:bold;font-stretch:normal;font-size:10.0404px;font-family:'DIN Next LT Pro Bold';-inkscape-font-specification:DINNextLTPro-Bold;writing-mode:lr-tb;fill:#ffbc38;fill-opacity:1;fill-rule:nonzero;stroke:none;stroke-width:0.329423"
       id="text522"><tspan
         style="stroke-width:0.329423"
         x="61.690208"
         y="71.685257"
         id="tspan520">s</tspan></text>
    <text
       y="86.205101"
       x="51.008289"
       transform="rotate(-33.664677)"
       style="font-variant:normal;font-weight:bold;font-stretch:normal;font-size:10.0404px;font-family:'DIN Next LT Pro Bold';-inkscape-font-specification:DINNextLTPro-Bold;writing-mode:lr-tb;fill:#ffbc38;fill-opacity:1;fill-rule:nonzero;stroke:none;stroke-width:0.329423"
       id="text526"><tspan
         style="stroke-width:0.329423"
         x="51.008289"
         y="86.205101"
         id="tspan524">R</tspan></text>
    <text
       y="100.1004"
       x="29.108418"
       transform="rotate(-51.669742)"
       style="font-variant:normal;font-weight:bold;font-stretch:normal;font-size:10.0404px;font-family:'DIN Next LT Pro Bold';-inkscape-font-specification:DINNextLTPro-Bold;writing-mode:lr-tb;fill:#ffbc38;fill-opacity:1;fill-rule:nonzero;stroke:none;stroke-width:0.329423"
       id="text530"><tspan
         style="stroke-width:0.329423"
         x="29.108418"
         y="100.1004"
         id="tspan528">e</tspan></text>
    <text
       y="105.77496"
       x="-3.4130135"
       transform="rotate(-73.463402)"
       style="font-variant:normal;font-weight:bold;font-stretch:normal;font-size:10.0404px;font-family:'DIN Next LT Pro Bold';-inkscape-font-specification:DINNextLTPro-Bold;writing-mode:lr-tb;fill:#ffbc38;fill-opacity:1;fill-rule:nonzero;stroke:none;stroke-width:0.329423"
       id="text534"><tspan
         style="stroke-width:0.329423"
         x="-3.4130135"
         y="105.77496"
         id="tspan532">a</tspan></text>
    <text
       y="105.66889"
       x="-3.4899333"
       transform="rotate(-76.514123)"
       style="font-variant:normal;font-weight:bold;font-stretch:normal;font-size:10.0404px;font-family:'DIN Next LT Pro Bold';-inkscape-font-specification:DINNextLTPro-Bold;writing-mode:lr-tb;fill:#ffbc38;fill-opacity:1;fill-rule:nonzero;stroke:none;stroke-width:0.329423"
       id="text538"><tspan
         style="stroke-width:0.329423"
         x="-3.4899333"
         y="105.66889"
         id="tspan536">r</tspan></text>
    <text
       y="105.60484"
       x="3.4889832"
       transform="rotate(-75.055771)"
       style="font-variant:normal;font-weight:bold;font-stretch:normal;font-size:10.0404px;font-family:'DIN Next LT Pro Bold';-inkscape-font-specification:DINNextLTPro-Bold;writing-mode:lr-tb;fill:#ffbc38;fill-opacity:1;fill-rule:nonzero;stroke:none;stroke-width:0.329423"
       id="text542"><tspan
         style="stroke-width:0.329423"
         x="3.4889832"
         y="105.60484"
         id="tspan540">t</tspan></text>
    <text
       y="104.65733"
       x="15.21454"
       transform="rotate(-70.429786)"
       style="font-variant:normal;font-weight:bold;font-stretch:normal;font-size:10.0404px;font-family:'DIN Next LT Pro Bold';-inkscape-font-specification:DINNextLTPro-Bold;writing-mode:lr-tb;fill:#ffbc38;fill-opacity:1;fill-rule:nonzero;stroke:none;stroke-width:0.329423"
       id="text546"><tspan
         style="stroke-width:0.329423"
         x="15.21454"
         y="104.65733"
         id="tspan544">e</tspan></text>
    <text
       y="100.03335"
       x="36.753124"
       transform="rotate(-61.234216)"
       style="font-variant:normal;font-weight:bold;font-stretch:normal;font-size:10.0404px;font-family:'DIN Next LT Pro Bold';-inkscape-font-specification:DINNextLTPro-Bold;writing-mode:lr-tb;fill:#ffbc38;fill-opacity:1;fill-rule:nonzero;stroke:none;stroke-width:0.329423"
       id="text550"><tspan
         style="stroke-width:0.329423"
         x="36.753124"
         y="100.03335"
         id="tspan548">s</tspan></text>
  </g>
</svg>
